<?xml version="1.0" encoding="utf-8"?>
<!-- Generator: Adobe Illustrator 16.2.0, SVG Export Plug-In . SVG Version: 6.00 Build 0)  -->
<!DOCTYPE svg PUBLIC "-//W3C//DTD SVG 1.1//EN" "http://www.w3.org/Graphics/SVG/1.1/DTD/svg11.dtd">
<svg version="1.1" id="Layer_1" xmlns="http://www.w3.org/2000/svg" xmlns:xlink="http://www.w3.org/1999/xlink" x="0px" y="0px"
	 width="14.513px" height="24.255px" viewBox="0 0 14.513 24.255" enable-background="new 0 0 14.513 24.255" xml:space="preserve">
<g>
	<g>
		<defs>
			<rect id="SVGID_1_" y="2.989" width="5.401" height="16.867"/>
		</defs>
		<clipPath id="SVGID_2_">
			<use xlink:href="#SVGID_1_"  overflow="visible"/>
		</clipPath>
		<path clip-path="url(#SVGID_2_)" fill="#D5D5D5" d="M4.103,4.393c0,0.777-0.64,1.41-1.428,1.41c-0.789,0-1.429-0.633-1.429-1.41
			c0-0.779,0.64-1.409,1.429-1.409C3.463,2.984,4.103,3.614,4.103,4.393L4.103,4.393z M4.103,4.393"/>
	</g>
	<path fill="#D5D5D5" d="M5.347,6.647c0-0.377-0.276-0.624-0.62-0.624H0.605C0.253,6.023,0,6.296,0,6.647v5.05
		c0,0.283,0.2,0.51,0.48,0.51c0.224,0,0.358-0.091,0.454-0.255v7.133c0,0.423,0.342,0.763,0.765,0.763
		c0.422,0,0.764-0.34,0.764-0.763v-5.762h0.424v5.762c0,0.423,0.34,0.763,0.763,0.763c0.423,0,0.765-0.34,0.765-0.763v-7.133
		c0.085,0.152,0.244,0.255,0.432,0.255c0.282,0,0.501-0.227,0.501-0.51V6.647z M5.347,6.647"/>
</g>
<g>
	<g>
		<defs>
			<rect id="SVGID_3_" x="9.112" y="3.201" width="5.401" height="16.867"/>
		</defs>
		<clipPath id="SVGID_4_">
			<use xlink:href="#SVGID_3_"  overflow="visible"/>
		</clipPath>
		<path clip-path="url(#SVGID_4_)" fill="#D5D5D5" d="M13.216,4.606c0,0.776-0.641,1.409-1.429,1.409
			c-0.789,0-1.429-0.633-1.429-1.409c0-0.779,0.64-1.409,1.429-1.409C12.576,3.197,13.216,3.827,13.216,4.606L13.216,4.606z
			 M13.216,4.606"/>
	</g>
	<path fill="#D5D5D5" d="M14.46,6.86c0-0.378-0.276-0.625-0.62-0.625H9.719c-0.354,0-0.607,0.274-0.607,0.625v5.05
		c0,0.282,0.2,0.51,0.481,0.51c0.224,0,0.358-0.091,0.453-0.257v7.133c0,0.424,0.343,0.764,0.765,0.764s0.764-0.34,0.764-0.764
		v-5.759H12v5.759c0,0.424,0.341,0.764,0.764,0.764c0.424,0,0.766-0.34,0.766-0.764v-7.133c0.083,0.153,0.242,0.257,0.431,0.257
		c0.283,0,0.501-0.228,0.501-0.51V6.86z M14.46,6.86"/>
</g>
<g>
	<g>
		<defs>
			<rect id="SVGID_5_" x="3.397" y="0.006" width="7.764" height="24.25"/>
		</defs>
		<clipPath id="SVGID_6_">
			<use xlink:href="#SVGID_5_"  overflow="visible"/>
		</clipPath>
		<path clip-path="url(#SVGID_6_)" fill="#959595" d="M9.296,2.026c0,1.117-0.923,2.026-2.054,2.026
			c-1.133,0-2.055-0.909-2.055-2.026C5.188,0.906,6.11,0,7.243,0C8.374,0,9.296,0.906,9.296,2.026L9.296,2.026z M9.296,2.026"/>
	</g>
	<path fill="#959595" d="M11.086,5.267c0-0.545-0.399-0.898-0.894-0.898H4.267c-0.507,0-0.87,0.394-0.87,0.898v7.26
		c0,0.407,0.288,0.731,0.689,0.731c0.323,0,0.516-0.129,0.652-0.368v10.256c0,0.607,0.492,1.098,1.1,1.098s1.097-0.49,1.097-1.098
		v-8.281h0.613v8.281c0,0.607,0.49,1.098,1.098,1.098c0.606,0,1.099-0.49,1.099-1.098V12.89c0.121,0.222,0.35,0.368,0.621,0.368
		c0.404,0,0.721-0.324,0.721-0.731V5.267z M11.086,5.267"/>
</g>
<g>
</g>
<g>
</g>
<g>
</g>
<g>
</g>
<g>
</g>
<g>
</g>
</svg>
