<?xml version="1.0" encoding="utf-8"?>
<!-- Generator: Adobe Illustrator 16.2.0, SVG Export Plug-In . SVG Version: 6.00 Build 0)  -->
<!DOCTYPE svg PUBLIC "-//W3C//DTD SVG 1.1//EN" "http://www.w3.org/Graphics/SVG/1.1/DTD/svg11.dtd">
<svg version="1.1" id="Layer_1" xmlns="http://www.w3.org/2000/svg" xmlns:xlink="http://www.w3.org/1999/xlink" x="0px" y="0px"
	 width="20.438px" height="21.403px" viewBox="0 0 20.438 21.403" enable-background="new 0 0 20.438 21.403" xml:space="preserve">
<g>
	<path d="M4.575,4.869c0.807,0,1.575-0.41,2.024-1.081c0.455-0.677,0.536-1.563,0.215-2.315C6.5,0.741,5.826,0.196,5.045,0.044
		c-0.8-0.155-1.643,0.105-2.211,0.689C2.265,1.315,2.022,2.165,2.199,2.962C2.37,3.738,2.931,4.398,3.67,4.694
		C3.957,4.811,4.266,4.869,4.575,4.869L4.575,4.869z M4.575,4.869"/>
	<path d="M7.381,10.894C7.435,10.744,7.376,10.857,7.381,10.894L7.381,10.894z M7.381,10.894"/>
	<path d="M9.1,10.131c0.039-0.364,0.048-0.729,0.054-1.094C9.143,8.711,9.137,8.381,9.086,8.058C9.022,7.555,8.904,7.05,8.713,6.582
		L8.639,6.393C8.551,6.208,8.457,6.028,8.356,5.85C8.145,5.506,7.899,5.188,7.61,4.905C7.516,4.818,7.422,4.73,7.324,4.653
		C7.23,4.573,7.131,4.506,7.035,4.437C6.912,4.358,6.79,4.277,6.662,4.208C6.021,4.909,5.05,5.243,4.113,5.085
		C3.497,4.978,2.926,4.662,2.507,4.2C2.473,4.217,2.439,4.236,2.404,4.258C2.309,4.31,2.215,4.375,2.116,4.437
		C2.022,4.506,1.923,4.573,1.828,4.653C1.73,4.73,1.638,4.818,1.543,4.905C1.252,5.188,1.007,5.506,0.795,5.85
		C0.694,6.028,0.603,6.208,0.514,6.393L0.438,6.582C0.248,7.05,0.128,7.555,0.065,8.059C0.014,8.382,0.01,8.711,0,9.037
		c0.004,0.287,0.014,0.572,0.033,0.859c0.012,0.207,0.039,0.413,0.063,0.62c0.043,0.377,0.382,0.665,0.762,0.642
		c0.379-0.022,0.681-0.349,0.679-0.727v-0.034c-0.002-0.173-0.008-0.345-0.003-0.519c0.01-0.253,0.025-0.505,0.048-0.757
		c0.032-0.259,0.061-0.523,0.13-0.776C1.793,7.991,1.91,7.634,2.082,7.312l0.063-0.118l0.069-0.11
		c0.042-0.078,0.096-0.143,0.142-0.21C2.361,6.865,2.365,6.86,2.369,6.855l-0.562,3.93c-0.095,0.682,0.06,1.386,0.444,1.958
		l0.372,7.857c0.021,0.413,0.354,0.763,0.766,0.8c0.407,0.037,0.793-0.234,0.894-0.632c0.016-0.056,0.023-0.113,0.025-0.171
		l0.27-5.97L4.855,20.6c0.021,0.414,0.352,0.764,0.766,0.801c0.405,0.037,0.792-0.233,0.894-0.632
		c0.015-0.056,0.022-0.113,0.024-0.169l0.357-7.818c0.252-0.361,0.417-0.783,0.477-1.233c0.112,0.163,0.342,0.208,0.509,0.102
		c0.075-0.048,0.133-0.124,0.156-0.209c0.014-0.047,0.014-0.093,0.017-0.14c0.004-0.063,0.019-0.125,0.043-0.184
		c0.294,0.104,0.624,0.006,0.815-0.241c0.145,0.1,0.242,0.269,0.242,0.458v9.438c0,0.203,0.169,0.376,0.374,0.376
		s0.374-0.173,0.374-0.376v-9.438C9.903,10.793,9.572,10.327,9.1,10.131L9.1,10.131z M7.617,10.488
		c-0.102,0.117-0.183,0.256-0.236,0.405c-0.005-0.036-0.008-0.072-0.013-0.108l-0.557-3.89c0.042,0.06,0.087,0.12,0.127,0.188
		l0.067,0.11l0.063,0.118c0.173,0.322,0.291,0.68,0.372,1.034c0.07,0.253,0.098,0.518,0.132,0.776
		c0.021,0.252,0.035,0.504,0.045,0.757c0.008,0.174,0,0.346-0.002,0.519v0.037C7.615,10.453,7.615,10.471,7.617,10.488L7.617,10.488
		z M7.617,10.488"/>
	<path d="M14.903,4.869c0.807,0,1.574-0.41,2.023-1.081c0.455-0.677,0.536-1.563,0.214-2.315c-0.314-0.731-0.988-1.276-1.769-1.429
		c-0.799-0.155-1.643,0.105-2.212,0.689c-0.568,0.582-0.811,1.432-0.635,2.229c0.172,0.776,0.732,1.437,1.473,1.732
		C14.285,4.811,14.593,4.869,14.903,4.869L14.903,4.869z M14.903,4.869"/>
	<path d="M19.43,10.103c0.037-0.354,0.045-0.711,0.05-1.065c-0.01-0.326-0.015-0.656-0.067-0.979
		c-0.063-0.503-0.181-1.008-0.371-1.476l-0.075-0.189c-0.089-0.185-0.183-0.364-0.282-0.543c-0.212-0.344-0.457-0.662-0.746-0.944
		c-0.095-0.087-0.188-0.175-0.285-0.252c-0.095-0.08-0.194-0.147-0.289-0.217c-0.122-0.078-0.246-0.159-0.374-0.229
		c-0.642,0.701-1.612,1.035-2.549,0.877c-0.616-0.107-1.188-0.423-1.606-0.885c-0.033,0.017-0.067,0.036-0.103,0.058
		c-0.097,0.052-0.189,0.117-0.287,0.179c-0.095,0.069-0.194,0.137-0.29,0.217c-0.097,0.077-0.189,0.165-0.284,0.252
		c-0.289,0.282-0.536,0.601-0.747,0.944c-0.102,0.179-0.193,0.358-0.282,0.543l-0.076,0.189c-0.19,0.468-0.31,0.973-0.372,1.477
		c-0.051,0.323-0.055,0.652-0.067,0.979c0.005,0.287,0.016,0.572,0.035,0.859c0.013,0.207,0.04,0.413,0.063,0.62
		c0.042,0.377,0.382,0.665,0.761,0.642c0.38-0.022,0.683-0.349,0.68-0.727v-0.034c0-0.173-0.008-0.345-0.003-0.519
		c0.01-0.253,0.024-0.505,0.048-0.757c0.033-0.259,0.061-0.523,0.129-0.776c0.083-0.354,0.2-0.712,0.372-1.034l0.063-0.118
		l0.069-0.11c0.042-0.078,0.096-0.143,0.142-0.21c0.005-0.008,0.009-0.013,0.014-0.018l-0.563,3.93
		c-0.015,0.109-0.023,0.224-0.026,0.337c-0.301,0.943-0.555,1.904-0.745,2.876c-0.217,1.109-0.355,2.237-0.369,3.368
		c-0.002,0.146-0.005,0.282,0.086,0.403c0.081,0.105,0.211,0.171,0.344,0.171h1.43l0.127,2.66c0.021,0.413,0.353,0.763,0.767,0.8
		c0.407,0.037,0.792-0.234,0.894-0.632c0.013-0.056,0.022-0.113,0.024-0.171l0.12-2.657h0.302l0.124,2.659
		c0.021,0.414,0.353,0.764,0.766,0.801c0.407,0.037,0.793-0.233,0.893-0.632c0.015-0.056,0.023-0.113,0.027-0.169l0.121-2.659h1.416
		c0.117,0,0.233-0.052,0.314-0.139c0.086-0.094,0.115-0.207,0.115-0.33c0-0.289-0.01-0.577-0.027-0.867
		c-0.035-0.567-0.098-1.135-0.185-1.699c-0.157-1.034-0.393-2.055-0.685-3.063c-0.029-0.103-0.06-0.204-0.091-0.307
		c0.091,0.186,0.326,0.263,0.508,0.168c0.084-0.042,0.148-0.116,0.183-0.204c0.016-0.049,0.02-0.095,0.022-0.145
		c0.001-0.067,0.015-0.135,0.042-0.197c0.261,0.015,0.502-0.114,0.637-0.322c0.242,0.06,0.419,0.275,0.419,0.534v9.438
		c0,0.206,0.173,0.376,0.376,0.376c0.204,0,0.375-0.17,0.375-0.376v-9.438C20.438,10.753,20.006,10.234,19.43,10.103L19.43,10.103z
		 M17.876,11.056c-0.028,0.116-0.051,0.246-0.035,0.364c-0.041-0.133-0.081-0.263-0.121-0.389c-0.005-0.081-0.012-0.163-0.024-0.246
		l-0.558-3.89c0.043,0.06,0.088,0.12,0.128,0.188l0.067,0.11l0.063,0.118c0.175,0.322,0.291,0.68,0.372,1.034
		c0.07,0.253,0.098,0.518,0.132,0.776c0.021,0.252,0.036,0.504,0.045,0.757c0.008,0.174,0,0.346-0.002,0.519v0.037
		c0,0.104,0.022,0.204,0.064,0.297C17.948,10.832,17.902,10.942,17.876,11.056L17.876,11.056z M17.876,11.056"/>
</g>
<g>
</g>
<g>
</g>
<g>
</g>
<g>
</g>
<g>
</g>
<g>
</g>
</svg>
