<?xml version="1.0" encoding="utf-8"?>
<!-- Generator: Adobe Illustrator 16.2.0, SVG Export Plug-In . SVG Version: 6.00 Build 0)  -->
<!DOCTYPE svg PUBLIC "-//W3C//DTD SVG 1.1//EN" "http://www.w3.org/Graphics/SVG/1.1/DTD/svg11.dtd">
<svg version="1.1" id="Layer_1" xmlns="http://www.w3.org/2000/svg" xmlns:xlink="http://www.w3.org/1999/xlink" x="0px" y="0px"
	 width="27.398px" height="21.288px" viewBox="0 0 27.398 21.288" enable-background="new 0 0 27.398 21.288" xml:space="preserve">
<g>
	<path d="M0.095,11.773l2.695-5.486c0.114-0.235,0.354-0.384,0.616-0.384l5.704,0.005c0.258,0,0.491,0.146,0.608,0.375l2.674,5.266
		c0.21,0.412,0.085,0.918-0.292,1.19c-0.467,0.329-1.118,0.172-1.379-0.336L8.917,8.906L8.542,12.47l0.877,7.466
		c0.085,0.718-0.476,1.347-1.195,1.344H8.22c-0.608,0-1.12-0.451-1.195-1.056l-0.736-5.975l-0.713,5.975
		c-0.071,0.606-0.586,1.064-1.196,1.064c-0.719,0-1.277-0.625-1.196-1.342l0.842-7.458L3.626,8.931l-1.869,3.674
		c-0.227,0.446-0.77,0.632-1.221,0.421C0.065,12.804-0.133,12.24,0.095,11.773"/>
	<path d="M8.746,2.498c0.007,1.383-1.111,2.51-2.496,2.518c-1.386,0.005-2.513-1.114-2.519-2.5C3.726,1.132,4.844,0.005,6.229,0
		S8.741,1.113,8.746,2.498"/>
	<path d="M23.084,2.498c0.006,1.383-1.111,2.51-2.498,2.518c-1.385,0.005-2.51-1.114-2.516-2.5C18.064,1.132,19.184,0.005,20.568,0
		S23.08,1.113,23.084,2.498"/>
	<path d="M13.931,11.428l4-5.237c0.139-0.181,0.354-0.287,0.582-0.287h4.084c0.227,0,0.438,0.105,0.576,0.282l4.043,5.194
		c0.293,0.377,0.225,0.92-0.154,1.211c-0.334,0.256-0.807,0.233-1.113-0.058l-2.854-3.289l1.277,5.553h-1.785l0.18,5.575
		c0.016,0.479-0.365,0.874-0.844,0.877l0,0c-0.439,0-0.807-0.331-0.85-0.767l-0.482-5.121l-0.467,5.13
		c-0.039,0.433-0.404,0.766-0.842,0.769c-0.479,0.002-0.867-0.394-0.854-0.872l0.16-5.572h-1.777l1.234-5.55l-2.838,3.307
		c-0.303,0.29-0.773,0.316-1.111,0.064h-0.001C13.717,12.349,13.641,11.808,13.931,11.428"/>
</g>
<g>
</g>
<g>
</g>
<g>
</g>
<g>
</g>
<g>
</g>
<g>
</g>
</svg>
