<?xml version="1.0" encoding="utf-8"?>
<!-- Generator: Adobe Illustrator 16.2.0, SVG Export Plug-In . SVG Version: 6.00 Build 0)  -->
<!DOCTYPE svg PUBLIC "-//W3C//DTD SVG 1.1//EN" "http://www.w3.org/Graphics/SVG/1.1/DTD/svg11.dtd">
<svg version="1.1" id="Layer_1" xmlns="http://www.w3.org/2000/svg" xmlns:xlink="http://www.w3.org/1999/xlink" x="0px" y="0px"
	 width="15.83px" height="17.292px" viewBox="0 0 15.83 17.292" enable-background="new 0 0 15.83 17.292" xml:space="preserve">
<g>
	<path d="M5.887,9.919c-0.693-0.004-1.251-0.566-1.25-1.262c0.004-0.691,0.567-1.25,1.259-1.248
		c0.692,0.003,1.252,0.565,1.249,1.259C7.143,9.359,6.578,9.92,5.887,9.919"/>
	<g>
		<path d="M4.763,2.597C4.769,1.004,3.706,0.003,2.391,0C1.075-0.007,0.006,0.99,0,2.58c-0.005,2.072,1.674,2.999,2.208,3.24
			c-0.13,0.932,0.157,1.839,0.385,2.742c0.244,0.972,0.401,2.129-0.335,2.938c-0.135,0.148,0.087,0.369,0.223,0.221
			c1.556-1.713-0.252-3.953,0.045-5.898C3.052,5.581,4.757,4.644,4.763,2.597"/>
		<path d="M12.252,9.565c-0.692-0.004-1.251-0.566-1.249-1.259c0.003-0.692,0.566-1.252,1.259-1.248
			c0.692,0.001,1.252,0.565,1.249,1.258C13.509,9.009,12.944,9.568,12.252,9.565"/>
		<path d="M8.774,12.75L8.774,12.75c-0.135-0.171-0.117-0.416,0.04-0.564l1.96-1.858c0.121-0.115,0.283-0.179,0.451-0.18h1.03h1.033
			c0.167,0.001,0.328,0.064,0.449,0.18l1.962,1.858c0.157,0.148,0.174,0.394,0.039,0.564c-0.138,0.174-0.389,0.208-0.571,0.078
			l-1.467-1.054l-0.245,1.748l0.459,3.736h-1.202l-0.457-2.486l-0.455,2.486h-1.202l0.459-3.736l-0.244-1.748l-1.468,1.054
			C9.164,12.958,8.913,12.924,8.774,12.75"/>
		<path d="M8.876,12.84l-1.783-0.904l0.797,2.961l-0.857,0.01L6.99,16.833c-0.005,0.249-0.207,0.449-0.454,0.451l0,0
			c-0.237,0.003-0.438-0.176-0.465-0.41l-0.199-1.936l-0.191,1.939c-0.023,0.235-0.223,0.414-0.458,0.414
			c-0.249-0.002-0.454-0.201-0.459-0.45l-0.052-1.926l-0.856-0.002l0.769-2.97l-2.293-1.786C2.18,10.04,2.14,9.829,2.238,9.664
			c0.103-0.171,0.315-0.235,0.494-0.148l2,0.979l2.24-0.004l2.012,1.557c0.154,0.119,0.19,0.337,0.085,0.501L8.876,12.84z"/>
	</g>
</g>
<g>
</g>
<g>
</g>
<g>
</g>
<g>
</g>
<g>
</g>
<g>
</g>
</svg>
