<?xml version="1.0" encoding="utf-8"?>
<!-- Generator: Adobe Illustrator 16.2.0, SVG Export Plug-In . SVG Version: 6.00 Build 0)  -->
<!DOCTYPE svg PUBLIC "-//W3C//DTD SVG 1.1//EN" "http://www.w3.org/Graphics/SVG/1.1/DTD/svg11.dtd">
<svg version="1.1" id="Layer_1" xmlns="http://www.w3.org/2000/svg" xmlns:xlink="http://www.w3.org/1999/xlink" x="0px" y="0px"
	 width="20.404px" height="17.315px" viewBox="0 0 20.404 17.315" enable-background="new 0 0 20.404 17.315" xml:space="preserve">
<g>
	<path fill="#010101" d="M4.636,9.738v2.881c0,0,2.443,2.699,5.876,2.699c4.321,0,5.877-2.699,5.877-2.699V9.495l-5.073,2.965
		c-0.362,0.212-0.81,0.225-1.185,0.037L4.636,9.738z M4.636,9.738"/>
	<path fill="#010101" d="M10.641,6.311c-0.635,0-1.266-0.132-1.606-0.406L2.933,8.016l7.239,3.624
		c0.375,0.188,0.818,0.172,1.181-0.04l8.436-4.915c0.394-0.23,0.628-0.655,0.615-1.111c-0.016-0.457-0.278-0.866-0.684-1.072
		L10.985,0.13c-0.375-0.187-0.819-0.171-1.182,0.038L1.368,5.085C0.974,5.314,0.74,5.742,0.752,6.198
		c0.016,0.453,0.278,0.866,0.685,1.069l-0.019,4.464c-0.435,0.153-0.747,0.569-0.747,1.057c0,0.362,0.169,0.684,0.435,0.89
		c-0.085,0.616-0.369,1.06-0.71,1.378c-0.274,0.253-0.418,0.615-0.394,0.987c0.022,0.372,0.213,0.716,0.516,0.932l0.156,0.112
		c0.287,0.203,0.646,0.277,0.99,0.196c0.347-0.078,0.641-0.297,0.813-0.603c0.594-1.063,0.307-2.44,0.109-3.1
		c0.203-0.203,0.331-0.484,0.331-0.793c0-0.484-0.31-0.9-0.74-1.057L2.193,7.47l6.623-2.294c0.057-0.281,0.341-0.537,0.341-0.537
		c-0.021,0.075,0.021,1,1.422,1c0.806,0,1.455-0.257,1.455-0.781c0-0.097-0.021-0.2-0.062-0.31c0.225,0.281,0.362,0.594,0.362,0.854
		C12.334,6.01,11.575,6.311,10.641,6.311L10.641,6.311z M10.641,6.311"/>
</g>
<g>
</g>
<g>
</g>
<g>
</g>
<g>
</g>
<g>
</g>
<g>
</g>
</svg>
