<?xml version="1.0" encoding="utf-8"?>
<!-- Generator: Adobe Illustrator 16.2.0, SVG Export Plug-In . SVG Version: 6.00 Build 0)  -->
<!DOCTYPE svg PUBLIC "-//W3C//DTD SVG 1.1//EN" "http://www.w3.org/Graphics/SVG/1.1/DTD/svg11.dtd">
<svg version="1.1" id="Layer_1" xmlns="http://www.w3.org/2000/svg" xmlns:xlink="http://www.w3.org/1999/xlink" x="0px" y="0px"
	 width="30.176px" height="16.808px" viewBox="0 0 30.176 16.808" enable-background="new 0 0 30.176 16.808" xml:space="preserve">
<g>
	<path fill="#010101" d="M6.243,11.873c-0.905,0-1.642,0.736-1.642,1.642s0.736,1.641,1.642,1.641s1.641-0.735,1.641-1.641
		S7.148,11.873,6.243,11.873L6.243,11.873z M6.243,14.172c-0.362,0-0.657-0.296-0.657-0.657c0-0.363,0.295-0.659,0.657-0.659
		S6.9,13.151,6.9,13.515C6.9,13.876,6.605,14.172,6.243,14.172L6.243,14.172z M6.243,14.172"/>
	<path fill="#010101" d="M23.4,11.873c-0.905,0-1.641,0.736-1.641,1.642s0.735,1.641,1.641,1.641c0.904,0,1.641-0.735,1.641-1.641
		S24.305,11.873,23.4,11.873L23.4,11.873z M23.4,14.172c-0.363,0-0.658-0.296-0.658-0.657c0-0.363,0.295-0.659,0.658-0.659
		c0.362,0,0.657,0.296,0.657,0.659C24.058,13.876,23.763,14.172,23.4,14.172L23.4,14.172z M23.4,14.172"/>
	<path fill="#010101" d="M26.822,6.191L22.436,5.69l-2.34-3.806C19.381,0.723,18.088,0,16.725,0H8.762
		c-2.289,0-4.313,1.542-4.92,3.749L3.779,3.976c-0.302,1.097-1.17,1.969-2.265,2.278C0.622,6.506,0,7.328,0,8.255v5.441
		c0,0.271,0.22,0.492,0.49,0.492h2.527c0.313,1.493,1.641,2.619,3.226,2.619s2.912-1.126,3.224-2.619h10.708
		c0.312,1.493,1.64,2.619,3.226,2.619c1.585,0,2.912-1.126,3.225-2.619h2.652c0.25,0,0.461-0.188,0.488-0.437l0.386-3.375
		C30.388,8.305,28.895,6.428,26.822,6.191L26.822,6.191z M2.964,13.204H0.982v-0.597h2.095C3.021,12.8,2.982,13,2.964,13.204
		L2.964,13.204z M6.243,15.824c-1.274,0-2.312-1.036-2.312-2.31c0-1.274,1.037-2.312,2.312-2.312c1.273,0,2.312,1.037,2.312,2.312
		C8.555,14.788,7.517,15.824,6.243,15.824L6.243,15.824z M23.4,15.824c-1.275,0-2.312-1.036-2.312-2.31
		c0-1.274,1.036-2.312,2.312-2.312c1.274,0,2.311,1.037,2.311,2.312C25.711,14.788,24.675,15.824,23.4,15.824L23.4,15.824z
		 M28.838,13.204H26.68C26.66,13,26.621,12.8,26.566,12.607h2.34L28.838,13.204z M29.174,10.266l-0.155,1.358h-2.923
		c-0.597-0.848-1.582-1.403-2.695-1.403s-2.1,0.556-2.695,1.403h-8.748c-0.271,0-0.492,0.221-0.492,0.491
		c0,0.272,0.221,0.492,0.492,0.492h8.277C20.178,12.8,20.14,13,20.121,13.204h-10.6c-0.156-1.672-1.567-2.983-3.278-2.983
		c-1.114,0-2.099,0.556-2.695,1.403H0.982V8.255c0-0.488,0.328-0.923,0.799-1.056c1.424-0.401,2.553-1.536,2.945-2.963L4.789,4.01
		c0.49-1.781,2.124-3.025,3.973-3.025h7.963c1.025,0,1.996,0.542,2.533,1.415l2.467,4.009c0.078,0.129,0.213,0.214,0.362,0.231
		l4.624,0.528c1.049,0.12,1.897,0.809,2.272,1.723h-1.535c-0.271,0-0.491,0.22-0.491,0.49c0,0.271,0.221,0.492,0.491,0.492h1.741
		C29.194,10.003,29.189,10.133,29.174,10.266L29.174,10.266z M29.174,10.266"/>
	<path fill="#010101" d="M16.75,7.423h-1.033c-0.271,0-0.49,0.22-0.49,0.492c0,0.271,0.22,0.491,0.49,0.491h1.033
		c0.272,0,0.492-0.22,0.492-0.491C17.242,7.643,17.022,7.423,16.75,7.423L16.75,7.423z M16.75,7.423"/>
	<path fill="#010101" d="M10.148,7.915c0-0.272-0.22-0.492-0.49-0.492H8.625c-0.271,0-0.492,0.22-0.492,0.492
		c0,0.271,0.221,0.491,0.492,0.491h1.033C9.929,8.406,10.148,8.187,10.148,7.915L10.148,7.915z M10.148,7.915"/>
	<path fill="#010101" d="M10.758,11.927c-0.006-0.014-0.004-0.008-0.002-0.001c-0.086-0.203-0.304-0.331-0.523-0.296
		c-0.201,0.03-0.363,0.182-0.408,0.378c-0.098,0.428,0.396,0.759,0.758,0.514c0.189-0.13,0.263-0.38,0.177-0.592
		C10.761,11.937,10.764,11.94,10.758,11.927L10.758,11.927z M10.758,11.927"/>
	<path fill="#010101" d="M18.746,2.715c-0.428-0.697-1.201-1.131-2.021-1.131H8.761c-1.579,0-2.974,1.063-3.392,2.586L5.307,4.396
		C5.145,4.982,4.896,5.99,4.885,6.034C4.85,6.18,4.883,6.336,4.976,6.454c0.093,0.119,0.235,0.188,0.386,0.188h14.922
		c0.178,0,0.342-0.096,0.43-0.252c0.086-0.155,0.082-0.346-0.011-0.497L18.746,2.715z M7.557,5.659H5.992
		c0.083-0.327,0.184-0.721,0.262-1.003l0.063-0.226c0.188-0.682,0.646-1.235,1.24-1.558V5.659z M13.066,2.567v3.092H8.539V2.577
		c0.074-0.007,0.148-0.01,0.222-0.01H13.066z M14.049,5.659V2.567h2.676c0.479,0,0.934,0.254,1.185,0.662l1.495,2.43H14.049z
		 M14.049,5.659"/>
</g>
<g>
</g>
<g>
</g>
<g>
</g>
<g>
</g>
<g>
</g>
<g>
</g>
</svg>
