<?xml version="1.0" encoding="utf-8"?>
<!-- Generator: Adobe Illustrator 16.2.0, SVG Export Plug-In . SVG Version: 6.00 Build 0)  -->
<!DOCTYPE svg PUBLIC "-//W3C//DTD SVG 1.1//EN" "http://www.w3.org/Graphics/SVG/1.1/DTD/svg11.dtd">
<svg version="1.1" id="Layer_1" xmlns="http://www.w3.org/2000/svg" xmlns:xlink="http://www.w3.org/1999/xlink" x="0px" y="0px"
	 width="24.208px" height="18.534px" viewBox="0 0 24.208 18.534" enable-background="new 0 0 24.208 18.534" xml:space="preserve">
<g>
	<rect x="4.926" y="11.348" fill="#010101" width="0.74" height="0.756"/>
	<rect x="6.816" y="11.348" fill="#010101" width="0.742" height="0.756"/>
	<rect x="8.708" y="11.348" fill="#010101" width="0.741" height="0.756"/>
	<rect x="10.6" y="11.348" fill="#010101" width="0.74" height="0.756"/>
	<rect x="12.49" y="11.348" fill="#010101" width="0.741" height="0.756"/>
	<path fill="#010101" d="M20.647,17.785l3.404-6.809h-4.389V7.951h-1.514V3.79h-5.281v4.161H11.34V1.521H6.816v6.431H3.034v5.296
		h-2.27v0.37c0,1.757,0.928,3.301,2.319,4.168H0v0.741h17.786v0.008h0.742v-0.008h5.68v-0.741H20.647z M13.61,4.531h3.799v1.906
		H13.61V4.531z M13.61,7.179h3.799v0.772H13.61V7.179z M7.559,2.262H10.6v0.394H7.559V2.262z M7.559,3.396H10.6v4.555H7.559V3.396z
		 M3.775,8.691H18.92v0.772H3.775V8.691z M3.775,10.205H18.92v0.772h-3.549l-2.648,2.27H3.775V10.205z M19.819,17.785h-1.291v-0.008
		h-0.742v0.008H5.674c-0.898,0-1.73-0.286-2.412-0.771h16.944L19.819,17.785z M2.463,16.272c-0.523-0.633-0.864-1.421-0.941-2.285
		h11.477l2.646-2.27h7.207l-2.277,4.555H2.463z M2.463,16.272"/>
	<path fill="#010101" d="M18.157,2.655h-2.277V1.892h-0.74v0.764h-0.773V0h-0.74v2.655h-0.764v0.741h5.295V2.655z M18.157,2.655"/>
</g>
<g>
</g>
<g>
</g>
<g>
</g>
<g>
</g>
<g>
</g>
<g>
</g>
</svg>
