<?xml version="1.0" encoding="utf-8"?>
<!-- Generator: Adobe Illustrator 16.2.0, SVG Export Plug-In . SVG Version: 6.00 Build 0)  -->
<!DOCTYPE svg PUBLIC "-//W3C//DTD SVG 1.1//EN" "http://www.w3.org/Graphics/SVG/1.1/DTD/svg11.dtd">
<svg version="1.1" id="Layer_1" xmlns="http://www.w3.org/2000/svg" xmlns:xlink="http://www.w3.org/1999/xlink" x="0px" y="0px"
	 width="17.464px" height="16.262px" viewBox="0 0 17.464 16.262" enable-background="new 0 0 17.464 16.262" xml:space="preserve">
<g>
	<path fill="#010101" d="M17.169,7.35l-2.646-2.647V1.645c0-0.553-0.447-1-1-1s-1,0.447-1,1v1.055L10.552,0.73
		C9.577-0.244,7.883-0.243,6.911,0.731L0.293,7.35c-0.391,0.391-0.391,1.024,0,1.415s1.026,0.391,1.416,0l6.617-6.617
		c0.216-0.214,0.596-0.214,0.81-0.001l6.618,6.618c0.197,0.195,0.452,0.293,0.708,0.293s0.513-0.098,0.707-0.293
		C17.562,8.374,17.562,7.74,17.169,7.35L17.169,7.35z M17.169,7.35"/>
	<path fill="#010101" d="M9.079,4.046c-0.192-0.191-0.504-0.191-0.694,0L2.563,9.865c-0.092,0.092-0.145,0.219-0.145,0.348v4.245
		c0,0.996,0.808,1.804,1.804,1.804h2.882v-4.463h3.254v4.463h2.881c0.996,0,1.805-0.808,1.805-1.804v-4.245
		c0-0.129-0.053-0.256-0.145-0.348L9.079,4.046z M9.079,4.046"/>
</g>
<g>
</g>
<g>
</g>
<g>
</g>
<g>
</g>
<g>
</g>
<g>
</g>
</svg>
