<?xml version="1.0" encoding="utf-8"?>
<!-- Generator: Adobe Illustrator 16.2.0, SVG Export Plug-In . SVG Version: 6.00 Build 0)  -->
<!DOCTYPE svg PUBLIC "-//W3C//DTD SVG 1.1//EN" "http://www.w3.org/Graphics/SVG/1.1/DTD/svg11.dtd">
<svg version="1.1" id="Layer_1" xmlns="http://www.w3.org/2000/svg" xmlns:xlink="http://www.w3.org/1999/xlink" x="0px" y="0px"
	 width="18.167px" height="18.167px" viewBox="0 0 18.167 18.167" enable-background="new 0 0 18.167 18.167" xml:space="preserve">
<g>
	<path fill="#010101" d="M18.167,14.65v-0.586h-1.759v-0.586h1.173v-1.758h-1.173v-0.587h1.173V9.376H6.446v1.758h1.173v0.587H6.446
		v1.758h1.173v0.586H5.861v0.586h1.758v2.93H4.103v-1.758h-0.88V7.618H2.637V2.197c0-0.889,0.723-1.611,1.611-1.611
		c0.848,0,1.543,0.658,1.605,1.489C4.865,2.221,4.103,3.073,4.103,4.102v0.294h1.171c0,0.484,0.395,0.879,0.88,0.879
		c0.484,0,0.879-0.395,0.879-0.879h1.173V4.102c0-1.032-0.77-1.889-1.765-2.028C6.375,0.919,5.419,0,4.248,0
		C3.037,0,2.051,0.985,2.051,2.197v5.421H1.465v8.204H0.586v1.758H0v0.587h18.167V17.58h-1.759v-2.93H18.167z M6.153,4.688
		c-0.161,0-0.292-0.131-0.292-0.292h0.585C6.446,4.557,6.314,4.688,6.153,4.688L6.153,4.688z M7.588,3.809h-2.87
		c0.136-0.667,0.728-1.172,1.436-1.172S7.453,3.142,7.588,3.809L7.588,3.809z M2.051,8.204h0.586v7.618H2.051V8.204z M3.516,17.58
		H1.172v-1.171h2.344V17.58z M7.032,10.548V9.963h9.962v0.585H7.032z M15.823,11.134v0.587h-0.587v-0.587H15.823z M14.65,11.134
		v0.587H9.377v-0.587H14.65z M8.79,11.134v0.587H8.205v-0.587H8.79z M14.65,17.58H9.377v-2.051h5.273V17.58z M15.236,17.58v-2.637
		H8.79v2.637H8.205v-2.93h7.618v2.93H15.236z M8.205,14.064v-0.586H8.79v0.586H8.205z M9.377,14.064v-0.586h5.273v0.586H9.377z
		 M15.823,14.064h-0.587v-0.586h0.587V14.064z M14.65,12.893H7.032v-0.586h9.962v0.586H14.65z M14.65,12.893"/>
</g>
<g>
</g>
<g>
</g>
<g>
</g>
<g>
</g>
<g>
</g>
<g>
</g>
</svg>
