<?xml version="1.0" encoding="utf-8"?>
<!-- Generator: Adobe Illustrator 16.2.0, SVG Export Plug-In . SVG Version: 6.00 Build 0)  -->
<!DOCTYPE svg PUBLIC "-//W3C//DTD SVG 1.1//EN" "http://www.w3.org/Graphics/SVG/1.1/DTD/svg11.dtd">
<svg version="1.1" id="Layer_1" xmlns="http://www.w3.org/2000/svg" xmlns:xlink="http://www.w3.org/1999/xlink" x="0px" y="0px"
	 width="18.246px" height="18.089px" viewBox="0 0 18.246 18.089" enable-background="new 0 0 18.246 18.089" xml:space="preserve">
<g>
	<path fill="#010101" d="M15.635,2.21c0,1.22-0.988,2.209-2.207,2.209c-1.221,0-2.211-0.989-2.211-2.209
		c0-1.221,0.99-2.21,2.211-2.21C14.646,0,15.635,0.989,15.635,2.21L15.635,2.21z M15.635,2.21"/>
	<path fill="#010101" d="M8.889,13.884v-0.545c0-0.439,0.213-0.867,0.566-1.14v-1.865H7.416c-0.791,0-1.422-0.622-1.422-1.409
		c0-0.128,0.057-0.236,0.057-0.353V8.066h0.238c0.262-0.378,0.668-0.567,1.127-0.567h1.869c0.02-0.095,0.076-0.125,0.076-0.2V2.237
		c0-0.422-0.391-0.789-0.813-0.789H2.248c-0.422,0-0.736,0.367-0.736,0.789v5.062c0,0.423,0.314,0.768,0.736,0.768h2.574v0.661
		H3.957c-0.381,0-0.689,0.283-0.689,0.756H0.328C0.133,9.483,0,9.595,0,9.792v0.801c0,0.194,0.131,0.312,0.328,0.312h0.994v7.185
		h8.322v-3.238C9.645,14.851,8.889,14.692,8.889,13.884L8.889,13.884z M3.359,6.932c-0.422,0-0.805-0.3-0.805-0.723V3.327
		c0-0.423,0.383-0.745,0.805-0.745h4.098c0.422,0,0.77,0.322,0.77,0.745v2.882c0,0.423-0.348,0.723-0.77,0.723H3.359z M3.359,6.932"
		/>
	<path fill="#010101" d="M14.898,4.786h-2.922c-1.793,0-1.906,1.793-1.906,1.793S9.83,7.788,9.631,7.927
		C9.572,7.969,9.5,7.999,9.416,7.999h-2c-0.477,0-0.859,0.378-0.859,0.854c0,0.473,0.383,0.851,0.859,0.851h2
		c0.309,0,0.584,0,0.621-0.008l-0.018,2.087h1.137V7.163c0-0.932,0.6-1.999,1.539-1.999h3.486
		C15.834,4.881,15.387,4.786,14.898,4.786L14.898,4.786z M14.898,4.786"/>
	<path fill="#010101" d="M17.104,14.212c0.631,0,1.143-0.512,1.143-1.143v-5.87c0-0.706-0.598-1.31-1.303-1.31h-3.961
		c-0.705,0-1.26,0.604-1.26,1.31v5.217h-1.275c-0.488,0-0.898,0.378-0.898,0.867v0.322c0,0.334,0.271,0.606,0.607,0.606h2.703v0.756
		h-0.434c0,0-1.08,0.024-1.08,1.028v1.439c0,0.325,0.244,0.592,0.57,0.592s0.58-0.267,0.58-0.595l-0.008-1.331h1.979v1.334
		c0,0.325,0.287,0.592,0.613,0.592c0.328,0,0.615-0.267,0.615-0.592v-1.439c0-1.09-1.158-1.028-1.158-1.028h-0.451v-0.756H17.104z
		 M17.104,14.212"/>
</g>
<g>
</g>
<g>
</g>
<g>
</g>
<g>
</g>
<g>
</g>
<g>
</g>
</svg>
