<?xml version="1.0" encoding="utf-8"?>
<!-- Generator: Adobe Illustrator 16.2.0, SVG Export Plug-In . SVG Version: 6.00 Build 0)  -->
<!DOCTYPE svg PUBLIC "-//W3C//DTD SVG 1.1//EN" "http://www.w3.org/Graphics/SVG/1.1/DTD/svg11.dtd">
<svg version="1.1" id="Layer_1" xmlns="http://www.w3.org/2000/svg" xmlns:xlink="http://www.w3.org/1999/xlink" x="0px" y="0px"
	 width="17.928px" height="16.942px" viewBox="0 0 17.928 16.942" enable-background="new 0 0 17.928 16.942" xml:space="preserve">
<g>
	<path fill="#010101" d="M16.17,13.083v-1.979l-3.957-1.898v7.736h1.504v-1.271l0.695-1.149l0.695,1.149v1.271h2.82v-3.859H16.17z
		 M16.17,13.083"/>
	<path fill="#010101" d="M1.756,13.083H0v3.859h2.818v-1.271l0.697-1.149l0.693,1.149v1.271h1.504v-7.74l-3.957,1.902V13.083z
		 M1.756,13.083"/>
	<path fill="#010101" d="M6.191,9.019v7.924H8.27v-2.854l0.695-1.149l0.693,1.149v2.854h2.076V9.019l-2.77-4.239L6.191,9.019z
		 M10.033,8.561v0.655H9.291v0.895H8.637V9.216H7.893V8.561h0.744V7.969h0.654v0.592H10.033z M10.033,8.561"/>
	<path fill="#010101" d="M8.965,3.459l3.27,5l4.494,2.137V9.835l-4.025-1.914L9.172,2.521V1.067h0.838V0.649H9.172V0H8.754v0.649
		H7.916v0.418h0.838v1.454L5.223,7.921L1.197,9.835v0.761l4.498-2.137L8.965,3.459z M8.965,3.459"/>
</g>
<g>
</g>
<g>
</g>
<g>
</g>
<g>
</g>
<g>
</g>
<g>
</g>
</svg>
