<?xml version="1.0" encoding="utf-8"?>
<!-- Generator: Adobe Illustrator 16.2.0, SVG Export Plug-In . SVG Version: 6.00 Build 0)  -->
<!DOCTYPE svg PUBLIC "-//W3C//DTD SVG 1.1//EN" "http://www.w3.org/Graphics/SVG/1.1/DTD/svg11.dtd">
<svg version="1.1" id="Layer_1" xmlns="http://www.w3.org/2000/svg" xmlns:xlink="http://www.w3.org/1999/xlink" x="0px" y="0px"
	 width="16.963px" height="27.07px" viewBox="0 0 16.963 27.07" enable-background="new 0 0 16.963 27.07" xml:space="preserve">
<path fill="#010101" d="M14.847,2.707C13.297,1.052,11.021,0,8.476,0C6.616,0,4.893,0.491,3.497,1.438
	c-1.885,1.384-3.375,4-3.479,6.437c-0.026,0.606-0.062,1.084,0.209,2.334c0.241,1.114,4.646,10.942,6.682,15.036
	c0.373,0.752,0.796,1.584,1.193,1.756c0.179,0.077,0.479,0.104,0.682,0.01c0.06-0.027,0.36-0.203,0.469-0.391
	c1.109-1.922,5.114-10.858,7.204-15.683c0.45-1.039,0.474-1.991,0.499-2.521C17.052,6.381,16.224,3.962,14.847,2.707z M8.418,13.438
	c-2.849,0-5.161-2.271-5.161-5.073s2.313-5.073,5.161-5.073c2.851,0,5.163,2.271,5.163,5.073S11.269,13.438,8.418,13.438z"/>
<g>
</g>
<g>
</g>
<g>
</g>
<g>
</g>
<g>
</g>
<g>
</g>
</svg>
