<?xml version="1.0" encoding="utf-8"?>
<!-- Generator: Adobe Illustrator 16.2.0, SVG Export Plug-In . SVG Version: 6.00 Build 0)  -->
<!DOCTYPE svg PUBLIC "-//W3C//DTD SVG 1.1//EN" "http://www.w3.org/Graphics/SVG/1.1/DTD/svg11.dtd">
<svg version="1.1" id="Layer_1" xmlns="http://www.w3.org/2000/svg" xmlns:xlink="http://www.w3.org/1999/xlink" x="0px" y="0px"
	 width="27.236px" height="16.965px" viewBox="0 0 27.236 16.965" enable-background="new 0 0 27.236 16.965" xml:space="preserve">
<g>
	<path fill="#010101" d="M26.2,14.895H1.035C0.463,14.895,0,15.356,0,15.929c0,0.571,0.463,1.036,1.035,1.036H26.2
		c0.571,0,1.036-0.465,1.036-1.036C27.236,15.356,26.771,14.895,26.2,14.895L26.2,14.895z M26.2,14.895"/>
	<rect x="11.101" y="7.446" fill="#010101" width="5.032" height="2.071"/>
	<rect x="1.035" y="7.446" fill="#010101" width="5.033" height="2.071"/>
	<path fill="#010101" d="M1.035,2.072H26.2c0.571,0,1.036-0.465,1.036-1.037C27.236,0.465,26.771,0,26.2,0H1.035
		C0.463,0,0,0.465,0,1.035C0,1.607,0.463,2.072,1.035,2.072L1.035,2.072z M1.035,2.072"/>
	<rect x="21.167" y="7.446" fill="#010101" width="5.033" height="2.071"/>
</g>
<g>
</g>
<g>
</g>
<g>
</g>
<g>
</g>
<g>
</g>
<g>
</g>
</svg>
