<?xml version="1.0" encoding="utf-8"?>
<!-- Generator: Adobe Illustrator 16.2.0, SVG Export Plug-In . SVG Version: 6.00 Build 0)  -->
<!DOCTYPE svg PUBLIC "-//W3C//DTD SVG 1.1//EN" "http://www.w3.org/Graphics/SVG/1.1/DTD/svg11.dtd">
<svg version="1.1" id="Layer_1" xmlns="http://www.w3.org/2000/svg" xmlns:xlink="http://www.w3.org/1999/xlink" x="0px" y="0px"
	 width="27.727px" height="16.896px" viewBox="0 0 27.727 16.896" enable-background="new 0 0 27.727 16.896" xml:space="preserve">
<g>
	<path fill="#010101" d="M25.507,12.455v4.441h2.22v-6.661H2.221V1.138c0-0.289-0.108-0.551-0.325-0.785S1.417,0,1.109,0
		C0.803,0,0.541,0.118,0.325,0.353C0.108,0.587,0,0.849,0,1.138v15.759h2.221v-4.441H25.507z M25.507,12.455"/>
	<path fill="#010101" d="M5.713,5.687c0.561,0,1.047-0.198,1.463-0.597c0.415-0.396,0.622-0.875,0.622-1.434
		c0-0.561-0.207-1.038-0.622-1.436C6.76,1.824,6.273,1.625,5.713,1.625c-0.56,0-1.037,0.199-1.435,0.596
		C3.881,2.618,3.682,3.097,3.682,3.656c0,0.559,0.199,1.037,0.597,1.434C4.676,5.488,5.153,5.687,5.713,5.687L5.713,5.687z
		 M5.713,5.687"/>
	<path fill="#010101" d="M27.727,8.557V5.849c0-0.433-0.153-0.785-0.46-1.056c-0.308-0.271-0.695-0.442-1.164-0.515L10.019,2.707
		H9.91c-0.289,0-0.532,0.101-0.73,0.299C8.98,3.204,8.881,3.448,8.881,3.736v3.142H4.766c-0.686,0-1.029,0.279-1.029,0.84
		c0,0.56,0.344,0.839,1.029,0.839H27.727z M27.727,8.557"/>
</g>
<g>
</g>
<g>
</g>
<g>
</g>
<g>
</g>
<g>
</g>
<g>
</g>
</svg>
