<?xml version="1.0" encoding="utf-8"?>
<!-- Generator: Adobe Illustrator 16.2.0, SVG Export Plug-In . SVG Version: 6.00 Build 0)  -->
<!DOCTYPE svg PUBLIC "-//W3C//DTD SVG 1.1//EN" "http://www.w3.org/Graphics/SVG/1.1/DTD/svg11.dtd">
<svg version="1.1" id="Layer_1" xmlns="http://www.w3.org/2000/svg" xmlns:xlink="http://www.w3.org/1999/xlink" x="0px" y="0px"
	 width="54.82px" height="99.96px" viewBox="0.023 0 54.82 99.96" enable-background="new 0.023 0 54.82 99.96"
	 xml:space="preserve">
<g id="Layer_x0020_1">
	<path d="M24.072,54.79c0.418,0.418,0.836,0.627,1.255,0.836l0.418,25.931c-7.737-3.346-9.62-6.065-11.501-18.194
		c-4.601-1.045-9.411-2.718-14.22-3.764C0.859,75.493,5.46,82.394,18.216,90.132c1.673,1.045,3.346,2.091,7.738,3.346l0.209,5.646
		l4.601,0.836l-0.209-5.228c3.974,1.045,6.065,1.673,12.757,0.209c13.802-3.137,12.965-25.095,8.992-32.205
		c-3.555-6.273-6.692-9.411-12.547-13.593c-2.718-2.091-6.483-4.392-10.038-6.692L29.3,20.076c0.457,0.186,0.055,0.008,0.419,0.166
		c7.11,2.928,9.201,8.408,8.783,14.682l14.011,3.137c0-6.483-1.882-19.867-15.475-27.604c-2.51-1.673-5.229-2.719-7.947-3.346V1.045
		L24.49,0v6.064c-1.464-0.209-2.928-0.418-4.392-0.627C3.368,2.928-11.061,27.813,13.615,47.889
		C16.334,50.189,19.889,52.908,24.072,54.79z M29.927,58.763c4.391,3.137,8.365,6.692,9.201,8.783
		c1.046,2.509,1.255,5.228,1.255,7.319c-0.209,3.137-1.882,6.482-5.437,7.738c-0.837,0.209-2.301,0.418-4.601,0.209L29.927,58.763z
		 M25.117,39.942c-0.836-0.418-1.464-0.837-2.091-1.255c-5.229-2.3-8.156-7.737-8.156-13.384c0-6.483,5.019-7.528,9.829-6.692
		L25.117,39.942z"/>
</g>
</svg>
