<?xml version="1.0" encoding="utf-8"?>
<!-- Generator: Adobe Illustrator 16.2.0, SVG Export Plug-In . SVG Version: 6.00 Build 0)  -->
<!DOCTYPE svg PUBLIC "-//W3C//DTD SVG 1.1//EN" "http://www.w3.org/Graphics/SVG/1.1/DTD/svg11.dtd">
<svg version="1.1" id="Layer_1" xmlns="http://www.w3.org/2000/svg" xmlns:xlink="http://www.w3.org/1999/xlink" x="0px" y="0px"
	 width="271.074px" height="125.486px" viewBox="0 0 271.074 125.486" enable-background="new 0 0 271.074 125.486"
	 xml:space="preserve">
<path fill="#EE2C24" d="M73.239,11.364c0,0,0.443,0.517,0.965,0.517c0.517,0,0.962,0.892,0.962,0.892s0.964,0.667,1.483,0.443
	c0.521-0.218,0.965-0.52,1.406-0.443c0.45,0.075,2.299-0.147,2.893,0.147c0.595,0.296,1.929,0.963,2.225,1.407
	c0.298,0.448,0.966,0.67,1.115,1.038c0.146,0.375,0.071,1.265,0.593,1.559c0.517,0.299,0.445,1.037,0.445,1.484
	c0,0.443-1.038,1.183-0.445,1.556c0.59,0.37,0.963,0.667,1.111,0c0.148-0.666,0.519-1.112,1.04-0.666
	c0.515,0.444,0.39,1.262,0.971,1.408c0.582,0.149,0.457,0.593,0,0.666c-0.456,0.076-1.862,0.076-2.159,0
	c-0.298-0.073-0.518,0.74-0.076,0.963c0.444,0.225,1.558,0,1.558,0s0.097-0.887,0.678-0.589c0,0,0.78-0.052,0.832,0.444
	c0.047,0.493-0.346,0.693-0.494,1.038c-0.148,0.346-0.646,0.641-1.186,0.839c-0.546,0.201-0.596,0.545-0.645,0.991
	c-0.05,0.444,0.593,0.887,0.343,1.382c-0.244,0.495-0.097,1.085,0.302,1.337c0.392,0.244,0.491,0.689,0.491,1.038
	c0,0.344,0.147,0.837,0.395,0.642c0.249-0.199,0.249-0.94,0.597-0.791c0.346,0.149,0.641,0.493,0.393,0.643
	c-0.247,0.148-0.989,0.492-0.791,0.737c0.199,0.25,0.643,0.298,0.791,0.795c0.148,0.49,0.148,0.79,0.547,0.985
	c0.392,0.2,0.587,0.247,0.639,0.597c0.049,0.347,0.102,0.537,0.495,0.59c0.396,0.052,0.79,0,1.138,0.052
	c0.345,0.048,0.447,0.097,0.742,0.493c0.298,0.395,0.593,0.693,0.985,0.445c0.398-0.248,0.844-0.051,0.942-0.693
	s0.74-1.139,0.49-1.484c-0.244-0.344-0.293-0.937,0.1-1.086c0.398-0.149,0.99-0.396,0.99-0.694c0-0.293,0.196-0.688-0.147-0.887
	c-0.347-0.199,0.541-0.299,0.049-0.843c0,0,0.646-0.046,0.841-0.343c0.196-0.297,0.492-0.598,0.937-0.546
	c0,0,0.496-0.392,0.595-0.839c0.097-0.443,0.347-0.1,0.347,0.396c0,0.496,0.84,0.542,1.086,0c0.247-0.543,0.499-0.048,0.841-0.443
	c0.345-0.396,0.446-0.545,0.791-0.84c0.349-0.298,0-0.642,0.694-0.991c0.692-0.345-0.051-0.493,0.047-0.891
	c0.099-0.394,0.396,0.695,0.991,0.643c0.592-0.048,1.825-0.592,2.668-0.592c0.839,0,1.137-0.199,1.83-0.693
	c0.688-0.492,2.124-0.689,2.124-1.28c0,0-0.642,0.046-1.239-0.35c-0.593-0.396-0.642,0.396-1.53,0.293
	c-0.891-0.093-0.743-0.245-0.197-0.539c0.542-0.296,1.086-0.593,0.79-0.841c-0.298-0.249,0.345-0.492,0.842-0.145
	c0.494,0.344,0.838,1.23,1.681,0.935c0.841-0.297,0.146-0.842-0.101-1.285c-0.245-0.443-0.198-0.79-0.791-0.94
	c-0.592-0.148-1.134-0.589-1.286-0.589c-0.148,0-0.738-0.499-0.345-0.693c0.396-0.197,0.643-0.248,0.842,0.148
	c0.197,0.396,0.345,0.642,0.838,0.788c0.497,0.148,0.794,0.742,1.086,0.547c0.301-0.201-0.441-0.495,0-0.79
	c0.446-0.303,0.1-0.499-0.542-0.598c-0.64-0.096-0.688-0.589-1.286-0.789c-0.593-0.198,0.052-0.495,0.545-0.299
	c0.496,0.201,0.694,0.794,1.187,0.599c0.493-0.198,0.694-0.546,0.988-0.445c0.297,0.097,0.247-0.497-0.445-0.544
	c-0.689-0.051-0.591-0.545-0.294-0.545c0.294,0,0.691,0.348,0.986,0.147c0.297-0.196,0.249-0.296,0.594-0.147
	c0.35,0.147,0.643-0.446,0.049-0.495c-0.593-0.046-0.986-0.197-0.986-0.491c0-0.297,0.049-0.693-0.296-0.693
	c-0.347,0,0.345-0.547,0.889,0.296c0.546,0.842,0.694-0.049,0.546-0.345c-0.152-0.301-0.301-0.79-0.745-0.79
	c-0.442,0,0.791-0.498,0.345-0.545c-0.441-0.052-1.034,0.396-1.434-0.052c-0.392-0.444-0.196-0.79,0.25-0.738
	c0.445,0.049,0.542-0.348,0.99-0.247c0.441,0.1,1.331,0.541,1.479,0.247c0.148-0.297,0.297-0.742-0.148-0.742
	c-0.441,0-1.187-0.05-1.482-0.196c0,0,0.099-0.545-0.149-0.545c0,0,0.646,0.25,1.043,0.196c0,0-0.053-0.445-0.646-0.541
	c-0.594-0.101-0.836,0.44-1.234,0.197c-0.396-0.25,0.594-1.039,0.545-1.485c-0.052-0.442,0.594,0.051,0.738-0.345
	c0.148-0.392,0.148-1.433,0.693-1.433s1.139-0.1,1.286-0.593c0.149-0.493,0.394-0.246,0.739-0.596
	c0.349-0.344,0.396-0.789,1.037-0.837c0.645-0.048,0.497-0.297,0.944-0.547c0.438-0.248,1.529-0.545,1.085-0.692
	c-0.443-0.145-1.434-0.441-2.225-0.393c-0.789,0.047-1.531,0.443-2.322,0.494c-0.789,0.046-1.731,0.343-1.731,0.343
	s0.349-0.637-0.1-0.394c-0.445,0.249-1.135,1.04-1.581,1.337c-0.445,0.296-0.989,0.097-0.989,0.097s0.497-0.442,0.741-0.692
	c0.248-0.246,0.938-0.792,0.743-1.036c-0.197-0.245-0.197-0.69-1.137-0.497c-0.941,0.198-0.89,0.396-1.337,0.549
	c-0.443,0.145-1.48,0.541-1.926,0.439c-0.446-0.101,1.186-0.295,1.435-0.737c0.248-0.445-1.239-0.151-2.227-0.151
	c-0.986,0-3.113,0.199-3.113,0.199s1.138-0.645,1.93-0.645c0.788,0,3.163,0.15,3.658,0c0.49-0.146,1.927-0.345,1.927-0.345
	l1.037-0.445c0,0-0.642-0.297-1.583-0.297c-0.939,0-1.828-0.048-2.025,0.053c-0.195,0.097,0.542-0.351,0.592-0.546
	c0.053-0.194-0.592-0.194-0.592-0.194s0.048-0.499-0.546-0.547c-0.591-0.049-2.124,0-2.569-0.247c-0.443-0.248-1.482-0.1-1.924-0.1
	c-0.446,0-1.481-0.098-1.583,0.048c-0.102,0.149-0.595-0.048-1.284,0.051c-0.694,0.099-1.239,0.099-1.585,0.198
	c-0.344,0.097-0.344,0.444,0,0.642c0.346,0.199-0.687,0.541-1.134,0.249c-0.444-0.3-1.288-0.249-1.732-0.396
	c-0.443-0.15-1.529-0.051-2.224,0.146c-0.689,0.199-1.335,0.249-0.89,0.396c0.448,0.146,1.138,0.493,1.138,0.493l0.544,0.644
	c0,0-0.544,0.101-0.693,0.25c-0.148,0.146,0.296,0.739-0.296,0.49c-0.594-0.248-1.63-0.741-2.025-0.789
	c-0.397-0.048-1.186-0.346-1.484-0.346c-0.297,0-0.694,0.146-0.694,0.146l0.499,0.545c0,0,0.591,0.642,0.048,0.444
	c-0.547-0.198-1.535-0.889-1.928-0.836c-0.396,0.048-0.741,0.048-1.383-0.152c-0.644-0.197-0.89,0.35-2.126,0.499
	c-1.238,0.146-1.088,0.441-1.088,0.441s-1.09-0.149-1.534,0.199c-0.443,0.345,0.746,1.185-0.347,1.135
	c-1.087-0.05-1.381,0-1.826,0.349c-0.445,0.346-2.67,1.335-1.829,1.529c0.843,0.197,2.073-0.099,2.073-0.099
	s-0.197,0.593-0.492,0.941c-0.295,0.345-0.594,0.938-1.187,0.886c-0.593-0.044-1.479,0-1.827,0.302
	c-0.348,0.292-2.62,0.295-2.768,0.938c-0.148,0.641,0.396,0.593,0.989,0.741c0.593,0.147,1.528,0.44,1.729,0.493
	c0.196,0.048,0.691-0.052,1.335-0.148c0.641-0.101,1.334,0.25,0.69,0.545c-0.642,0.297-1.434,0.293-1.926,0.196
	C74.449,11.115,72.868,10.918,73.239,11.364z"/>
<g>
	<path fill="#EE2C24" d="M0.878,23.3c0,0,0.668-0.594,1.411-0.518c0.741,0.072,1.481-0.52,1.85-1.038
		c0.375-0.521,1.337-1.187,1.932-1.187c0.593,0,2-0.596,2.594-0.742c0.592-0.149,1.188,0.146,1.188,0.146s-1.188,0.521-0.892,0.596
		c0.296,0.07,1.929-0.301,2.153-0.301c0.22,0,1.183,0.744,2,0.597c0.814-0.149,2.072,0,2.3,0c0.22,0,0.739,0.814,1.63,0.737
		c0.891-0.073,2.078-0.073,2.444,0c0.373,0.077,0.667,0.742,1.335,0.67c0.67-0.072,1.04,0.89,2.152,0.89
		c1.109,0,1.779,0.148,1.779,0.148s0.071-0.966,0.592-0.966c0.519,0,1.111-0.223,1.331-0.292c0.225-0.078,1.561-0.671,2.005-0.671
		c0.445,0,0.346,0.422-0.101,0.466c-0.443,0.057-0.788,0.353-1.134,0.497c-0.349,0.15-0.691-0.048-0.842,0.249
		c-0.148,0.3-0.249,0.545-0.249,0.545s0.989-0.396,1.239-0.493c0.245-0.1,0.985-0.499,1.137-0.592
		c0.147-0.103,0.787-0.25,0.787-0.25l-0.145,0.343l0.644-0.491l0.195-0.396l-0.098-0.345c0,0,0.643,0.195,0.739,0.345
		c0.101,0.151,0.052,0.497,0.198,0.646c0.149,0.148,0.1,0.44,0.447,0.54c0.343,0.102,0.69-0.146,0.789-0.54
		c0.1-0.398,0.443-0.694,0.643-0.596c0.198,0.101,0.048,0.495,0,0.691c-0.051,0.199-0.197,0.248,0.198,0.495
		c0.393,0.248,0.742-0.349,0.742-0.349s0-0.443,0.346-0.343c0.345,0.101,1.681,0.343,1.681,0.493c0,0.146,0.693,0.396,0.938,0.446
		c0.247,0.05,1.138,0.097,1.138,0.097s0.445,0.299,0.64,0.299c0.198,0,0.892-0.346,1.236-0.1c0.347,0.248,0.494,0.344,0.69,0.593
		c0.199,0.247,0.104,0.545,0.104,0.545s-1.239,0.197-0.891,0.347c0.344,0.146,1.283,0.099,1.677,0.146
		c0.395,0.049,1.534-0.146,1.679-0.199c0.15-0.048,0.795-0.097,0.941,0c0.147,0.1,0.147,0.299,0.596,0.495
		c0.444,0.197,0.788,0.547,0.591,0.69c-0.194,0.151,0.197,0.396,0.395,0.396c0.199,0,0.152-1.137,0.152-1.137
		s-0.547-0.445-0.25-0.59c0.297-0.148,0.791-0.297,0.791-0.297s0.048-0.742,0.195-0.791c0.149-0.053,0.693,0.196,0.843,0.293
		c0.147,0.101,0.541,0.545,0.842,0.592c0.294,0.054,3.407,0.646,3.656,0.646c0.246,0,0.495,0.05,0.69-0.299
		c0.197-0.348-0.195-0.689,0.148-0.737c0.35-0.053-0.544-0.742-0.544-0.742s0.495-0.596,0.644-0.791
		c0.148-0.199,0.594-0.146,0.839,0.048c0.248,0.195,1.137,0.742,1.137,1.038c0,0.297-0.639,0.592-0.592,0.79
		c0.053,0.201-0.297,0.346,0.1,0.642c0.395,0.297,0.395-0.346,0.641-0.493c0.25-0.147,0.742-0.196,0.892-0.249
		c0.148-0.048,0.642-0.393,0.245-0.791c-0.395-0.392-0.048-0.689-0.887-0.984c-0.84-0.296-1.437-0.742-1.239-0.941
		c0.202-0.197,0.349-0.935,0.302-1.087c-0.053-0.149,0.15-0.593,0.493-0.642c0.344-0.049,0.589-0.595,0.589-0.595
		s0.497,0.149,0.742,0.493c0.247,0.351,1.186,0.446,1.186,0.84c0,0.398-0.295,0.447,0.053,1.04c0.346,0.596-0.249,0.446,0,0.939
		c0.245,0.495,0.346,0.346,0.694,0.346c0.344,0,0.293,0.1,0.44,0.591c0.146,0.495,0.249,0.297,0.249,0.791
		c0,0.495,0.396-1.232,0.989-1.082c0.592,0.146,0.742,0.245,0.938,0.738c0.198,0.491-0.495,0.102-0.445,0.646
		c0.046,0.542-0.199,0.936,0.297,1.035c0.493,0.099,1.188-0.298,1.188-0.743c0-0.446,0.293-0.837,0.689-1.038
		c0.396-0.197,0.396-0.347,0.297-0.838c-0.1-0.493,0.047-0.938,0.545-0.89c0.49,0.044,0.54,0.444,1.135,0.541
		c0.594,0.1,0.891,0.15,1.087,0.646c0.2,0.492-0.445,0.641-0.59,0.984c-0.151,0.35,0.145,0.495,0.394,0.646
		c0.246,0.147,0.246,0.294,0.246,0.738c0,0.448-0.443,0.494-0.89,0.843c-0.444,0.348-0.786,0.248-1.039,0.195
		c-0.246-0.047-0.938,0-0.938,0s-0.344-0.346-0.691-0.047c-0.347,0.295-0.743,0.344-0.542,0.542c0.195,0.198,0,0.543-0.251,0.742
		c-0.244,0.199,0.497,0.199-0.194,0.939c-0.696,0.742-0.545,0.644-0.989,0.838c-0.447,0.197-0.742-0.346-1.087,0.052
		c-0.346,0.393-0.051,0.195-0.346,0.393c-0.296,0.196,0.393,1.188-0.348,1.188c-0.742,0-1.285-0.199-1.384,0.346
		c-0.096,0.543-0.048,0.592-0.493,0.789c-0.445,0.199-0.102,0.548-0.595,1.238c-0.492,0.69-0.642,1.826,0,2.027
		c0.642,0.197,0.791-0.201,0.891,0.294c0.102,0.493-0.053,1.732,0.445,1.732c0.494,0,0.594-0.399,1.087-0.298
		c0.49,0.1,1.829,0.69,2.175,0.79c0.347,0.1,0.15,0.542,0.74,0.594c0.595,0.048,1.238,0.296,1.335,0.69
		c0.1,0.397,0.494,0.199,0.842,0.247c0.343,0.049,1.283-0.492,1.579,0.049c0.297,0.545-0.197,0.79,0,1.335
		c0.197,0.544-0.048,1.086,0.249,1.337c0.296,0.247,0.443,0.295,0.594,0.495c0.149,0.197,0.694,0.394,0.694,0.788
		c0,0.397,0.293-0.64,0.788-0.344c0.493,0.294,0.442-0.296,0.591-0.74c0.152-0.451-0.442-0.843-0.343-1.486
		c0.098-0.644-0.545-0.887,0.045-1.136c0.598-0.249,1.584-0.742,1.536-1.532c-0.048-0.789-1.138-2.325-1.387-2.421
		c-0.244-0.1-0.442-0.889,0.201-0.889c0.64,0,0.937-0.397,0.787-0.691c-0.147-0.299-0.54-1.038-0.343-1.481
		c0.195-0.447-0.742-1.139,0.245-1.387c0.989-0.247,2.127,0.299,2.272,0.248c0.147-0.048,0.397-0.394,0.891-0.148
		c0.497,0.248,0.94,0.742,1.285,0.84c0.346,0.101-0.593,0.397,0.293,0.543c0.896,0.146,1.043-0.05,1.288,0.247
		c0.247,0.297-0.197,0.297-0.098,0.938c0.098,0.641,0.392,0.692,0.294,1.135c-0.098,0.448,0.301-0.095,0.694,0.396
		c0.396,0.497,0.741,0.591,0.842,0.447c0.098-0.149,0.295-0.792,0.641-0.592c0.349,0.197,0.842-0.101,0.741-0.596
		c-0.1-0.495-0.1-0.89,0.298-0.938c0.396-0.048,0.839,0.348,0.938,0.544c0.097,0.195,0.147,0.839,0.396,0.989
		c0.245,0.145,0.445,1.236,0.891,1.479c0.446,0.249,0.494,0.694,0.394,0.891c-0.101,0.199-0.839,0.248-0.496,0.444
		c0.347,0.197,0.943,0.297,1.093,0.346c0.146,0.048,0.838,0.299,0.936,0.497c0.1,0.195,1.037,0.939,1.286,0.84
		c0.245-0.098,0.445,0.295,0.445,0.443c0,0.149-0.2,0.493,0.146,0.594c0.346,0.097,0.495-0.344,0.694,0
		c0.196,0.349,0.196,0.546,0.247,0.79c0.05,0.25-0.051,1.091-0.643,1.484c-0.594,0.396-1.089-0.05-1.483,0.295
		c-0.394,0.348-0.394,0.79-0.991,0.839c-0.589,0.052-1.578,0.102-1.778,0.102c-0.199,0-0.888-0.298-1.534-0.102
		c-0.641,0.201-1.976,0.146-2.271,0.792c-0.298,0.644-0.84-0.295-1.582,1.137c-0.741,1.434-1.087,1.238-1.087,1.238
		s1.087-0.992,1.733-1.287c0.638-0.298,1.775-1.038,2.27-0.843c0.494,0.199,1.091,0.249,1.091,0.544c0,0.298-0.45,0.643-0.742,0.742
		c-0.297,0.101,0.049,0.196,0.146,0.396c0.098,0.197-0.246,0.592-0.049,0.791c0.195,0.197,0.396,0.393,0.646,0.444
		c0.245,0.048,0.245-0.392,0.738-0.296c0.494,0.101,0.69,0.049,0.84,0.197c0.149,0.146-0.593,0.349-1.085,0.495
		c-0.493,0.146,1.038,0.05,1.038,0.05s0.54-0.097,0.54-0.349c0-0.247-0.146-0.592,0.301-0.741c0.443-0.146,0.494,0.149,0.541,0.447
		c0.049,0.294,0.198,0.395,0.347,0.395c0.152,0-0.101,0.589-0.298,0.64c-0.197,0.052-0.295-0.392-0.742-0.097
		c-0.444,0.298-0.642,0.742-1.384,0.788c-0.74,0.051-0.885,0.2-1.335,0.595c-0.441,0.396-0.836,0.643-0.985,0.495
		c-0.148-0.148-0.248-0.891,0.049-1.09c0.298-0.195,0.742-0.539,0.742-0.539l-0.989-0.153c0,0-0.495,0.102-0.593,0.25
		c-0.098,0.146-0.149,0.643-0.344,0.74c-0.2,0.099-0.942,0.199-1.29,0.297c-0.345,0.101-1.432,1.533-0.985,1.88
		c0.442,0.344,0.146,0.493-0.741,0.543c-0.892,0.048-1.137,0.195-1.581,0.694c-0.447,0.491-0.147,0.393-0.545,0.836
		c-0.392,0.447-0.15,0.841-0.392,0.941c-0.252,0.099-0.149,0.444-0.447,0.889c-0.297,0.444-0.94,0.444-0.594,0.889
		c0.346,0.444,0.494,0.89,0.197,0.989c-0.297,0.101-0.741,0.197-0.689,0.638c0.048,0.45-0.992,0.499-1.239,0.794
		c-0.249,0.295-1.133,1.238-1.729,1.389c-0.593,0.145-0.791,0.643-0.644,1.281c0.148,0.643,0.051,0.493,0.349,1.037
		c0.295,0.542,0.392,1.088,0.444,1.484c0.048,0.393,0.298,0.545,0.346,0.889c0.052,0.347-0.201,0.84-0.398,0.988
		c-0.196,0.148-0.54-0.148-0.938-0.789c-0.396-0.646-0.741-0.94-0.842-1.438c-0.097-0.49-0.243-1.136-0.494-1.479
		c-0.245-0.348-0.592-0.396-0.837-0.148c-0.248,0.245-1.039-0.697-1.732-0.545c-0.689,0.146-0.888,0.046-1.384,0.298
		c-0.493,0.247-1.085,1.281-1.826,0.937c-0.744-0.346-0.791-0.741-1.188-0.645c-0.397,0.104-0.693-0.192-1.236,0.253
		c-0.544,0.439-0.344,0.839-1.184,0.735c-0.839-0.101-0.892,0.693-0.892,1.09c0,0.397,0.347,0.645-0.148,1.186
		c-0.494,0.545,0.148,0.299-0.197,0.942c-0.348,0.64-0.099,1.237,0.1,1.929c0.197,0.688-0.05,0.885,0.442,1.432
		c0.498,0.541,0.443,1.33,1.039,1.53c0.593,0.197,0.94,0.101,1.383,0.101s0.746-0.595,1.186-0.05
		c0.445,0.54,0.546-0.151,0.843-0.495c0.297-0.346,0.445-0.396,0.396-1.086c-0.052-0.695,0.094-0.744,0.493-0.744
		c0.394,0,0.742,0.102,1.137-0.147c0.396-0.247,0.792-0.146,0.986,0.299c0.197,0.443,0,0.493-0.296,1.036
		c-0.295,0.547,0.102,1.483-0.542,1.581s-0.148,0.795-0.447,1.188c-0.294,0.395,0.149,0.89,0.395,0.788
		c0.251-0.097,0.497-0.344,0.99-0.293c0.496,0.045,1.138-0.197,1.683,0.148c0.542,0.346,0.838-0.054,1.039,0.393
		c0.195,0.445-0.1,0.99-0.202,1.387c-0.095,0.396-0.54,1.333-0.147,1.828c0.398,0.491,0.594,1.09,0.891,1.285
		c0.296,0.195,0.841,0.394,1.139,0.344c0.295-0.048,1.136-0.642,1.58-0.494c0.444,0.15,1.036,0.693,1.138,0.894
		c0.098,0.198-0.89,0.045-0.89,0.045s-0.396-0.592-0.643-0.295c-0.248,0.295-1.141,0.448-0.841,0.646
		c0.297,0.195,0.692,0.44,0.147,0.588c-0.54,0.148-0.593,0-0.79-0.49c-0.198-0.492-0.889-0.644-1.232-0.644
		c-0.352,0-0.795-0.692-0.992-0.842c-0.196-0.146-0.642-0.641-0.741-0.244c-0.097,0.394-0.545-0.497-0.545-0.645
		c0-0.146,0.198-0.347,0.148-0.691c-0.048-0.344-0.293-0.841-0.44-0.938c-0.149-0.101-0.498-0.248-1.088-0.248
		c-0.598,0-1.488-0.05-1.634-0.198c-0.149-0.151-2.276-1.086-2.473-1.482c-0.197-0.396-1.532-0.49-1.828-0.195
		s-2.323-0.593-2.517-0.742c-0.199-0.148-1.339-0.791-2.029-1.041c-0.692-0.246-1.533-0.838-1.881-0.888
		c-0.344-0.049-0.542-1.086-0.593-1.68c-0.049-0.594-0.246-1.388-0.738-1.682c-0.497-0.295-1.188-1.189-1.386-1.529
		c-0.198-0.351-0.839-0.742-1.039-0.742c-0.197,0,0-1.139-0.64-1.188c-0.644-0.05-0.595-0.35-0.792-0.792
		c-0.197-0.446-0.692-0.396-0.843-0.989c-0.146-0.594-0.493-1.185-1.034-1.38c-0.544-0.203-0.891-0.151-0.891-0.151
		s0.197,0.938,0.297,1.089c0.097,0.146,0.643,0.642,0.937,0.985c0.299,0.349,0.545,0.989,0.691,1.386
		c0.15,0.397,0.545,0.245,0.744,0.69c0.198,0.445-0.099,0.99,0.396,1.236c0.495,0.247,0.445,0.739,0.593,0.84
		c0.149,0.098,0.393,0.148,0.393,0.641c0,0.496-0.985,0-1.282-0.391c-0.298-0.396-0.444-1.038-0.938-1.383
		c-0.497-0.349-0.052-1.039-0.645-1.236c-0.595-0.201-1.529-0.895-1.087-1.037c0.448-0.152,0.691-0.348,0-1.042
		c-0.691-0.689-1.583-1.627-1.73-2.174c-0.148-0.542-0.1-1.483-0.84-1.584c-0.742-0.095-1.926-1.085-2.274-1.578
		c-0.346-0.494-0.693-1.289-1.135-2.025c-0.446-0.741-0.941-1.335-0.941-1.78s-0.245-0.939-0.345-1.583
		c-0.097-0.643-0.395-0.988-0.25-1.383c0.153-0.396,0.498-0.195,0.448-0.939c-0.051-0.74,0-2.272-0.099-2.668
		c-0.1-0.395-0.052-0.395-0.35-0.939c-0.293-0.541,0.053-0.938,0.298-0.642c0.247,0.298,0-0.099,0.444,0.447
		c0.448,0.54,0.396,0.791,0.695,0.642c0.294-0.15-0.098-0.938-0.098-1.088c0-0.148-0.398-0.694-0.545-0.84
		c-0.148-0.149-2.719-1.433-2.719-1.433s-0.889,0.149-0.844-0.297c0.053-0.444,0.299-0.545,0.053-0.937
		c-0.249-0.396-0.545-0.694-0.742-0.843c-0.198-0.149-0.493-0.297-0.645-0.694c-0.146-0.393-0.146-0.987-0.393-1.335
		c-0.25-0.344-0.444-0.393-0.843-0.493c-0.396-0.097-0.396-0.097-0.691-0.048c-0.298,0.048-0.887-0.049-0.838-0.545
		c0.048-0.494,0-0.74,0-0.74l-0.642-0.346l-0.594,0.346c0,0-0.396-1.486-0.298-1.729c0.101-0.249,0.15-0.445-0.098-0.543
		c-0.25-0.101-0.495-0.348-0.793-0.251c-0.298,0.101-0.688,0-1.086-0.395c-0.396-0.394-2.57-0.69-2.966-0.74
		c-0.393-0.048-1.089-0.346-1.681-0.593c-0.595-0.246-2.522-0.839-2.671-0.545c-0.146,0.299-0.442-0.193-0.541,0.496
		c-0.099,0.69-0.496,0.743-0.793,0.743c-0.297,0-0.642,0-0.79,0c-0.15,0-0.446-0.149-0.493,0.245
		c-0.047,0.394-0.249,0.788-0.249,0.788s-0.343-1.828-0.146-1.828c0.199,0,0.442-0.197,0.543-0.396
		c0.101-0.194,0.101-0.692-0.049-0.792c-0.146-0.099-1.089,0.448-1.187,0.644c-0.1,0.196-0.494,0.644-0.447,1.235
		c0.052,0.591-0.047,0.989-0.346,1.088c-0.296,0.098-0.246,0.347-0.79,0.789c-0.542,0.449-0.542,0.499-0.792,0.598
		c-0.245,0.097-0.639,0.245-0.937,0.342c-0.297,0.099-0.149,0.352-0.199,0.549c-0.05,0.195-0.393,0.394-0.393,0.394
		s-0.345,0.096-0.689,0.2c-0.346,0.098-1.285,0.542-1.285,0.542s-1.037,0.89-1.482,0.74c-0.444-0.146-0.645,0.051-1.038,0.348
		c-0.393,0.297-0.35-0.595-0.102-0.691c0.25-0.101,1.188-0.396,1.483-0.646c0.298-0.245,1.139-0.492,1.288-0.738
		c0.148-0.249,0.395-0.297,0.741-0.544c0.345-0.248,0.69-0.444,0.84-0.939c0.148-0.497,0.345-1.388-0.149-0.987
		c-0.495,0.395-0.69,0.442-1.037,0.293C5.6,35.233,5.5,35.089,5.108,35.089c-0.396,0-0.493,0.293-0.594-0.25
		c-0.098-0.542-0.743-0.938-0.396-1.483c0.342-0.543-0.297,0.991-0.938,0.794c-0.646-0.2-0.646-0.843-1.14-0.843
		s0.45-0.69,0.053-0.74c-0.397-0.05-0.938-0.987-0.546-1.188c0.398-0.196,1.037-0.84,0.943-1.088c-0.102-0.25,0-0.05,0.492,0.048
		c0.494,0.102,0.938-0.145,1.136-0.442c0.195-0.299,0.841,0,1.087-0.249c0.247-0.248-0.445-0.843-0.395-0.989
		c0.048-0.147-0.248-0.545-1.087,0c-0.841,0.547-0.247-0.195-0.741-0.243c-0.492-0.051-1.09,0.243-1.287,0.243
		c-0.195,0-0.889-0.393-0.689-0.791c0.197-0.393-0.247-0.642-0.793-0.642c-0.542,0,0.053-0.396,0.692-0.643
		c0.642-0.247,1.188-0.2,1.285-0.492c0.1-0.297,0.74-0.449,0.889-0.251c0.153,0.198-0.196,0.596,0.049,0.792
		c0.249,0.197,0.693-0.049,0.891,0.049c0.199,0.101,0.148,0.396,0.441,0.347c0.304-0.048,0.304-0.396,0.696-0.645
		c0.396-0.243,1.335-0.194,0.938-0.492c-0.393-0.296-1.579,0.2-1.677-0.148c-0.104-0.344,0.146-0.791-0.693-0.642
		c-0.841,0.15-1.335-0.592-1.928-0.789C1.202,24.112,0.456,23.424,0.878,23.3z"/>
	<path fill="#EE2C24" d="M75.611,1.65c0,0,1.111-0.297,1.704-0.297c0.594,0,1.852,0.52,2.075,0.52c0.225,0,0.892,0.149,1.261,0.222
		c0.373,0.075-0.668,1.263-1.406,1.188c-0.739-0.074-3.115,0.444-3.559,0.595c-0.443,0.146,0.816,0.223,1.336,0.069
		c0.516-0.147,1.555-0.22,1.555-0.22S76.798,4.99,75.98,5.061c-0.814,0.074-2.073,0.964-2.446,1.26
		c-0.373,0.295-0.741,0.891-1.406,0.817c-0.666-0.075-1.038,0-1.56,0.147c-0.519,0.147,0,0.516-0.813,0.443
		c-0.815-0.074-0.965,0.445-0.519,0.52c0.441,0.071,1.259-0.145,1.406,0.223c0.15,0.369-0.294,0.815-0.517,1.039
		c0,0-1.112,0.887-1.854,0.665c-0.742-0.22,0.148,1.188-0.665,1.04c-0.816-0.148-0.595,0.519-0.3,0.665
		c0.3,0.15,1.633-0.592,1.113,0c-0.521,0.596-1.113,1.039-1.63,0.892c-0.521-0.147-0.741,0-1.114,0
		c-0.369,0-0.369-0.444-1.258-0.521c-0.893-0.068-1.186,0.3-1.78,0.3c-0.594,0-1.778-0.444-2.298-0.368
		c-0.521,0.068,0,0.589-0.521,0.068c-0.515-0.518,0.149-1.185,0.521-1.185c0.37,0,0.961,0.743,0.813,0
		c-0.147-0.74-0.964-0.966-0.593-1.188c0.373-0.22,1.112-0.295,1.411,0.149c0.295,0.444-0.371,0.297,0.295,0.444
		c0.667,0.148,0.815-0.519,0.887-0.742c0.079-0.221-0.887-0.221-0.887-0.221s-0.594,0.148-0.893,0
		c-0.293-0.15-0.737-0.594-0.737-0.594s-0.669-0.226-0.891,0.146c-0.222,0.371-0.297,0.742-0.594,0.669
		c-0.296-0.072-0.37-0.221-0.889-0.371C57.74,9.214,57.15,9.062,56.629,8.84c-0.52-0.223-0.666-0.889-0.369-0.889
		c0.296,0,1.109-0.222,1.335-0.296c0.222-0.073-1.78-0.369-2.005-0.293c-0.222,0.072-0.595,0.146-0.815-0.076
		c-0.222-0.224-0.296-0.373-0.296-0.595c0-0.223-0.369-0.74-0.369-0.74s0.591-0.298,0.813-0.373
		c0.223-0.074,0.594-0.443,0.594-0.443l-0.074-0.52c0,0-0.222-0.518,0.521-0.518c0.743,0,0.813,0.072,1.187,0.221
		c0.368,0.149,0,0.45,0.59,0.816c0.597,0.369,0.745,0.592,1.339,0.668c0.593,0.07,1.704-0.15,1.704-0.15s0.148-0.742-0.668-0.742
		c-0.813,0-1.335-0.071-1.111-0.371c0.224-0.298,0.443-0.518,0.146-0.595c-0.296-0.069-1.482-0.441-1.482-0.441
		s1.411-0.668,1.779-0.593c0.369,0.074,1.261-0.146,1.557-0.295C61.3,2.466,61.6,2.093,62.266,2.02
		c0.667-0.076,0.815,0.072,1.406,0.226c0.597,0.146,0.745-0.746,1.563-0.82c0.813-0.074,1.333-0.224,1.776-0.295
		c0.442-0.072,1.701-0.295,2.372-0.148c0.666,0.148,1.781-0.146,2.596-0.072c0.813,0.072,1.703-0.147,2.002,0.148
		C74.276,1.351,74.502,1.5,74.795,1.5C75.095,1.502,75.611,1.65,75.611,1.65z"/>
	<path fill="#EE2C24" d="M62.191,16.403c0,0-1.332-0.075-2.002,0.52c-0.665,0.596-1.262,1.186-1.262,1.484
		c0,0.294-0.071,0.294-0.146,0.89c-0.075,0.595,0.592,0.666,0.816,0.666c0.22,0,1.407,0.075,1.482,0.37
		c0.072,0.297-0.665,0.297-1.188,0.227c-0.52-0.075-0.664,0.516-0.22,0.589c0.443,0.076,0.887,0.15,1.26,0.224
		c0.367,0.076,1.258,0.445,1.258,0.445s0.742-0.369,1.708-0.146c0.963,0.225,1.854,0.442,1.854,0.442s0.295-0.813,0.814-0.52
		c0.519,0.302,0.366-0.664,1.185-0.368c0.813,0.295,0.742,1.039,1.335,1.261c0.59,0.222,1.188,0.222,1.48,0.742
		c0.3,0.514,0.448,0.964,1.187,1.11c0.745,0.148,0.668,1.187,0.449,1.556c-0.225,0.375-0.671,0.298-1.114,0.891
		c-0.447,0.59,0.89,0.59,0.149,0.891c-0.744,0.297-1.706,0.44-2.151,0.297c-0.446-0.147-0.742-0.521-0.962,0
		c-0.227,0.518-0.597,0.813-0.373,0.887c0.225,0.075,0.667,0.448,1.187,0.299c0.519-0.152,0.667-0.668,1.48-0.593
		c0.819,0.073,0.966,0.742,1.784,1.035c0.813,0.299-0.374,0.668,0.442,0.889c0.814,0.226,0.741,0.448,1.483,0.52
		c0.739,0.075,0.965,0.815,1.702,0.815c0.742,0,0.817-0.589,0.148-0.962c-0.665-0.373-0.072-0.963,0.299-0.742
		c0.37,0.222,1.036,0.889,1.335,0.889c0.295,0,0.295-1.109,0.222-1.334c-0.075-0.22,0.368-0.518-0.222-0.816
		c-0.592-0.293-0.742-0.515-1.335-0.812c-0.593-0.302-1.113-0.673-0.741-0.966c0.37-0.296-0.146-0.889,0.519-0.74
		c0.666,0.146,0.666,0.075,1.037,0.594c0.37,0.518,0.299,0.741,0.892,0.811c0.592,0.08,0.521,0.371,0.814,0.599
		c0.296,0.222,0.445-0.745,0.74-1.114c0.298-0.373,0.372,0,0.593-0.742c0.222-0.742,0.296-0.667-0.518-0.813
		c-0.815-0.148-2.077-1.262-2.593-1.406c-0.52-0.154-0.818-0.525-1.114-0.746c-0.297-0.221-0.076-0.594,0.148-0.886
		c0.223-0.301,0.518-0.223-0.076-0.741c-0.589-0.522-0.516-0.225-1.185-0.819c-0.666-0.591-0.223-0.591-1.185-0.742
		c-0.965-0.146-0.595-0.666-1.04-0.742c-0.443-0.071-1.63,0.15-2.076-0.367c-0.445-0.521-0.146-1.335-0.592-1.264
		c-0.445,0.077,0,0-0.964-0.594c-0.962-0.589-0.668-0.736-1.704-0.736c-1.042,0-1.707-0.149-1.929,0.293
		c-0.223,0.443-0.372-0.814-0.965-0.594C63.752,16.552,63.451,17.147,62.191,16.403z"/>
	<path fill="#EE2C24" d="M61.006,29.969c0,0,0.295-0.813,0.667-0.885c0.371-0.081-0.223-0.97,0.443-1.411
		c0.671-0.445,0.893-0.301,1.037,0c0.15,0.296-0.071,0.594,1.04,0.519c1.113-0.078,0.3,0.665,1.113,0.964
		c0.815,0.298,1.112,0.298,0.962,0.667c-0.146,0.373-1.258,0.518-1.704,0c-0.444-0.518-1.482-0.224-1.631,0.146
		c-0.146,0.371-0.443,1.038-0.742,0.892C61.896,30.714,61.747,29.23,61.006,29.969z"/>
	<path fill="#EE2C24" d="M31.941,18.332c0,0,0.448-0.667,0.597-1.038c0.145-0.371,0.593-0.665,0.593-1.039
		c0-0.369-1.041-0.963-0.295-1.038c0.737-0.072,0.963-0.072,1.407-0.072c0.443,0,1.556-0.295,1.782,0.147
		c0.22,0.447,0.813,0.891,1.108,0.891c0.298,0,1.037-0.591,1.481-0.297c0.446,0.297,1.191,0.892,1.191,0.892l-1.339,0.812
		c-0.742,0.077-1.63,0.3-1.855,0.743c-0.221,0.446-0.367,1.038-0.813,1.038c-0.445,0-0.519,0-1.482,0.446
		c-0.965,0.441-0.815-0.297-1.26-0.446C32.613,19.223,31.72,18.554,31.941,18.332z"/>
	<path fill="#EE2C24" d="M37.282,19.223c0,0-0.148-0.594,0.369-0.742c0.52-0.149,0.52-0.742,1.707-0.963
		c1.184-0.225,0.891,0.667,1.483,0.59c0.591-0.072,0.298-0.742,0.963-0.665c0.666,0.075,1.037,0.296,1.037,0.665
		c0,0.373,0.668,0.593,0.668,0.593s-0.148-1.113,0.444-1.183c0.594-0.075,0.742,2.223,1.336,2.148
		c0.593-0.077,0.37-0.889,0.296-1.41c-0.075-0.518-0.743-1.26-0.075-1.334c0.667-0.074,0.667,0.371,0.963,0.443
		c0.301,0.078-0.296-0.886,0.222-0.813c0.521,0.077,0.967,0.077,1.188,0.371c0.225,0.299-0.738,0.966-0.518,1.334
		c0.222,0.373,0,0.817,0.369,1.484c0.373,0.665,0.297,0.964,0.89,1.038c0.594,0.076,1.485,0.445,1.705,0.593
		c0.226,0.147,0.593,0.298,0.593,0.74c0,0.447-1.184-0.52-1.479,0c-0.299,0.522-0.67,0.522-0.67,0.743
		c0,0.226,1.63-0.521,1.113,0.073c-0.521,0.593-1.928,0.444-1.928,0.444s-0.593-0.96-1.037-0.96c-0.447,0-0.298,0.073-1.781,0.516
		c-1.48,0.444-1.855,1.112-2.89,0.741c-1.039-0.369-0.891-1.11-1.56-1.11c-0.666,0-1.706-0.074-2.148-0.225
		c-0.445-0.145-0.596-0.887-0.596-0.887s1.339-0.373,2.153-0.149c0.815,0.221,1.479,0.446,1.186-0.37
		c-0.295-0.816-0.519-0.299-1.41-0.299s-1.037,0.299-1.556,0.076c-0.52-0.222-1.332,0-0.815-0.373
		c0.521-0.37,0.667-0.294,1.187-0.44c0.516-0.15,0.89,0.221,0.516-0.15C38.838,19.37,37.432,19.519,37.282,19.223z"/>
	<path fill="#EE2C24" d="M34.219,12.997c0,0-0.695-0.302-0.151-0.494c0.544-0.202,0.846-0.349,1.089-0.396
		c0.25-0.055,0.447-0.351,0.694-0.547c0.246-0.195,0.145-0.541,0.938-0.642c0.79-0.099,1.284,0.197,1.58,0
		c0.298-0.194,0.396-0.642,0.596-0.444c0.194,0.196,0.242,0.444,0.543,0.492c0.3,0.054-0.248,0.25-0.396,0.347
		c-0.146,0.1-0.146,0-0.146,0.443c0,0.447-0.496,0.545-0.692,0.596c-0.199,0.052-0.296-0.692-0.742-0.596
		c-0.444,0.103-0.395,0.25-0.593,0.545c-0.199,0.301,0.346,1.042-0.344,0.894c-0.693-0.149-1.29-0.644-1.437-0.251
		C35.008,13.343,34.219,12.997,34.219,12.997z"/>
	<path fill="#EE2C24" d="M38.615,13.293c0,0,0.051-0.646,0.543-0.646c0.496,0,0.101-0.641,0.941-0.442
		c0.841,0.2,0.442,0.544,1.088,0.492c0.64-0.05,0.794-0.05,1.088,0.248s0.199,1.04,0.592,0.938c0.395-0.1,1.976-0.589,1.484-0.688
		c-0.494-0.103,0-0.742-0.595-0.894c-0.593-0.146,0.694-0.442,0.742-0.787c0.049-0.349,0.494,0.196,0.594,0.641
		c0.098,0.447-0.298,0.491,0.146,0.789c0.444,0.298,0.742,0.399,0.987,0.446c0.247,0.048,0.052-0.543,0.396-0.393
		c0.346,0.146,0.793,0.491,0.694,0.688c-0.102,0.196-0.199-0.098-0.694,0.495c-0.493,0.595-0.592,0.893-1.137,0.545
		c-0.542-0.347-1.434-0.347-1.777-0.05c-0.348,0.297-0.94,0.443-1.534,0.594c-0.596,0.148-1.633-0.053-1.682-0.249
		c-0.047-0.196,0.792-0.443,1.188-0.547c0.396-0.096,0.445-0.048,0.84,0c0.396,0.054-0.395-0.343-0.84-0.343
		c-0.445,0-0.591,0.295-0.99,0.295c-0.394,0,0.099-0.645-0.394-0.395c-0.49,0.244-0.396,0.592-0.89,0.495
		c-0.492-0.102-0.692-0.396-1.088-0.396S37.828,13.538,38.615,13.293z"/>
	<path fill="#EE2C24" d="M49.738,18.332c0,0-0.347-0.641,0.099-0.592c0.443,0.048,0.642,0.297,0.888,0.348
		c0.25,0.044,0.592-0.051,0.592-0.348c0-0.296,0.298-0.592-0.192-0.542c-0.498,0.049-0.298,0.493-0.498,0.049
		c-0.199-0.446,0-0.644,0.2-0.694c0.197-0.048,0.49-0.297,0.64-0.297c0.148,0,0.251,0.349,0.499,0.297
		c0.244-0.048,0.438-0.394,0.737-0.443c0.293-0.05,0.693,0.146,0.841,0.197c0.149,0.051,0,0.248,0,0.543
		c0,0.299-0.548,0.295-0.692,0.546c-0.148,0.248-0.148,0.393,0.053,0.44c0.195,0.053,0.444-0.145,0.689,0
		c0.248,0.151,0.445,0.349,0.491,0.598c0.055,0.243,0.102,0.689-0.096,0.891c-0.197,0.195-0.544,0.094-0.89,0.343
		c-0.348,0.248-0.348,0.591-0.695,0.445c-0.344-0.149-0.245-0.593-0.54-0.788c-0.298-0.201-0.249-0.302-0.641-0.351
		c-0.396-0.049-0.644-0.049-0.841-0.049C50.181,18.925,49.983,18.284,49.738,18.332z"/>
	<path fill="#EE2C24" d="M54.976,19.469c0,0,0.297-0.448,0.051-0.94c-0.249-0.493-0.492-0.941-0.397-1.235
		c0.103-0.297,0.148-1.039,0.148-1.039s0.594,0.349,0.742,0.201c0.148-0.15-0.396-0.544,0.05-0.595
		c0.445-0.05,0.396,0.146,0.989,0.146c0.594,0,1.039,0.199,1.385,0.101c0.345-0.101,0.593-0.197,0.839,0.099
		c0.248,0.297-0.149,0.346-0.443,0.541c-0.295,0.201-0.546,0.45-0.597,0.647c-0.047,0.193,0.052,0.592-0.494,0.54
		c-0.54-0.046-0.394-0.589-0.841-0.195c-0.441,0.392-0.639,0.495-0.639,0.693c0,0.196,0.494,0.196,0.393,0.392
		c-0.099,0.197-0.443,0.148-0.443,0.499"/>
	<path fill="#EE2C24" d="M47.169,7.904l0.393-0.198l0.939-0.099c0,0,0.247,0.593,0.495,0.593c0.247,0,0.049-0.398,0.544-0.249
		c0.495,0.152,0.789-0.048,1.039,0.152c0.247,0.191,0.247,0.347,0.492,0.542c0.245,0.194,0.742,0.046,0.841,0.297
		c0.101,0.244-0.446,0.393-0.099,0.789c0.345,0.397,0.099,0.838-0.348,0.642c-0.442-0.197-0.342-0.691-0.789-0.889
		c-0.443-0.197-0.741-0.197-1.039-0.097c-0.296,0.097-0.89-0.201-1.036-0.201c-0.149,0-0.444,0.494-0.79,0.201
		c-0.35-0.297-0.398-0.646,0-0.646c0.396,0,0.891,0.2,0.891,0c0-0.197-0.495-0.446-0.647-0.493
		C47.906,8.201,46.969,8.301,47.169,7.904z"/>
	<path fill="#EE2C24" d="M52.653,8.691c0,0-0.048-0.396,0.398-0.293c0.445,0.098,0.739-0.098,1.032,0.098
		c0.305,0.195,0.252,0.543,0.647,0.596c0.392,0.047,0.64,0.047,0.64,0.243c0,0.2-0.195,0.296-0.195,0.593s-0.496,0.201-0.787,0.201
		c-0.305,0-0.4,0.096-0.649,0.147c-0.242,0.05-0.344-0.646-0.344-0.646s0.102-0.196-0.297-0.393
		C52.702,9.04,52.653,8.691,52.653,8.691z"/>
	<path fill="#EE2C24" d="M54.578,10.819c0,0,0.249-0.493,0.598-0.493c0.344,0,0.542,0,0.887,0.047
		c0.345,0.048,0.841-0.047,0.746,0.148c-0.101,0.201-0.398,0.396-0.647,0.396c-0.244,0-0.294-0.099-0.642-0.099
		C55.176,10.819,54.578,10.819,54.578,10.819z"/>
	<path fill="#EE2C24" d="M53.889,11.559c0,0-0.098-0.195,0.545-0.147c0.642,0.049,0.79,0.049,1.036,0.102
		c0.248,0.046,0.742,0.048,0.889,0.242c0.147,0.201-0.096,0.447,0.147,0.495c0.25,0.05,0.693-0.294,0.941-0.192
		c0.246,0.096,0.79-0.053,0.988,0.096c0.197,0.146-0.147,0.447,0.146,0.447c0.299,0,0.695-0.099,0.84,0.094
		c0.152,0.201-0.094,0.545-0.689,0.397c-0.592-0.15-0.989-0.002-0.494,0.199c0.494,0.195,1.039-0.148,1.184,0.05
		c0.152,0.195,0.152,0.394,0.302,0.491c0.147,0.101,0.49-0.25,0.79-0.148c0.298,0.097,0.891,0.348,1.283,0.25
		c0.396-0.101,0.792-0.396,0.991-0.396c0.199,0,1.038-0.444,1.333-0.344c0.298,0.099,0.742,0.244,1.187,0.195
		c0.447-0.047,0.887,0.099,1.235,0.492c0.346,0.395-0.493,0.593-0.349,1.04c0.151,0.443,0.053,0.596-0.439,0.443
		c-0.498-0.147-1.336,0.152-1.731-0.54c-0.395-0.693,0.247,0.54-0.545,0.444c-0.791-0.103-1.384-0.003-1.778,0.046
		c-0.398,0.049-0.693,0.103-1.139,0.103c-0.443,0-0.443-0.743-0.791-0.547c-0.349,0.201-0.442,0.398-0.739,0.346
		c-0.299-0.05-0.643-0.195-1.035-0.244c-0.397-0.052-0.747-0.102-0.796-0.499c-0.047-0.392,0.346-0.54-0.047-0.641
		c-0.396-0.099-0.249-0.491-0.794-0.891c-0.541-0.393-1.086,0-1.729-0.44C53.988,12.052,53.889,11.906,53.889,11.559z"/>
	<path fill="#EE2C24" d="M48.055,12.203c0,0,0.348-0.197,0.647-0.097c0.294,0.097,0.74,0.444,0.74,0.444
		c0.443,0.543,0.243,0.938,0.541,0.839c0.297-0.097,0-0.938,0.297-0.887c0.299,0.048,0.248,0.245,0.694,0.395
		c0.44,0.147-0.193-0.622-0.053-0.693c0.595-0.297,1.043-0.394,1.386-0.246c0.346,0.149,0.988,0,0.939,0.594
		c-0.049,0.594-0.445,0.792-0.099,1.037c0.349,0.248-0.298,0.098-0.347,0.593c-0.051,0.495,0.049,0.545-0.544,0.396
		c-0.594-0.15-1.035-0.251-1.234-0.15c-0.197,0.102,0.442-0.492,0.048-0.69c-0.395-0.197-0.689-0.099-1.136-0.051
		c-0.445,0.051-0.344,0.196-0.792,0c-0.441-0.197,0-0.592-0.591-0.742C47.958,12.795,47.906,12.251,48.055,12.203z"/>
	<path fill="#EE2C24" d="M54.238,14.527c0,0,0.047-0.201,0.243-0.545c0.198-0.347,0.198-0.641,0.694-0.444
		c0.492,0.197,1.283,0.593,1.231,0.937c-0.049,0.351,0.301,0.742-0.246,0.742c-0.541,0-0.74-0.295-1.235-0.344
		C54.434,14.825,54.389,14.873,54.238,14.527z"/>
	<path fill="#EE2C24" d="M41.285,10.373c0,0-0.345-0.542,0.147-0.542c0.497,0,0.693,0.097,0.99,0c0.295-0.1,0.396-0.05,0.989-0.1
		c0.591-0.051,1.039,0.05,0.887,0.297c-0.149,0.248-0.739,0-1.037,0.146c-0.295,0.15,0.248-0.099,0.248,0.298
		c0,0.398-0.299,0.444-0.445,0.492c-0.148,0.054-0.495,0-0.789-0.094c-0.3-0.101-0.397-0.202-0.644-0.202
		C41.384,10.67,41.285,10.373,41.285,10.373z"/>
	<path fill="#EE2C24" d="M41.188,9.09c0,0,0.146-0.198,0.541-0.198c0.397,0,1.09-0.297,1.09-0.297s0.493-0.394,0.891-0.144
		c0.393,0.241,0.643,0.344,0.689,0.589c0.053,0.248-0.297,0.349-0.889,0.248c-0.594-0.101-0.543-0.296-0.89-0.197
		c-0.345,0.098-0.596,0.245-0.892,0.245S41.188,9.09,41.188,9.09z"/>
</g>
</svg>
