<?xml version="1.0" encoding="utf-8"?>
<!-- Generator: Adobe Illustrator 16.2.0, SVG Export Plug-In . SVG Version: 6.00 Build 0)  -->
<!DOCTYPE svg PUBLIC "-//W3C//DTD SVG 1.1//EN" "http://www.w3.org/Graphics/SVG/1.1/DTD/svg11.dtd">
<svg version="1.1" id="Layer_1" xmlns="http://www.w3.org/2000/svg" xmlns:xlink="http://www.w3.org/1999/xlink" x="0px" y="0px"
	 width="271.074px" height="125.486px" viewBox="0 0 271.074 125.486" enable-background="new 0 0 271.074 125.486"
	 xml:space="preserve">
<g>
	<path fill="#F47D6E" d="M270.078,26.709c-1.259-0.369-0.814-0.369-1.259-0.667c-0.446-0.297-0.446,0.963-0.668,1.039
		c-0.224,0.073-0.667-0.146-0.667-1.039c0-0.891-0.445-0.297-0.742-0.518c-0.291-0.223-0.814-0.742-1.484-0.892
		c-0.664-0.146-1.555-0.964-2.594-1.48c-1.037-0.518-2-0.817-3.039-0.667c-1.037,0.149-1.779-0.222-2.969-0.442
		c-1.185-0.227-0.22,0.442,0.075,1.258c0.3,0.813-0.817,0.296-1.705,0.071c-0.889-0.22,0.815-0.665,0.445-1.183
		c-0.371-0.521-0.589,0.295-0.964,0.369c-0.37,0.076-0.963,0.147-1.557,0.296c-0.593,0.147-0.814,0-1.929-0.22
		c-1.112-0.223-0.593,0.292-1.036,0.072c-0.445-0.222-0.668,0-1.41-0.072c-0.74-0.076-0.295-0.67-0.666-1.336
		c-0.369-0.669-2.521-0.669-3.408-0.443c-0.892,0.22-1.485,0.293-1.931,0c-0.442-0.296-0.817-0.296-1.632-0.521
		c-0.813-0.221,0.443-0.517-0.072-0.963c-0.521-0.445-2.225-0.221-3.263-0.668c-1.038-0.444-3.265-0.742-3.265-0.37
		c0,0.37-0.664,0.223-1.407,0.37c-0.742,0.149,0.147,0.668-0.071,1.19c-0.225,0.514-1.191,0.667-1.408,0.667
		c-0.221,0-0.89-0.227-1.56-0.446c-0.665-0.221-0.595,0.221-1.483,0.146c-0.893-0.072-0.295-1.035-1.037-0.518
		c-0.74,0.518-1.26,1.262-1.778,1.038c-0.519-0.22-0.369-0.593-0.742-1.188c-0.371-0.594,0.373-0.739-0.073-1.554
		c-0.443-0.814-2.225-0.966-3.708-1.113c-1.479-0.146-1.331,0.966-3.187,1.037c-1.854,0.077,0.297-0.737-0.816-0.812
		c-1.111-0.077-3.188,0.218-3.561,0.296c-0.369,0.075-0.147-0.446-0.516-0.595c-0.373-0.147-1.265-0.445-1.484,0
		c-0.225,0.445-1.557,0.445-2.373,0.816c-0.813,0.371-1.854,0.294-1.409,0c0.446-0.299,3.782-2.448,4.524-2.593
		c0.742-0.151,1.188-0.599,0.961-1.115c-0.219-0.52-3.26-1.631-3.703-1.554c-0.444,0.072-0.816-0.594-1.704-0.446
		c-0.89,0.149-0.226-0.668-0.597-0.962c-0.369-0.301-2.228,0.221-2.893,0.445c-0.665,0.22-0.813,0.667-0.965,1.111
		c-0.148,0.445-1.999,0.593-2.443,0.664c-0.447,0.078-1.111-0.218-1.707,0c-0.591,0.223-1.332,0.298-2.223,0.667
		c-0.893,0.373-2.374,0.593-3.116,0.742c-0.739,0.15-0.593,0.815-1.112,1.779c-0.518,0.962-2.594,0.52-3.185,0.445
		c-0.593-0.072-1.928-0.072-1.411,0.891c0.52,0.962,1.484,1.41,2.299,2.152c0.816,0.737-0.518,1.925-0.888,1.777
		c-0.371-0.15-0.226-1.264-0.226-1.264s-0.816-1.036-1.036-1.183c-0.222-0.148-1.11-0.669-2.149-0.445c-1.037,0.219,0.225,2,0.225,2
		s-0.895-0.149-1.262-0.22c-0.375-0.075-1.26-0.153-0.744-1.04c0.297-0.5-0.14-1-0.473-1.292c0.2,0.382-0.279,1.029-0.715,1.217
		c-0.518,0.224-0.59,0.814-0.219,1.411c0.369,0.593-0.446,0.962-0.149,1.558c0.298,0.59,1.409,0.442,2.595,0.74
		c1.188,0.297,0.891,2,0.297,1.78c-0.592-0.226-0.297-0.595-0.521-1.115c-0.222-0.516-0.666,0-1.261-0.147
		c-0.592-0.148-0.813,0.072-0.518,0.669c0.293,0.595,0,0.813-0.295,1.335c-0.299,0.519-0.82,0.963-1.631,1.261
		c-0.816,0.295-2.301-0.519-1.338-0.371c0.966,0.146,1.409-1.039,2.077-1.78c0.667-0.742-0.593-0.817-0.37-1.631
		c0.223-0.817,0-0.667,0-1.928s-0.369-1.111,0.075-1.78c0.44-0.666,0.22-1.704-0.667-1.335c-0.891,0.373-0.969-0.369-2.078,0.224
		c-1.113,0.594-0.148,1.259-0.814,1.484c-0.666,0.222-1.484,0.222-0.814,0.813c0.667,0.595,0.148,0.964,0,1.561
		c-0.148,0.593,1.183,0.738,1.48,1.183c0.297,0.445,0,1.04-0.445,1.04c-0.442,0-1.409-0.891-2.295-1.331
		c-0.102-0.052-0.2-0.091-0.297-0.127c0.076,0.548,0.297,0.127,0.369,0.644c0.071,0.516-0.225,0.962,0.297,1.11
		c0.517,0.148,0,0.966,0,0.966s-0.445,0.519-0.666,0.742c-0.227,0.221-1.262,0.89-1.707,1.109s-1.109,0.744-1.484,1.113
		c-0.37,0.367-0.59,1.038-0.665,1.482c-0.071,0.446-0.296,1.854-0.446,2.519c-0.148,0.67-1.188,0.447-1.556,0.597
		c-0.37,0.145-1.483,0.742-2.597,2c-1.111,1.264,0.147,0.744,0.147,1.486c0,0.741,0,0.741,0.226,1.406c0.22,0.669,0,0.817,0,1.111
		c0,0.296-0.297,1.115-0.67,1.337c-0.369,0.226-0.439,0.595-1.11,1.036c-0.667,0.448,0,1.781,0,1.781c-0.224,0.294-1.037,0-1.037,0
		l-0.369,0.521c0,0-0.077,0.962-0.375,0.962c-0.296,0-1.556-0.594-1.556-0.594s0,0.594-0.442,1.036c-0.446,0.446,0,0.964,0,0.964
		l0.666,0.593l0.521-0.439c0,0,0.592,0.293,0.592,0.665s0,0.742,0.298,1.04s0.741,0.444,1.019,0.893c0.278,0.446,0.317,0.218,0,0.59
		c-0.313,0.367-0.721,0.518-0.352,0.89c0.37,0.368,1.855,1.111,1.779,1.332c-0.071,0.224-0.148,0.817-0.368,1.483
		c-0.228,0.666,0.22,0.89,0.444,1.034c0.219,0.152,0.518,0.525,0.518,0.525l0.367,1.828l-0.147,0.688c0,0-1.853,0.075-2.241,0
		c-0.386-0.075-1.019-0.742-1.465-1.04c-0.443-0.295,0-0.721,0-0.721s0.024-0.44,0.223-0.687c0.201-0.247,0.498-0.843,0.397-1.088
		c-0.103-0.247-0.547-0.742-0.62-0.938c0,0-0.016-0.02-0.039-0.064c-0.107-0.105-0.35-0.022-0.477,0.064
		c-0.146,0.101-0.051,0.495-0.646,0.146c-0.593-0.344-1.334-1.136-1.576-1.183c-0.25-0.052-1.039-0.249-1.188-0.249
		c-0.147,0-0.694-0.296-0.842-0.396c-0.149-0.097-0.986,0.101-1.235,0c-0.248-0.097-0.938-0.03-0.938-0.03s0.593,0.476,0.789,0.575
		c0.195,0.101,0.494,0.61,0.494,0.61l-0.01,0.673c-0.551,0.156-1.24,0.355-1.376,0.397c-0.221,0.069-1.185,0.069-1.702,0
		c-0.521-0.073-0.742-0.443-0.892-0.67c-0.147-0.223-1.113-0.369-1.481-0.369c-0.369,0-0.595-0.074-1.188,0
		c-0.595,0.073-0.222,0.369-0.666,0.782c-0.443,0.411-0.521,0.032-0.817,0.032c-0.294,0-0.294-0.072-0.73,0
		c-0.436,0.076-0.898,0.371-0.973,0.742c-0.074,0.368-1.926,0-1.926,0c0.743,0.296,0.294,0.445,0.294,1.038s0.222,0.889,0.449,1.333
		c0.218,0.445,0.368,1.187,1.479,1.115c1.111-0.075,1.701-0.15,2.521,0.148c0.815,0.297,1.481,0.072,2.147-0.148
		c0.469-0.158,0.533-0.016,0.586,0.331c0.019,0.147,0.039,0.331,0.082,0.557c0.15,0.743-0.963,2.003-1.111,2.746
		c-0.148,0.738-0.962,0.813-0.962,0.813h-0.494c0,0,0.133,0.861,0.347,1.797c0.021,0.021,0.051,0.039,0.07,0.056
		c0.67,0.522,0.595,0.593,1.039,0.375c0.443-0.226,0.742-0.226,0.963,0.366c0.225,0.596,0.3,1.483,1.113,2.373
		c0.813,0.892,0.889,1.26,1.037,1.93c0.149,0.664,0.074,0.742,0.887,1.334c0.818,0.594,1.488,2.447,2.375,4.006
		c0.891,1.554,0.371,1.627,0.593,2.294c0.228,0.669,1.634-0.814,2.522-0.518c0.89,0.292,1.703-0.819,2.67-0.819
		c0.962,0,0.365-0.957,0.889-0.885c0.52,0.073,0.893-0.148,1.186-0.592c0.295-0.445,0.52-0.744,1.482-0.67
		c0.969,0.074,1.559-0.963,1.633-1.188c0.074-0.223,0.52-0.965,0.74-1.187s0.742-0.371,0.891-0.593
		c0.147-0.223-0.447-1.559-0.814-2.002c-0.372-0.446-0.816-0.37-1.264-0.521c-0.441-0.146-0.592-1.109-0.664-0.893
		c-0.076,0.227-1.779,0.893-1.779,0.893s-0.742,0.448-1.188,0.448c-0.443,0-0.371-0.596-0.595-0.967
		c-0.221-0.375,0-0.741-0.221-1.334c-0.224-0.595-0.664,0.3-0.888,0c-0.228-0.297-1.039-1.331-1.188-1.704
		c-0.147-0.37,0.517-0.591,0.813-0.966c0.297-0.366,0.967,0.225,1.262,0.892c0.299,0.666,1.041,0.815,1.111,1.262
		c0.074,0.443,1.336,0.889,2.149,0.664c0.815-0.221,1.039-0.517,1.632,0c0.594,0.521,0.816,0.596,0.816,0.596
		s1.557,0.371,2.078,0.593c0.111,0.047,0.328,0.071,0.595,0.076c0.96,0.022,2.614-0.171,2.961-0.226
		c0.444-0.072,1.114,0.74,1.707,1.262c0.592,0.519,1.628,0.814,1.628,0.814l-1.111,0.374c0,0,0.297,0.517,0.52,0.812
		c0.224,0.299,1.26,0.299,1.559,0.148c0.297-0.148,0.668-0.96,0.668-0.594c0,0.372,0.295,0.965,0.221,1.561
		c-0.071,0.591,0,1.777,0.295,2.447c0.3,0.665,0.373,1.557,0.671,2.371c0.296,0.812,0.891,1.408,1.11,1.7
		c0.221,0.298,1.039,2.821,1.26,2.821c0.225,0,0.816-0.816,1.041-0.966c0.222-0.147,0.519-0.443,0.738-1.408
		c0.225-0.964,0.521-1.262,0.444-2.078c-0.071-0.813,0-0.592,0.149-1.11c0.147-0.519,0.297-0.295,0.668-0.961
		c0.369-0.668,1.479-0.814,1.777-0.744c0.295,0.076,0.225-0.742,0.443-1.188c0.223-0.443,0.594-1.26,1.559-0.886
		c0.963,0.368,0.592-0.445,0.815-0.742c0.219-0.297,0.219-0.297,0.593-0.817c0.368-0.517,0.667,0.075,0.889,0.149
		c0.224,0.072,0.672,0.072,1.263-0.517c0.591-0.596,0.89,0.296,1.112,1.037c0.221,0.737,1.039,1.556,1.557,2.072
		c0.518,0.521,0,1.562,0.518,1.707c0.52,0.148,0.893-0.371,1.186-0.521c0.3-0.149,0.673,1.481,1.189,2.148
		c0.518,0.67-0.15,1.11-0.445,1.187c-0.297,0.075-0.149,1.336,0.295,2.227c0.445,0.892,0.522,2.373,1.336,2.373
		c0.816,0,0.816,2.148,1.338,3.187c0.516,1.04,2.296,0.668,1.849,0.371c-0.442-0.293-0.22-1.48-0.295-2.223
		c-0.071-0.746-0.591-0.746-0.889-0.967c-0.296-0.224-1.187-1.039-1.558-1.408s-0.224-2.816-0.224-3.483
		c0-0.664,0.817-0.225,1.037-0.225c0.226,0,0.743,0.596,1.041,1.039c0.299,0.445,1.036,0.371,1.262,0.815
		c0.22,0.444,0.44,1.777,0.589,1.337c0.153-0.447,0.742-1.114,1.262-1.114c0.521,0,0.891-0.667,1.111-0.891
		c0.227-0.225,0.891-0.963,0.891-1.406c0-0.448-0.444-1.333-0.963-1.854c-0.518-0.517-1.109-1.56-1.48-2.074
		c-0.371-0.522,0.441-1.484,0.518-1.709c0.074-0.223,0.965-0.888,1.705-0.814c0.741,0.076,0.965,1.039,0.965,0.373
		c0-0.668,1.56-1.185,2.224-1.042c0.666,0.153,1.483-0.143,1.483-0.143l2.666-2.007c0,0,0.599-1.109,0.67-1.33
		c0.072-0.226,1.108-1.115,1.408-1.632c0.295-0.521-0.447-0.815-0.447-0.815s-0.069-0.521,0.226-0.889
		c0.298-0.373,0.595-0.373,0.595-0.373s-0.521-0.965-0.595-1.56c-0.077-0.592-0.521-0.962-1.114-1.036
		c-0.591-0.074-0.144-0.443-0.144-1.112c0-0.667,0.44-0.667,1.108-1.036c0.666-0.371,1.111-0.075,0.892-0.67
		c-0.226-0.591-0.671-0.369-1.263-0.225c-0.594,0.152-0.814,0.598-1.26,0.375c-0.447-0.222-0.447-0.298-0.447-1.11
		c0-0.818,0.668-0.373,1.338-1.189c0.664-0.816,1.039-0.516,1.406-0.222c0.375,0.295-0.666,0.814-0.146,0.964
		c0.521,0.149,0.521-0.295,1.854-0.593c1.334-0.296,0.596,0.593,0.443,0.814c-0.146,0.226,0.373,0.74,0.816,0.89
		c0.447,0.147,0.447,0.891,0.519,1.41c0.076,0.519-0.444,2.073-0.296,1.778c0.146-0.294,0.296-0.444,1.41-0.518
		c1.111-0.074,1.261-0.669,1.336-1.484c0.072-0.817-0.594-1.556-1.264-2.147c-0.67-0.594-0.519-0.818,0.225-0.818
		c0.74,0,1.259-1.852,1.482-2.446c0.222-0.593,1.924-0.295,3.037-0.52c1.112-0.224,1.187-1.925,2.596-3.038
		c1.408-1.109,1.337-1.409,1.705-2.818c0.375-1.41,1.037-2.816,0.744-3.559c-0.305-0.742,0-1.26-0.223-1.484
		c-0.227-0.223-0.967-0.593-1.484-0.069c-0.521,0.519-0.742,0.442-1.188,0.219c-0.443-0.219-0.146-0.665-0.816-0.742
		c-0.666-0.071,0-0.516,1.262-1.78c1.261-1.26,3.486-2.297,4.375-3.035c0.892-0.741,1.779,0.146,2.892-0.078
		c1.112-0.223,2.297,0,2.741-0.07c0.445-0.078,0.298,1.112,0.969,0.443c0.663-0.667,1.479,0,2.219-0.074
		c0.741-0.076-0.07-0.521-0.593-0.741c-0.517-0.222,0.894-0.743,1.11-1.26c0.224-0.521,2.078-0.891,2.82-1.113
		c0.574-0.173,0.347,0.943,0.215,1.353c0.248-0.316,1.16-0.95,1.861-1.201c0.815-0.298,1.187-1.263,1.187-0.597
		c0,0.667-0.222,1.483-1.187,1.854c-0.968,0.369-2.15,1.853-2.521,2.298c-0.37,0.446-1.036,0.224-1.111,0.591
		c-0.074,0.371-0.518,1.117-1.406,1.411c-0.892,0.296-0.074,2,0.295,3.188c0.369,1.186-0.224,3.188,0.815,2.744
		c1.037-0.447,1.778-2.302,1.778-2.671c0-0.367,1.26-0.147,1.26-0.813s0.521-1.333,1.186-1.557c0.672-0.223-0.52-0.745-0.07-1.266
		c0.447-0.516,0.593-0.736-0.148-1.403c-0.742-0.668,0,0,0.596-1.264c0.588-1.258,1.032-0.146,1.479-0.74
		c0.442-0.593,0.371,0.74,0.815,0.521c0.445-0.226,0.736-0.966,1.629-0.89c0.891,0.072,1.262,1.407,1.483,0.594
		c0.226-0.817,2.742-2.151,3.706-2.597c0.965-0.443,0.893-0.742,1.93-0.519c1.035,0.22,0.814,0.889,1.111,0.297
		c0.296-0.593-0.148-0.817-0.148-1.484s-0.521-0.297-1.407-0.373c-0.89-0.072-0.224-1.406,0.593-0.958
		c0.814,0.444,1.111-0.597,1.561-0.893c0.439-0.298-0.152-0.595,0-1.04c0.146-0.444,1.185-0.073,1.035,0.371
		c-0.148,0.447,0.965,0.22,1.557,0.447c0.594,0.222,0.449,0.813,0.966,0.887c0.519,0.075,0.815,0.373,1.11,0.521
		c0.295,0.15,0.892-0.294,1.406-1.035c0.521-0.746,1.561-0.894,1.561-0.894S271.339,27.08,270.078,26.709z"/>
	<path fill="#F47D6E" d="M217.734,74.162c-0.145,0.106,0.372,1.07,0.372,1.07c0.146,0.074,0.146,0.039,0.185,0.26
		c0.021,0.117,0,0.188,0.373,0.672c0.366,0.479,0,0,0.107-0.226c0.111-0.225,0.259,0.146,0.259,0.146s0.188,0.08,0.263,0.229
		c0.074,0.145,0.149,0.109,0.41,0.031c0.256-0.07,0,0,0.33-0.112l0.264,0.226l0.187,0.261l0.517,0.26c0,0-0.037-0.15-0.071-0.332
		c-0.039-0.188-0.117-0.301-0.188-0.594c-0.072-0.299-0.146-0.075-0.332-0.075c-0.184,0-0.223-0.224-0.336-0.334
		c-0.111-0.113-0.221-0.07-0.367-0.036c-0.15,0.036-0.223,0.334-0.41,0.259c-0.188-0.074-0.035-0.223-0.146-0.444
		c-0.115-0.22,0.072-0.628,0.146-0.925s0.707-0.447,0.636-0.67c-0.078-0.223-0.265-0.332-0.376-0.557
		c-0.109-0.221,0.111-0.334,0.111-0.778c0-0.44-0.184-0.038-0.444-0.11c-0.259-0.072-0.337-0.147-0.63-0.147
		c-0.299,0-0.299,0.147-0.52,0.448c-0.224,0.294,0.036,0.368,0.036,0.665c0,0.299,0.035,0.596,0,0.891
		C218.07,74.529,217.884,74.047,217.734,74.162z"/>
	<path fill="#F47D6E" d="M216.142,79.943c0.371-0.187,0.559-0.447,0.632-0.594c0.075-0.148,0.22-0.261,0.517-0.406
		c0.301-0.152,0.225-0.337,0.264-0.558c0.037-0.225-0.188-0.409-0.188-0.409s0,0.147,0,0.298c0,0.149-0.328,0.332-0.371,0.482
		c-0.035,0.144-0.596,0.556-0.703,0.665C216.178,79.532,215.772,80.126,216.142,79.943z"/>
	<path fill="#F47D6E" d="M222.78,80.494c-0.04-0.368,0.033-0.551-0.116-0.662c-0.146-0.113-0.037-0.186-0.108-0.3
		c-0.076-0.109-0.147-0.48-0.408-0.442c-0.258,0.037-0.036,0.261-0.108,0.442c-0.076,0.187-0.408,0.262-0.594,0.369
		c-0.188,0.116-0.335,0.225-0.335,0.225s-0.26,0.368-0.371,0.301c-0.112-0.076,0.037-0.301,0.037-0.301s-0.149-0.183-0.368-0.148
		c-0.224,0.041-0.185,0.148-0.375,0.297c-0.183,0.152,0,0-0.183,0.038c-0.187,0.038-0.298,0.147-0.45,0.371
		c-0.143,0.224-0.218,0.744-0.218,0.744s0.299-0.263,0.37-0.373c0.072-0.112,0.298-0.188,0.447-0.188
		c0.146,0,0.703,0.225,0.703,0.225s0.186,0.187,0.186,0.336c0,0.145,0.074,0.294,0.298,0.479c0.22,0.182,0.259,0,0.405,0.032
		c0.148,0.043,0.076,0.225,0.371,0.339c0.295,0.107,0.225-0.339,0.225-0.339s-0.113-0.183-0.188-0.295
		c-0.076-0.105-0.037-0.218,0-0.367c0.037-0.152,0.188-0.112,0.369-0.037c0.187,0.074,0.295,0.628,0.332,0.479
		c0.039-0.148,0.264-0.293,0.149-0.556C222.74,80.906,222.813,80.867,222.78,80.494z"/>
	<path fill="#F47D6E" d="M220.033,79.57c0,0,0.334-0.109,0.373-0.297c0.037-0.185,0.369-0.297,0.369-0.297s0.074-0.187,0.112-0.406
		c0.038-0.225,0.073-0.373-0.224-0.445c-0.129-0.036,0,0.263,0,0.37c0,0.111-0.332,0.521-0.297,0.37
		c0.038-0.146,0.148-0.441,0.148-0.441s-0.184-0.262-0.333-0.262c-0.151,0-0.151,0.226-0.185,0.371
		c-0.041,0.147-0.072,0.296-0.188,0.367c-0.108,0.076-0.071,0.264-0.071,0.264L220.033,79.57z"/>
	<path fill="#F47D6E" d="M221.369,78.424c0,0,0.146,0.441,0.37,0.405c0.224-0.038,0,0,0-0.147s-0.036-0.52-0.071-0.669
		c0,0-0.263-0.073-0.481-0.11C220.962,77.865,221.186,78.125,221.369,78.424z"/>
	<path fill="#F47D6E" d="M221.739,76.976h-0.554c-0.114,0.111,0.33,0.519,0.404,0.775c0.078,0.261,0.557,0.445,0.447,0.226
		c-0.115-0.226,0.035-0.408,0.035-0.63C222.072,77.125,221.739,76.976,221.739,76.976z"/>
	<path fill="#F47D6E" d="M218.771,76.422c-0.148-0.037-0.48,0.034-0.48,0.034s0.187-0.034,0.223,0.261
		c0.041,0.294,0.076,0.408,0.15,0.519c0.074,0.112,0.407,0,0.334-0.295C218.921,76.644,218.921,76.456,218.771,76.422z"/>
	<path fill="#F47D6E" d="M219.292,78.457c0.149,0.149,0.299,0.113,0.447,0c0.145-0.11,0.406-0.295,0.443-0.444
		c0.039-0.146-0.227-0.33-0.334-0.408c-0.109-0.072-0.559-0.479-0.668-0.109c0,0,0.146,0.334,0.146,0.482
		C219.328,78.125,219.146,78.31,219.292,78.457z"/>
	<path fill="#F47D6E" d="M207.171,90.435c-0.148-0.264,0.035-0.374,0.111-0.856c0.072-0.481,0.072-0.258-0.188-0.813
		c-0.258-0.554-0.737-0.741-1-1.264c-0.26-0.518-0.297,0.039-0.596-0.034c-0.295-0.075,0.115-0.559,0.076-0.855
		c-0.035-0.292-0.185,0.077-0.516-0.664c-0.336-0.743-0.631-0.444-0.967-0.556c-0.334-0.112-0.555-0.295-0.893-0.627
		c-0.332-0.336-0.332-0.482-0.814-0.671c-0.48-0.188-0.703-0.967-0.998-1.334c-0.299-0.372-0.447-0.223-0.893-0.073
		c-0.442,0.148-0.408-0.224-0.703-0.373c-0.299-0.148-0.629,0.149-0.629,0.149c-0.147,0.297,1.26,1.56,1.517,1.818
		c0.261,0.258,0.483,0.554,0.595,0.775c0.113,0.223,0.373,0.37,0.703,0.776c0.335,0.41,0.219,0.261,1.115,1.039
		c0.89,0.777,0.146,0.408,0.146,0.924c0,0.521,0.591,0.854,0.706,1.115c0.112,0.262,1.335,1.115,1.631,1.369
		c0.299,0.264,0.446,0.374,0.592,0.449c0.149,0.072,0.705,0.184,0.854,0.184S207.321,90.691,207.171,90.435z"/>
	<path fill="#F47D6E" d="M203.278,88.359c-0.407-0.894-0.294-0.373-0.741-0.744c-0.441-0.371-0.371-0.555-0.629-0.928
		c-0.259-0.369-0.224-0.741-0.369-1.111c-0.148-0.373-0.338-0.411-0.631-0.777c-0.299-0.371-0.709-0.371-0.93-0.558
		c-0.223-0.181-0.33-0.22-0.813-0.37c-0.481-0.146-0.41,0.15-0.41,0.15c0,0.59,0.707,0.479,1.264,1.144
		c0.555,0.669,0.591,0.856,0.963,1.302c0.37,0.441,0.26,0.441,0.592,1.299c0.334,0.852,0.444,0.632,0.741,0.962
		c0.295,0.334,0.295,0.594,0.632,1.004c0.332,0.401,0.775,0.479,0.775,0.479s0.263-0.555-0.033-0.965
		C203.39,88.837,203.688,89.246,203.278,88.359z"/>
	<path fill="#F47D6E" d="M213.694,92.545c-0.296-0.481,0,0-0.444,0.039c-0.438,0.036-0.22-0.225-0.22-0.334
		c0-0.112-0.263-0.297-0.521-0.297s-0.408,0-0.742-0.111c-0.335-0.11-0.038-0.261-0.482-0.559c-0.445-0.294-0.445,0-0.517,0.298
		c-0.073,0.298-0.632,0.261-1.002,0.222c-0.372-0.036-0.442-0.071-0.779-0.147c-0.331-0.073-0.259-0.073-0.407-0.296
		c-0.146-0.221-0.225-0.184-0.482-0.261c-0.258-0.074-0.403,0.04-0.889,0.261c-0.479,0.223-0.334,0.259-0.334,0.259
		c0.262-0.073,0.56,0.076,0.668,0.262c0.111,0.185,0.185,0.332,0.666,0.185c0.483-0.147,0.598,0.372,0.894,0.405
		c0.293,0.039,1.11-0.033,1.37-0.072c0.257-0.036,0.297,0.111,0.443,0.337c0.148,0.221,0.369,0.221,0.703,0.181
		c0.336-0.034,0.373-0.146,0.562-0.181c0.181-0.039,0.44,0.146,0.551,0.257c0.112,0.112,0.301,0.188,0.593,0.334
		c0.299,0.147,0.67,0.038,0.598-0.112C213.843,93.064,213.992,93.027,213.694,92.545z"/>
	<path fill="#F47D6E" d="M217.068,85.689c-0.031-0.263-0.335-0.113-0.445-0.41c-0.109-0.295-0.225-0.444-0.225-0.444l-0.402-0.224
		c0,0-0.188-0.297,0.146-0.74l-0.228-0.667h0.305l0.441,0.114c0,0,0-0.226,0.146-0.412c0.152-0.182,0.449,0.041,0.449,0.041
		s0.146-0.298,0.107-0.484c-0.035-0.185-0.221-0.223-0.404-0.26c-0.187-0.039-0.483,0.146-0.67,0.037
		c-0.188-0.109-0.147-0.151-0.188-0.521c-0.033-0.372-0.072-0.328-0.26-0.372c-0.186-0.033-0.404-0.033-0.551-0.033
		c-0.152,0-0.299,0.257-0.336,0.442c-0.035,0.183-0.149,0.183-0.185,0.331c-0.039,0.151-0.297,0.483-0.297,0.483
		s-0.226,0.077-0.296,0.225c-0.076,0.15-0.111,0.443-0.375,0.443c-0.256,0-0.406-0.373-0.557-0.187
		c-0.147,0.187-0.219,0.408-0.293,0.521c-0.078,0.11-0.299,0.59-0.447,0.705c-0.148,0.106-0.479-0.148-0.703-0.115
		c-0.223,0.039-0.334,0.224-0.482,0.521c-0.148,0.299,0.074,0.479-0.038,0.741c-0.11,0.263-0.37,0.074-0.776-0.11
		c-0.41-0.187-0.187-0.151-0.371-0.369c-0.185-0.228-0.37,0.037-0.666,0.443c-0.297,0.405,0,0.516-0.038,0.739
		c-0.038,0.225,0.224,0.595,0.409,0.854c0.183,0.261,0.371,0.407,0.371,0.407s0.108,0.596,0.108,0.778c0,0.189,0,0.263,0,0.412
		c0,0.146,0.226,0.291,0.446,0.255c0.224-0.034,0.146-0.034,0.406-0.072c0.258-0.037,0.258-0.07,0.408,0.038
		c0.146,0.109,0.744,0.554,0.744,0.554s0.551-0.261,0.922-0.183c0.371,0.072,0.409,0.521,0.705,0.404c0.297-0.109,0,0,0.297,0.039
		s0.596-0.039,0.631-0.408c0.039-0.372,0.223-0.406,0.258-0.516c0.039-0.111,0.261-0.111,0.261-0.262
		c0-0.149-0.261-0.186-0.371-0.409c-0.106-0.227,0.265-0.227,0.41-0.333c0.147-0.113,0.478-0.706,0.478-0.706s0-0.259,0-0.373
		c0-0.108,0.08-0.328,0.114-0.517c0.039-0.188,0.147-0.147,0.445-0.147S217.104,85.946,217.068,85.689z"/>
	<path fill="#F47D6E" d="M220.85,85.648c-0.195,0.05-0.595,0.102-1.038,0.102c-0.445,0-0.445-0.147-0.593-0.193
		c-0.147-0.055-0.597,0.046-1.136,0.341c-0.547,0.299-0.297,0.496-0.297,0.743c0,0.249-0.496,0.593-0.496,0.891
		c0,0.296,0,0.44-0.049,0.64c-0.05,0.199-0.248,0.494-0.248,0.742c0,0.245,0.149,0.351,0.543,0.494
		c0.398,0.146-0.146,1.037-0.146,1.037l0.493,0.445l0.297-0.345c0,0,0.051-0.395,0.051-0.545c0-0.147-0.201-0.494-0.201-0.494
		v-0.444l0.74,0.097c0,0,0.104,0.499,0.104,0.742c0,0.251,0.443,0.101,0.443,0.101s0.641-0.049,0.493-0.297
		c-0.147-0.25-0.099-0.25-0.147-0.494c-0.05-0.246,0-0.297-0.199-0.545c-0.193-0.245-0.342-0.196-0.146-0.541
		c0.195-0.349,0.195-0.151,0.444-0.396c0.25-0.247,0.839-0.493,0.744-0.694c-0.102-0.192-0.447,0-0.744,0
		c-0.299,0-0.344,0.15-0.641,0.303c-0.301,0.148-0.248,0.148-0.742-0.053c-0.23-0.093,0.05-0.398,0.195-0.79
		c0.148-0.396,0.547-0.196,0.938-0.345c0.397-0.148,0.444,0,0.894,0.049c0.442,0.049,0.344,0.049,0.49,0.049
		c0.148,0,0.298-0.098,0.448-0.298c0.146-0.196,0.591-0.391,0.198-0.743C221.146,84.863,221.046,85.602,220.85,85.648z"/>
	<path fill="#F47D6E" d="M234.541,54.561c-0.099-0.347-0.147-0.296-0.147-0.692c0-0.396-0.147-0.293-0.396-0.395
		c-0.244-0.101-0.244,0.051-0.642,0.248c-0.396,0.194-0.297,0.393-0.297,0.638c0,0.253-0.247,0.941-0.396,1.291
		c-0.149,0.346,0,0.541-0.252,0.837c-0.244,0.297-0.787,0.542-1.084,0.792c-0.299,0.248-0.246-0.695-0.396-0.593
		c-0.147,0.099-0.396,0.642-0.496,0.94c-0.099,0.296-0.194,0.542-0.542,0.939c-0.346,0.393-0.247-0.345-0.443-0.295
		c-0.195,0.046-0.892,0.046-1.437,0.146c-0.546,0.098-1.283,0.594-1.479,0.839c-0.199,0.248-0.199,0.495-0.447,0.643
		c-0.246,0.146-0.197,0.049-0.492,0.247c-0.295,0.196-0.443,0.297-0.443,0.593c0,0.297,0.294,0.052,0.639,0
		c0.351-0.048,0,0.593,0,0.593s0,0.347,0.351,0.693c0,0,0.541-0.349,0.541-0.593c0-0.249,0.149-0.298,0.149-0.444
		c0-0.149,0.793-0.149,0.793-0.149l0.592-0.247c0,0,0.541-0.494,1.039-0.346c0.146,0.042,0.394,0.292,0.541,0.247
		c0.148-0.051,0.244-0.296,0.299-0.449c0.05-0.146,0.791-0.344,0.936-0.541c0.153-0.201,0.643-0.395,0.643-0.395l0.545,0.099
		c0,0,0.298-0.251,0.398-0.45c0.1-0.19,0.295-0.29,0.295-0.29s0.195,0.344,0.496,0.29c0.297-0.044,0.147-0.486,0.244-0.688
		c0.104-0.195,0.104-0.394,0.15-0.54c0.049-0.149,0-0.348,0-0.545c0-0.199,0.049-0.496,0.242-0.595
		c0.201-0.102,0.447-0.049,0.643-1.235C234.889,53.968,234.638,54.905,234.541,54.561z"/>
	<path fill="#F47D6E" d="M235.185,40.821c-0.249-0.049-0.499,0.693-0.547,0.842c-0.047,0.146-0.098,0.441-0.245,0.838
		s0.147,0.594,0.345,0.892c0.198,0.294,0.102,0.444,0.049,1.139c-0.049,0.688-0.147,0.987-0.344,1.381
		c-0.197,0.396,0.049,0.447,0.1,0.791s0,0.843-0.1,1.138c-0.102,0.299,0.243,0.987,0.243,0.987c-0.048-0.145,0.25-0.346,0.547-0.346
		s0.445,0.493,0.445,0.493s0.146-0.195,0.146-0.543c0-0.349-0.248-0.294-0.492-0.396c-0.248-0.096-0.146-0.69-0.146-0.69
		s0-0.544,0.048-0.939c0.052-0.395,0.101-0.447,0.445-0.594c0.348-0.148,0.739,0.296,0.739,0c0-0.295-0.293-0.742-0.393-0.987
		c-0.102-0.248-0.201-0.794-0.246-1.287c-0.052-0.492,0-0.346-0.25-0.838c-0.246-0.495-0.146-0.794-0.146-1.038
		C235.382,41.413,235.432,40.869,235.185,40.821z"/>
	<path fill="#F47D6E" d="M237.16,51.301c0-0.299,0-0.646-0.293-0.299c-0.3,0.348-0.793-0.297-1.238-0.395
		c-0.443-0.098-0.494-0.248-0.642-0.642c-0.147-0.396-0.595-0.593-0.646-0.345c-0.045,0.242-0.045,1.034-0.045,1.284
		c0,0.247,0.045,0.444-0.152,0.74c-0.193,0.295-0.641-0.199-0.641-0.199s-0.25,0.545-0.496,0.595
		c-0.245,0.05-0.293,0.442-0.098,0.541c0.195,0.102,0,0.545,0,0.545c0.594,0.151,0.844-0.096,0.844-0.096s0-0.252,0.047-0.396
		c0.05-0.151,0.541-0.199,0.938-0.447c0.396-0.247,0.547,0.495,0.694,0.693c0.146,0.195,0.348-0.397,0.394-0.693
		c0.049-0.293,0.547-0.347,0.891-0.293c0.347,0.046,0.789,0,0.644-0.201C237.208,51.496,237.16,51.593,237.16,51.301z"/>
	<path fill="#51A7B3" d="M163.945,52.866c0.023,0.045,0.039,0.064,0.039,0.064C163.977,52.905,163.962,52.884,163.945,52.866z"/>
	<path opacity="0.5" fill="#51A7B3" enable-background="new    " d="M163.945,52.866c0.023,0.045,0.039,0.064,0.039,0.064
		C163.977,52.905,163.962,52.884,163.945,52.866z"/>
</g>
</svg>
