<?xml version="1.0" encoding="utf-8"?>
<!-- Generator: Adobe Illustrator 16.2.0, SVG Export Plug-In . SVG Version: 6.00 Build 0)  -->
<!DOCTYPE svg PUBLIC "-//W3C//DTD SVG 1.1//EN" "http://www.w3.org/Graphics/SVG/1.1/DTD/svg11.dtd">
<svg version="1.1" id="Layer_1" xmlns="http://www.w3.org/2000/svg" xmlns:xlink="http://www.w3.org/1999/xlink" x="0px" y="0px"
	 width="271.074px" height="125.486px" viewBox="0 0 271.074 125.486" enable-background="new 0 0 271.074 125.486"
	 xml:space="preserve">
<path fill="#B8D7E5" d="M212.645,106.904c0,0,0.495-0.596,0.101-1.089s-0.197-0.79,0.099-1.582c0.297-0.788,0.792-0.292,1.086-0.788
	c0.3-0.497,0.594-1.189,1.483-1.189s1.58,0.199,2.178-0.393c0.592-0.594,1.48-0.301,1.58-0.99c0.101-0.692-0.199-1.383,0.494-1.68
	c0.691-0.297,0.297,1.188,0.895,0.594c0.588-0.594,0.291-0.594,0.684-1.187c0.399-0.595,0.303-1.186,1.092-1.284
	c0.791-0.101,1.479,0.096,1.58,0.689c0.103,0.595,0.89,0.891,1.188,0.195c0.295-0.693-0.396-0.693,0.198-1.085
	c0.589-0.395,0.197-0.891,0.887-1.089c0.691-0.196,1.285-0.591,0.594-0.89c-0.693-0.294,0.492-0.593,1.09-0.195
	c0.59,0.392,0.098,0.889,1.088,0.889s0.985-0.592,1.479-0.199c0.496,0.396,0.594,0.892-0.195,1.287
	c-0.791,0.396-1.484,0.79-0.986,1.282c0.494,0.497,0.59,0.398,1.084,0.594c0.494,0.196,1.486,0.694,1.979,0.892
	c0.495,0.194,0.689,0.794,1.188,0.194c0.492-0.593,0.793-1.28,0.793-1.875s0.49-0.297,0.195-1.283c-0.299-0.988-0.393-1.584,0-1.877
	c0.396-0.3,1.084,0.293,1.084,0.985c0,0.691-0.492,1.088,0.203,1.677c0.688,0.6,1.579-0.191,1.68,0.498
	c0.1,0.692-0.892,0.595-0.197,1.681c0.689,1.09,0.494,1.977,1.085,1.977c0.596,0,0.694-0.591,1.385,0.102
	c0.692,0.69,0,0.789,0.396,1.481c0.394,0.695,0.893,0.99,1.383,1.187c0.494,0.196,0.695-0.198,1.088,0.991
	c0.396,1.183-0.297,1.775,0.297,2.966c0.594,1.184,0.693,0.786,0.296,1.679c-0.396,0.891,0.399,0-0.396,0.891
	c-0.791,0.889-1.186,1.186-1.186,1.878c0,0.691-0.396,1.187-0.691,2.073c-0.299,0.891-0.096,0.79-0.299,1.482
	c-0.195,0.69-0.688,0.201-1.285,0.397c-0.59,0.197-0.789,0.688-1.086,0.987s-0.986,0.396-1.184-0.299
	c-0.197-0.688,0.096-1.58-0.597-0.789c-0.688,0.789-0.79,1.088-1.087,1.088s-0.297-0.199-0.988-0.694
	c-0.689-0.489-0.891,0.2-1.387-0.69c-0.492-0.891-0.391-1.682-0.391-1.682s0.887-0.391,0-0.984
	c-0.893-0.598-1.484,0.888-1.979,0.396c-0.493-0.495,1.087-1.882,0.194-1.783c-0.883,0.103-0.295,0.595-0.883,0.892
	c-0.598,0.299-0.99-0.101-1.287-0.297c-0.297-0.193,0.094-0.492-0.496-0.89c-0.592-0.391-0.592-0.59-1.285-0.59
	c-0.692,0-1.579-0.495-2.373-0.104c-0.79,0.398-1.776,0.596-2.668,0.596c-0.891,0-0.692,0.199-0.989,0.693
	c-0.291,0.491,0.396,0.988-0.593,0.891c-0.986-0.103-1.383-0.299-1.877-0.299c-0.495,0-1.387,0.396-1.387,0.396s0,0.893-0.791,0.396
	c-0.789-0.494-1.188-0.101-1.48-0.101c-0.299,0-0.988-0.395-0.891-0.889c0.098-0.493,1.385,0.494,0.891-0.891
	c-0.493-1.386-0.891-2.075-1.188-2.373c-0.293-0.299,0.496-1.086,0.102-1.381C213.242,108.09,212.645,106.904,212.645,106.904z"/>
<path fill="#B8D7E5" d="M226.186,87.427c0,0,0.048-0.396,0.446-0.396c0.396,0-0.051-0.54,0.789-0.246
	c0.842,0.299,1.139,0.549,1.186,0.697c0.055,0.143,0,0.292,0,0.641c0,0.345,0.102,0.541,0.352,0.688
	c0.244,0.15,0.592,0.396,0.791,0.15c0.195-0.246,0.543-0.645,0.543-0.645s0.047-0.443,0.539-0.492
	c0.496-0.052,0.894,0.096,1.096,0.196c0.193,0.101,2.615,0.789,2.76,0.841c0.152,0.049,0.398,0,0.794,0.294
	c0.394,0.296,0.694,0.499,1.188,0.794c0.492,0.296,0.69,0.74,1.187,0.889c0.492,0.149,0.593-0.544,1.235-0.347
	c0.642,0.198,0.445,0.396,0.89,0.347c0.444-0.046,0.541,0.197,1.04,0c0.49-0.194,0.736-0.442,0.889-0.741
	c0.145-0.293,0.344-1.136,0.394-0.441c0.054,0.688-0.195,1.039-0.345,1.232c-0.148,0.196-0.643,0.494-0.791,0.494
	c-0.146,0-0.597-0.049-0.742-0.049s-0.543-0.298-0.889,0.049c-0.35,0.348-0.494,0.448-0.545,0.693
	c-0.048,0.245,0.25,0.491,0.25,0.491s-0.693-0.101,0.24,0.595c0.943,0.69,0.797,0.941,1.336,0.941c0.547,0,0.794-0.202,0.743,0.146
	c-0.05,0.346-0.892,0.495-1.039,0.495s-0.642-0.149-0.892-0.299c-0.242-0.146-0.443-0.196-0.688-0.295
	c-0.25-0.1-0.197-0.497-0.844-1.088c-0.641-0.597-1.137-0.644-1.432-0.597c-0.301,0.054-1.582,0.199-1.383,0.444
	c0.195,0.25,0.641,0.25,0.195,0.497c-0.445,0.245-1.139,0.197-1.286,0.149c-0.149-0.052-0.589-0.198-0.735-0.35
	c-0.154-0.146,0.097-0.543-0.451-0.494c-0.541,0.051-0.391,0.102-0.986,0.249c-0.593,0.146-1.234,0.048-0.99-0.249
	c0.25-0.295,1.533-0.741,1.438-1.136c-0.102-0.396,0-0.396-0.252-0.741c-0.242-0.347-1.922-0.741-1.922-0.741
	s-0.94-0.198-1.09-0.246c-0.148-0.048-0.693-0.694-0.693-0.694s-0.293-0.245-0.494,0.249c-0.194,0.493-0.594,0.397-0.594,0.397
	s-0.441-0.055-0.346-0.352c0.102-0.296,0.25-0.642,0.049-0.642c-0.197,0-0.443-0.147-0.443-0.147l1.038-0.295l-0.739-0.447
	C226.979,87.922,226.287,88.318,226.186,87.427z"/>
</svg>
