<?xml version="1.0" encoding="utf-8"?>
<!-- Generator: Adobe Illustrator 16.2.0, SVG Export Plug-In . SVG Version: 6.00 Build 0)  -->
<!DOCTYPE svg PUBLIC "-//W3C//DTD SVG 1.1//EN" "http://www.w3.org/Graphics/SVG/1.1/DTD/svg11.dtd">
<svg version="1.1" id="Layer_1" xmlns="http://www.w3.org/2000/svg" xmlns:xlink="http://www.w3.org/1999/xlink" x="0px" y="0px"
	 width="271.074px" height="125.486px" viewBox="0 0 271.074 125.486" enable-background="new 0 0 271.074 125.486"
	 xml:space="preserve">
<g>
	<g>
		<path fill="#B8D7E5" d="M165.393,77.744c-0.295-0.199-0.692-0.199-1.384,0.295c-0.688,0.494-1.877,0.294-2.471,0.197
			c-0.593-0.102-1.086,0.297-1.979-0.396c-0.888-0.69-0.097-1.386-0.985-1.879c-0.892-0.491-1.188-0.79-1.585-1.584
			c-0.394-0.788-0.688-1.086-1.284-1.479c-0.592-0.398-0.789-0.989-1.086-2.574c-0.297-1.576-1.386-3.65-1.976-4.445
			c-0.286-0.375-0.547-1.299-0.74-2.155c-0.214-0.937-0.347-1.798-0.347-1.798l-0.78,0.127l-0.405,0.069
			c0,0-2.373-0.296-3.459-0.393c-1.089-0.101-3.068-1.089-4.154-1.191c-1.088-0.095-0.594,1.191-1.383,1.686
			c-0.791,0.492,0,0-1.289,0c-1.283,0-0.984-0.197-1.58-0.69c-0.592-0.497-1.875-1.09-2.964-1.09c-1.088,0-0.595-0.991-0.299-2.077
			c0.299-1.086,0.498-0.986,0-1.086c-0.493-0.098-0.394-0.792-1.188-0.495c-0.788,0.298-1.578,0.097-1.975,0.199
			c-0.395,0.099-3.064,0.296-3.656,0.296c-0.595,0-1.582,0.789-2.274,0.991c-0.693,0.196-1.879,0.196-2.767-0.103
			c-0.892-0.295-0.596-0.594-0.892,0.103c-0.295,0.688-0.79,1.773-1.481,1.875c-0.694,0.101-1.384,1.187-1.384,1.977
			c0,0.794,0,1.579-0.888,1.782c-0.894,0.195-2.174,1.678-2.573,2.568c-0.393,0.89-1.186,1.68-1.975,2.475
			c-0.794,0.788,0.099,1.58,0.492,2.468c0.397,0.892-0.297,0.691-0.196,1.782c0.097,1.085-0.79,1.775-0.79,1.775
			c0.689,0.396,0.593,1.286,0.593,1.286c-0.396,0.892,0.294,0.693,1.088,1.384c0.788,0.689,1.281,1.088,1.481,2.178
			c0.197,1.086,1.88,1.479,2.667,2.269c0.79,0.794,0.79,1.291,1.881,0.794c1.085-0.491,2.666-0.396,3.655-0.1
			c0.992,0.295,2.174-0.694,3.064-1.086c0.89-0.398,1.978,0,2.77,0.492c0.79,0.496-0.497,0.692,0.492,0.792
			c0.987,0.097,1.386-0.198,2.275,0.491c0.888,0.692,0.494,1.782-0.1,2.771c-0.593,0.988,0.396,2.074,1.579,2.473
			c1.188,0.394-0.098,0.689,0.894,1.976c0.986,1.283,0.293,2.472,0.789,2.964c0.494,0.497,0.197,1.978-0.593,2.966
			c-0.792,0.988-0.396,2.572,0.098,4.058c0.495,1.479,1.682,3.852,1.78,4.84c0.099,0.987,1.285,3.065,1.878,4.149
			c0.596,1.09,0.496,3.265,0.893,3.562c0.394,0.299,1.774,0.793,2.47,0.396c0.692-0.396,1.78-0.297,2.767-0.297
			c0.989,0,1.783-1.187,2.672-1.98c0.889-0.788,0.889-1.081,1.779-1.877c0.889-0.787,0.789-0.985,0.789-2.072
			c0-1.09,1.09-1.482,1.977-1.778c0.891-0.298,0.396-1.679-0.1-2.568c-0.493-0.894-0.295-0.597,0.598-1.979
			c0.887-1.386,1.975-1.582,3.264-2.276c1.281-0.688-0.2-1.579,0.193-2.964c0.396-1.382-0.496-1.581-0.395-2.569
			c0.096-0.987-0.396-1.384-0.594-2.078c-0.195-0.69,0.594-1.576,0.986-2.271c0.396-0.69,0.989-1.68,1.979-2.473
			c0.987-0.791,2.569-1.78,4.054-3.558C164.804,81.104,165.688,77.938,165.393,77.744z"/>
		<path fill="#9CD4E2" d="M159.908,105.518c0,0,0.299-0.443,0-1.777c-0.299-1.337-0.443-1.484,0-1.926
			c0.443-0.449-1.074-2.822,0.131-2.967c1.207-0.148,1.399,0,2.119-0.74c0.713-0.742,1.606-1.039,1.606-1.783
			c0-0.74,1.674,1.041,1.204,1.635c-0.467,0.595-0.615,1.033-0.615,1.631c0,0.591-0.741,1.629-0.741,2.073s0,1.782,0,1.782
			s-0.144,1.877-0.741,2.072C161.093,106.113,159.908,107.3,159.908,105.518z"/>
	</g>
</g>
</svg>
