<?xml version="1.0" encoding="utf-8"?>
<!-- Generator: Adobe Illustrator 16.2.0, SVG Export Plug-In . SVG Version: 6.00 Build 0)  -->
<!DOCTYPE svg PUBLIC "-//W3C//DTD SVG 1.1//EN" "http://www.w3.org/Graphics/SVG/1.1/DTD/svg11.dtd">
<svg version="1.1" id="Layer_1" xmlns="http://www.w3.org/2000/svg" xmlns:xlink="http://www.w3.org/1999/xlink" x="0px" y="0px"
	 width="271.072px" height="133.305px" viewBox="0 0 271.072 133.305" enable-background="new 0 0 271.072 133.305"
	 xml:space="preserve">
<g>
	<path fill="#AF1F23" d="M67.432,79.914c0,0,0.987,0.992,0.891,1.981c-0.103,0.987,0.594,1.577-0.103,2.174
		c-0.691,0.59-1.774,1.579-1.975,2.272c-0.197,0.689-0.69,1.879-0.1,2.077c0.595,0.197-1.187,0.79-0.59,1.778
		c0.59,0.986,1.185,1.682,1.68,2.769c0.495,1.088,1.876,3.261,2.073,4.151c0.197,0.89,0.595,0.89,1.584,1.483
		c0.986,0.593,2.47,1.683,2.47,1.683s0.396,2.466,0,4.843c-0.394,2.371-0.493,3.755-0.69,4.345c-0.201,0.597,0,3.461-0.991,5.538
		c-0.989,2.074-0.592,2.964-0.692,4.351c-0.097,1.379-0.69,1.977-0.297,2.074c0.397,0.1,0.694-1.979,0.989-1.186
		c0.297,0.791-0.099,1.484-0.39,2.271c-0.302,0.794-0.202,1.09-0.992,1.584c-0.794,0.497-0.991,0.688-0.495,0.988
		c0.495,0.296,0.596,1.883,0.495,2.57c-0.101,0.693-0.396,1.086,0.101,1.484c0.492,0.396,0.985,0.791,0.985,1.284
		s0.593,0.692,1.085,0.79c0.497,0.098,0.298,0.988,0.595,1.187c0.296,0.194,1.086,0.792,1.977,0.889
		c0.894,0.101,2.669-0.694,3.061-0.694c0.402,0-2.665-0.887-3.061-1.875c-0.398-0.986,0.099-1.087-0.692-1.484
		c-0.788-0.393,0.495-1.282,0.891-1.682c0.392-0.391,1.68-1.184,1.78-2.074c0.097-0.886-2.075-0.786-1.19-1.681
		c0.891-0.889,1.287-1.086,1.782-1.781c0.491-0.688,0-1.776,0.591-2.665c0.596-0.887,1.583-0.493,1.979-1.682
		c0.396-1.184,1.78,0.1,2.769-0.787c0.985-0.896,0.985-1.389,0.694-1.783c-0.295-0.396-0.597-1.879-0.597-1.879
		s1.882,0.991,2.67,0.299c0.791-0.691,1.975-1.979,2.669-2.869c0.689-0.889,0.991-1.777,1.58-2.373
		c0.595-0.593-0.392-1.184,0.493-2.271c0.891-1.088,2.868-2.072,4.058-2.072c1.184,0,1.086-0.595,1.48-1.389
		c0.396-0.791,0.396-1.776,0.791-3.063c0.398-1.288,0.398-3.462,1.285-3.857c0.889-0.393,1.289-1.779,1.585-2.173
		c0.293-0.396,1.383-3.063,0.195-3.46c-1.187-0.395-2.077-0.891-3.362-1.283c-1.285-0.398-3.954-0.891-4.543-1.686
		c-0.597-0.787-1.386-0.097-2.076,0c-0.695,0.102-0.102-0.787-1.485-0.392c0,0,0.79-0.693,0.891-1.286
		c0.101-0.59-0.496-1.68-1.584-2.57c-1.086-0.888-2.369-0.396-3.853-1.385c-1.482-0.986-1.979-2.174-2.765-2.174
		c-0.794,0-0.698-0.592-1.488-1.089c-0.789-0.493-2.172,0.796-3.26,0c-1.086-0.789-1.584-0.195-2.077-0.69
		c-0.492-0.492-1.679,0.493-1.977,0.493c-0.296,0,0.987-1.679,0.197-1.187c-0.79,0.494-2.272,0.891-2.765,1.484
		c-0.494,0.593-0.694,1.781-1.58,1.383C67.235,79.225,67.136,79.52,67.432,79.914z"/>
</g>
<g>
</g>
<g>
</g>
<g>
</g>
<g>
</g>
<g>
</g>
<g>
</g>
</svg>
