<?xml version="1.0" encoding="utf-8"?>
<!-- Generator: Adobe Illustrator 16.2.0, SVG Export Plug-In . SVG Version: 6.00 Build 0)  -->
<!DOCTYPE svg PUBLIC "-//W3C//DTD SVG 1.1//EN" "http://www.w3.org/Graphics/SVG/1.1/DTD/svg11.dtd">
<svg version="1.1" id="Layer_1" xmlns="http://www.w3.org/2000/svg" xmlns:xlink="http://www.w3.org/1999/xlink" x="0px" y="0px"
	 width="271.073px" height="125.486px" viewBox="0 0 271.073 125.486" enable-background="new 0 0 271.073 125.486"
	 xml:space="preserve">
<g>
	<path fill="#51A7B3" d="M163.945,52.866c0.023,0.045,0.039,0.064,0.039,0.064C163.977,52.905,163.962,52.884,163.945,52.866z"/>
	<path opacity="0.5" fill="#51A7B3" d="M163.945,52.866c0.023,0.045,0.039,0.064,0.039,0.064
		C163.977,52.905,163.962,52.884,163.945,52.866z"/>
</g>
<path opacity="0.5" fill="#2EB1B5" d="M183.703,18.036c-0.254-0.131-0.062-0.035,0.196,0.19
	C183.86,18.152,183.804,18.087,183.703,18.036z"/>
<path opacity="0.5" fill="#2EB1B5" d="M135.988,55.697c-0.031-0.008-0.067-0.008-0.104,0.002
	C135.793,55.724,135.856,55.713,135.988,55.697z"/>
<path opacity="0.5" fill="#2EB1B5" d="M123.705,46.366c-0.034-0.008-0.079-0.008-0.125-0.008
	C123.386,46.358,123.478,46.36,123.705,46.366z"/>
<path fill="#2EB1B5" d="M150.939,61.925c0,0-0.07,0.054-0.163,0.127l0.78-0.127H150.939z"/>
<g>
	<path fill="#A7A6A6" d="M119.871,41.464c0,0-0.666-1.04-0.298-1.04c0.376,0,1.113,0.151,1.113-0.22c0-0.37-0.074-0.744,0.521-0.744
		c0.591,0,1.187,0.15,1.262,0.375c0.073,0.221,0.369,0.589,0.073,1.258c-0.297,0.667-0.595,0.667-0.445,1.183
		c0.148,0.522,0.297,0.892-0.37,0.892c-0.668,0-1.04-0.519-1.335-0.222c-0.296,0.298-0.892,0.593-1.113,0.149
		C119.058,42.648,120.167,41.906,119.871,41.464z"/>
	<path fill="#A7A6A6" d="M123.651,35.756c0,0-0.813,0.222-0.963,0.964c-0.146,0.742-0.071,1.482-0.071,1.482s0.071,0.22,0.589,0.594
		c0.523,0.371,0.671,0.518,0.374,0.964c-0.296,0.444,0.149-0.149,0.593,0.296c0.443,0.444,0.889,0.887,0.594,1.114
		c-0.299,0.219-1.407,0.367-1.187,0.736c0.221,0.369,0.742,0.742-0.073,1.111c-0.818,0.374,0,0.449,0.961,0.298
		c0.965-0.148,0.148,0.297-0.738,0.817c-0.892,0.52-1.112,0.965-1.112,0.965s0.89-0.147,1.556-0.445
		c0.667-0.299,1.335-0.668,1.854-0.668c0.52,0,1.63,0.446,1.851-0.298c0.227-0.74,0.521-0.371,0.375-1.411
		c-0.148-1.034-1.039-0.516-1.113-0.958c-0.075-0.449-0.593-1.262-1.187-1.333c-0.591-0.078-0.148-1.115-0.891-1.26
		c-0.739-0.152,0.594-0.824,0.446-1.56c-0.146-0.74-1.04-0.299-1.411-0.444C123.729,36.571,125.732,35.089,123.651,35.756z"/>
	<path fill="#A7A6A6" d="M171.546,21.592c0.148,0.819,1.113,0.892,1.71,1.488c0.589,0.589-0.45,1.111-1.039,1.406
		c-0.599,0.296,0.219-0.593-0.297-0.966c-0.521-0.369-1.186,0.592-1.781,0.373c-0.593-0.224-0.889,0.298-1.777,0.593
		c-0.891,0.296,0.293-1.186-0.891-0.891c-1.188,0.297-2.596,1.26-3.264,1.336c-0.666,0.073-1.479,1.483-2.298,1.11
		c-0.816-0.368,0.224-0.518,0.446-1.186c0.224-0.665-3.117-1.26-2.077-0.891c1.042,0.373-0.15,1.04,0.371,2.002
		c0.517,0.966-0.148,1.186-0.961,0.668c-0.821-0.518-1.114,0.669-1.632,0.815c-0.521,0.147-0.15,1.333-0.963,1.481
		c-0.817,0.153-0.967-0.515-1.856-0.515c-0.891,0,0.519,1.182-0.294,1.182c-0.818,0-0.818-0.145-1.263-0.667
		c-0.447-0.515-0.447-1.037-0.593-1.559c-0.149-0.518-1.632-1.183-1.037-1.332c0.593-0.148,3.556,0.892,4.817,0.892
		c1.26,0,1.483-0.892,1.26-1.558c-0.222-0.668-2.891-1.926-3.853-2.003c-0.967-0.071-1.188-0.145-1.707-0.665
		c-0.518-0.518-1.558-0.222-2.518-0.444c-0.969-0.22,0.071-1.26-0.451-1.484c-0.518-0.22-0.958,0.149-1.775,0.445
		c-0.818,0.295,0.075-0.594-0.818-0.891c-0.89-0.294-0.963,0.595-1.703,0.595c-0.742,0-1.706,1.037-2.297,0.965
		c-0.594-0.077-0.967-0.077-1.632,0.519c-0.67,0.59-1.11,1.037-1.781,1.037c-0.667,0-0.368,0.516-0.667,1.109
		c-0.296,0.593-1.19,1.115-1.707,1.409c-0.516,0.301-0.961,2.301-1.479,2.451c-0.521,0.146-1.041,0.668-1.336,1.553
		c-0.296,0.891-2.147,0.966-2.968,1.337c-0.813,0.371,0.077,1.036-0.146,1.556c-0.223,0.516,0.295,0.817,0.224,1.63
		c-0.077,0.818-0.52,1.111-0.52,1.111s0.591,0.593,1.41,0.819c0.814,0.218,0.886-0.446,1.556-0.744
		c0.665-0.298,0.444,0.297,0.739-0.591c0.299-0.893,0.819-0.223,0.965,0.667c0.147,0.887,0.076,1.48,0.74,2.145
		c0.671,0.671,0.074,0.968,0.671,1.266c0.589,0.293,0.737-0.745,1.258-0.523c0.519,0.226,1.111-0.147,1.039-0.812
		c-0.074-0.667-0.374-1.707,0.295-1.854c0.668-0.149,1.259-0.744,1.336-1.26c0.071-0.521-0.668-0.889-1.041-1.038
		c-0.369-0.15,0.226-0.89,0.075-1.483c-0.146-0.593,1.261-2.077,1.927-2.153c0.669-0.073,0.965-0.958,1.262-1.928
		c0.298-0.962,1.855-1.035,2.077-0.887c0.225,0.145,0.74,0.295,0.74,1.189c0,0.888-2,1.999-2.371,2.071
		c-0.371,0.077-0.891,0.595-0.666,1.262c0.22,0.671-0.225,1.629-0.225,1.629s0.665,0.375,1.187,0.67
		c0.521,0.296,1.113,0.296,1.999-0.073c0.892-0.371,2.522-0.742,2.522-0.296c0,0.445,1.704,0.517,1.037,0.738
		c-0.664,0.222-1.037,0.3-1.259,0.671c-0.223,0.371-0.816-0.149-0.816-0.149s-1.853,0-2.37,0.074
		c-0.521,0.075-0.521,1.26,0.222,1.26c0.74,0,0.146,1.111-0.297,1.335c-0.445,0.223-0.518-0.52-0.963-0.665
		c-0.446-0.149-1.037,0.956-1.037,0.956s0.44,1.413-0.225,1.71c-0.667,0.296-0.073,0.889-0.964,0.964
		c-0.892,0.071-0.593-0.371-0.814-0.444c-0.224-0.075-1.929,0.222-2.301,0.515c-0.369,0.296-1.038,0.296-1.483-0.222
		c-0.441-0.518-1.035,0-1.407,0.298c-0.371,0.295-1.038-0.298-1.556-0.518c-0.52-0.22,0.222-1.111,0.443-1.782
		c0.221-0.668,0.299-1.702,0.221-1.406c-0.071,0.296-0.812,0.22-1.257,0.518c-0.444,0.298-0.741,1.263-0.444,1.482
		c0.295,0.223,0.666,1.041,0.518,1.854c-0.149,0.818-0.592,0.595-1.479,0.449c-0.892-0.147-0.672,0.889-0.967,1.331
		c-0.296,0.446-0.744-0.589-0.892,0c-0.148,0.595-0.295,0.818-0.959,1.188c-0.671,0.371-1.042-0.224-1.188,0.593
		c-0.148,0.817-0.596,0.592-1.039,0.96c-0.444,0.373-1.187-0.368-1.409-0.22c-0.225,0.147,0.369,0.815,0.073,1.04
		c-0.21,0.157-1.611,0.167-2.172,0.157c0.485,0.075,0.175,0.616,1.21,1.029c1.111,0.445,0.817,0.885,1.335,1.409
		c0.519,0.52,0.148,2.075-0.446,2.444c-0.591,0.374-2.671-0.295-2.671-0.295s-1.406-0.222-2.146,0.076
		c-0.743,0.295-1.188,0.295-0.82,0.962c0.374,0.669,0.225,1.705,0.077,2.297c-0.148,0.597-0.077,0.817,0.221,1.482
		c0.298,0.669-0.666,0.814-0.073,1.188c0.596,0.369,1.335-0.15,1.335-0.15c0.443-0.224,0.962,0.741,1.183,0.741
		c0.224,0,0.598-0.071,0.968-0.442c0.372-0.371,1.556-0.523,2.296-0.595c0.743-0.073,0.446-0.369,0.669-1.111
		c0.222-0.742,0.297-0.516,0.442-1.334c0.151-0.816,1.264-1.036,1.779-1.036c0.521,0,0.447-0.595,0.447-1.337
		c0-0.74,1.261-0.298,1.63-0.149c0.373,0.149,0.962-0.295,1.929-1.11c0.964-0.813,1.408,0.077,1.63,0.222
		c0.221,0.149,0.221,0.669,0.443,0.889c0.226,0.223,0.521,0.667,1.187,1.116c0.671,0.444,0.448,0,0.966,0.293
		c0.518,0.297,0.44,0.521,1.407,1.262c0.965,0.742,0.149,0.593,0.076,0.964c-0.076,0.371-0.74,0.52-1.41,0.444
		c-0.448-0.05-1.095,0.035-1.38,0.074c0.206,0.044,0.261,0.44,0.715,0.887c0.516,0.523,1.559,0.965,1.335,0.152
		c-0.226-0.817,0.74-0.593,1.406-1.038c0.668-0.446-0.072-0.669,0.075-1.187c0.147-0.52,1.11-0.224,0.891-0.595
		c-0.223-0.373-0.668-0.74-1.412-1.036c-0.736-0.299-0.665-0.446-0.665-0.891c0-0.447-0.816-0.742-1.258-1.038
		c-0.444-0.298-0.444-0.52-0.746-0.815c-0.293-0.296,0.374-0.813,0.521-1.038c0.149-0.224,1.411,0.296,1.556,0.814
		c0.148,0.52,0.818,1.481,1.857,1.63c1.034,0.149,0.961,0.742,1.11,1.188c0.146,0.445-0.222,1.04,0.889,1.852
		c1.111,0.817-0.148,0.668-0.148,1.186c0,0.518,0.594,1.558,1.04,1.26c0.442-0.293,0.369-0.887,0.962-0.887s1.557,0.665,1.482,0.22
		c-0.071-0.444-0.296-0.444-0.817-0.813c-0.516-0.371-0.516-0.298-0.516-0.818c0-0.518,0.443-0.074,0.37-0.444
		c-0.075-0.371,0.37-0.222,0.594-0.446c0.22-0.22,0.594-0.146,1.335,0.15c0,0,1.851,0.368,1.925,0
		c0.074-0.371,0.538-0.666,0.974-0.742c0.437-0.073,0.437,0,0.73,0c0.296,0,0.374,0.379,0.817-0.033
		c0.445-0.414,0.071-0.709,0.666-0.782c0.594-0.074,0.818,0,1.188,0s1.335,0.146,1.482,0.369c0.148,0.227,0.371,0.597,0.891,0.67
		c0.519,0.07,1.482,0.07,1.703,0c0.135-0.042,0.825-0.241,1.376-0.397l0.009-0.673c0,0-0.298-0.51-0.493-0.61
		c-0.197-0.101-0.79-0.576-0.79-0.576s0.69-0.066,0.938,0.031c0.249,0.1,1.086-0.097,1.235,0c0.147,0.1,0.693,0.396,0.842,0.396
		c0.149,0,0.938,0.197,1.188,0.249c0.242,0.046,0.984,0.838,1.576,1.183c0.597,0.348,0.5-0.046,0.647-0.147
		c0.144-0.099,0.443-0.197,0.516,0c0,0-0.818-1.268-0.818-1.731c0-0.468-1.354-0.988-1.008-1.285
		c0.345-0.292,0.834-0.518,0.883-1.258c0.055-0.744,0.868,1.26,1.39-0.518c-0.298-0.298-0.298-0.668-0.298-1.04
		s-0.592-0.665-0.592-0.665l-0.52,0.44l-0.666-0.593c0,0-0.446-0.518,0-0.964c0.443-0.442,0.443-1.036,0.443-1.036
		s1.259,0.594,1.555,0.594c0.298,0,0.375-0.962,0.375-0.962l0.369-0.521c0,0,0.814,0.294,1.037,0c0,0-0.667-1.333,0-1.781
		c0.671-0.441,0.742-0.812,1.111-1.036c0.373-0.222,0.669-1.041,0.669-1.337c0-0.294,0.22-0.442,0-1.111
		c-0.225-0.665-0.225-0.665-0.225-1.407c0-0.742-1.26-0.222-0.148-1.486c1.112-1.258,2.227-1.855,2.597-2
		c0.369-0.149,1.407,0.073,1.556-0.597c0.15-0.665,0.375-2.072,0.446-2.518c0.076-0.445,0.295-1.115,0.665-1.483
		c0.375-0.369,1.039-0.893,1.485-1.113c0.445-0.22,1.48-0.889,1.707-1.109c0.22-0.224,0.665-0.742,0.665-0.742s0.517-0.818,0-0.966
		c-0.521-0.149-0.225-0.595-0.296-1.111c-0.073-0.516-0.293-0.095-0.369-0.643l0,0c-0.791-0.276-1.593-0.146-2.45-0.541
		C172.586,21.965,171.398,20.778,171.546,21.592z"/>
	<path fill="#A7A6A6" d="M170.288,21.298c0,0-2.225,0.174-2.967-1.024c-0.741-1.2-1.039-1.02,0-2.295
		c1.04-1.277,1.148-1.871,1.148-1.871s1.522-1.333,1.818-1.634c0.297-0.294,1.088,0.494,1.483,0c1.187-1.477,1.484-1.627,1.93-1.627
		c0.439,0,1.379,0,1.379,0s0.691,0.742,1.138,0c0.445-0.74,2.446-0.889,2.705-0.595c0.261,0.3,0,1.042,0,1.042l-2.031,0.295
		c0,0-1.316-0.295-1.812,0.294c-0.493,0.592-1.235,0.893-1.235,0.893s-1.335,0.147-2.073,1.185
		c-0.742,1.038-1.779,1.718-1.779,2.267C169.992,18.778,169.026,21.002,170.288,21.298z"/>
	<path fill="#A7A6A6" d="M110.38,29.75c0,0,0.892-1.037,0-1.333c-0.887-0.302-0.887-0.302-0.887-0.302s-0.495-1.48,0.644-1.332
		c1.135,0.149,1.432,1.479,1.432,1.479s0.593-1.349,1.333-1.488c0.744-0.139,0.446-0.011,1.336,0c0.89,0.01,1.781-0.065,1.781-0.065
		s0.296,1.484,0.443,1.521c0.149,0.038,1.039,0.628,0,0.927c-1.037,0.298-2.124-0.299-2.766,0.593c-0.646,0.891-1.977,0-1.977,0
		H110.38z"/>
	<path fill="#A7A6A6" d="M137.664,10.904v-0.729c-0.887-0.444-1.381-0.591-1.381-0.591s-0.136-1.009-0.442-1.335
		c-0.698-0.74,0.34-1.557,0.913-1.335c1.508,0.595,2.817,0.742,2.817,0.742V6.879c1.354,0.035,2.099,0.63,2.099,0.63
		s0.444-1.333,1.038-1.333c0.593,0,1.48,0,1.48,0h1.189c0,0,0.149,0,1.187,0c1.035,0,2.172,0.145,1.9,0.591
		c-0.272,0.444-1.9,1.036-1.9,1.036c-1.929,0-1.929,0.876-2.376,0.736c-0.442-0.141-2.13-0.587-2.13-0.587l1.538,1.335
		c1.335,0,2.076-0.149,2.076,0.297c0,0.444-2.519,1.32-2.519,1.32c-0.742-0.875-0.742-0.875-0.742-0.875s1.334-1.038,0,0
		c-1.338,1.038-2.564,1.938-2.841,2.079c0,0-1.184-0.218-1.461-0.595"/>
</g>
<g>
</g>
<g>
</g>
<g>
</g>
<g>
</g>
<g>
</g>
<g>
</g>
</svg>
