<?xml version="1.0" encoding="utf-8"?>
<!-- Generator: Adobe Illustrator 16.2.0, SVG Export Plug-In . SVG Version: 6.00 Build 0)  -->
<!DOCTYPE svg PUBLIC "-//W3C//DTD SVG 1.1//EN" "http://www.w3.org/Graphics/SVG/1.1/DTD/svg11.dtd">
<svg version="1.1" id="Layer_1" xmlns="http://www.w3.org/2000/svg" xmlns:xlink="http://www.w3.org/1999/xlink" x="0px" y="0px"
	 width="15.077px" height="37.134px" viewBox="0 0 15.077 37.134" enable-background="new 0 0 15.077 37.134" xml:space="preserve">
<g>
	<g>
		<path fill="#B8D7E5" d="M7.881,10.534c0.374,0,0.747-0.062,1.183-0.124c2.803-0.623,4.61-3.488,3.987-6.292
			c-0.312-1.37-1.122-2.554-2.305-3.301C9.563,0.069,8.13-0.18,6.76,0.131C3.957,0.754,2.15,3.62,2.773,6.422
			C3.272,8.915,5.452,10.534,7.881,10.534z M9.813,2.187c0.809,0.498,1.433,1.37,1.619,2.305c0.436,1.993-0.81,3.925-2.803,4.423
			c-1.993,0.437-3.924-0.81-4.423-2.803C3.77,4.118,5.016,2.187,7.009,1.689c0.248-0.063,0.56-0.063,0.81-0.063
			C8.566,1.626,9.251,1.813,9.813,2.187z"/>
		<path fill="#B8D7E5" d="M10.996,11.905H4.704c-2.242,0-4.049,1.807-4.049,4.049v7.163c0,1.993,0.873,3.426,2.305,3.862
			l-2.927,9.097c-0.125,0.436,0.125,0.871,0.498,0.996c0.062,0,0.187,0.063,0.249,0.063c0.312,0,0.623-0.188,0.748-0.561
			l0.062-0.249l3.176-9.72c0.063-0.249,0.063-0.498-0.124-0.685c-0.125-0.188-0.374-0.312-0.623-0.312
			c-1.557,0-1.744-1.558-1.744-2.43v-7.226c0-1.37,1.121-2.43,2.429-2.43h6.292c1.37,0,2.429,1.121,2.429,2.43v7.163
			c0,2.118-1.121,2.429-1.745,2.429c-0.249,0-0.498,0.125-0.623,0.312c-0.125,0.188-0.187,0.437-0.125,0.686l2.492,9.782
			l0.062,0.187c0.125,0.436,0.561,0.686,0.997,0.561s0.685-0.561,0.561-0.996l-2.368-9.097c1.434-0.437,2.368-1.869,2.368-3.862
			v-7.163C15.045,13.711,13.238,11.905,10.996,11.905z"/>
	</g>
</g>
<g>
</g>
<g>
</g>
<g>
</g>
<g>
</g>
<g>
</g>
<g>
</g>
</svg>
