<?xml version="1.0" encoding="utf-8"?>
<!-- Generator: Adobe Illustrator 16.2.0, SVG Export Plug-In . SVG Version: 6.00 Build 0)  -->
<!DOCTYPE svg PUBLIC "-//W3C//DTD SVG 1.1//EN" "http://www.w3.org/Graphics/SVG/1.1/DTD/svg11.dtd">
<svg version="1.1" id="Layer_1" xmlns="http://www.w3.org/2000/svg" xmlns:xlink="http://www.w3.org/1999/xlink" x="0px" y="0px"
	 width="10.75px" height="30.599px" viewBox="0 0 10.75 30.599" enable-background="new 0 0 10.75 30.599" xml:space="preserve">
<g>
	<g>
		<g>
			<path fill="#C03529" d="M5.445,4.639c1.283,0,2.323-1.04,2.323-2.319C7.768,1.039,6.728,0,5.445,0
				c-1.28,0-2.316,1.039-2.316,2.32C3.128,3.6,4.165,4.639,5.445,4.639z M10.745,7.616c0-1.167-0.949-2.114-2.115-2.114H2.114
				C0.948,5.502,0,6.448,0,7.616l0.006,8.536c0,0.512,0.414,0.926,0.923,0.926s0.923-0.414,0.923-0.926V8.352h0.389v20.863
				c0,0.765,0.619,1.384,1.387,1.384c0.761,0,1.381-0.619,1.381-1.384V17.79h0.755v11.422c0,0.766,0.619,1.387,1.387,1.387
				c0.759,0,1.378-0.621,1.378-1.387V8.352h0.373v7.768c0,0.512,0.413,0.927,0.923,0.927c0.512,0,0.926-0.415,0.926-0.927
				L10.745,7.616z"/>
		</g>
	</g>
	<g>
		<g>
			<path fill="#FFFFFF" d="M3.408,11.279V10.82c0-0.035-0.029-0.064-0.064-0.064s-0.063,0.029-0.063,0.064v0.459
				c-0.298,0.015-0.515,0.134-0.515,0.289v2.881c0,0.166,0.249,0.291,0.578,0.291c0.33,0,0.579-0.125,0.579-0.291v-2.881
				C3.923,11.414,3.706,11.294,3.408,11.279L3.408,11.279z M3.281,11.407v0.161c0,0.035,0.028,0.064,0.063,0.064
				s0.064-0.029,0.064-0.064v-0.161c0.238,0.014,0.387,0.1,0.387,0.161c0,0.066-0.176,0.163-0.451,0.163
				c-0.275,0-0.451-0.096-0.451-0.163C2.894,11.507,3.042,11.421,3.281,11.407L3.281,11.407z M3.344,14.612
				c-0.275,0-0.451-0.097-0.451-0.163v-2.695c0.104,0.064,0.265,0.104,0.451,0.104c0.186,0,0.346-0.04,0.451-0.104v2.695
				C3.795,14.515,3.62,14.612,3.344,14.612L3.344,14.612z M3.344,14.612"/>
			<path fill="#FFFFFF" d="M3.674,12.258c-0.035,0-0.064,0.028-0.064,0.063v2.024c0,0.036,0.029,0.064,0.064,0.064
				s0.064-0.029,0.064-0.064v-2.024C3.738,12.286,3.709,12.258,3.674,12.258L3.674,12.258z M3.674,12.258"/>
			<path fill="#FFFFFF" d="M3.674,11.909c-0.035,0-0.064,0.029-0.064,0.064v0.151c0,0.035,0.029,0.064,0.064,0.064
				s0.064-0.029,0.064-0.064v-0.151C3.738,11.938,3.709,11.909,3.674,11.909L3.674,11.909z M3.674,11.909"/>
		</g>
		<g>
			<path fill="#FFFFFF" d="M4.78,11.279V10.82c0-0.035-0.028-0.064-0.064-0.064c-0.035,0-0.063,0.029-0.063,0.064v0.459
				c-0.298,0.015-0.515,0.134-0.515,0.289v2.881c0,0.166,0.249,0.291,0.578,0.291c0.33,0,0.578-0.125,0.578-0.291v-2.881
				C5.294,11.414,5.078,11.294,4.78,11.279L4.78,11.279z M4.653,11.407v0.161c0,0.035,0.028,0.064,0.063,0.064
				c0.036,0,0.064-0.029,0.064-0.064v-0.161c0.238,0.014,0.387,0.1,0.387,0.161c0,0.066-0.175,0.163-0.451,0.163
				c-0.275,0-0.451-0.096-0.451-0.163C4.266,11.507,4.415,11.421,4.653,11.407L4.653,11.407z M4.716,14.612
				c-0.275,0-0.451-0.097-0.451-0.163v-2.695c0.104,0.064,0.265,0.104,0.451,0.104c0.187,0,0.347-0.04,0.451-0.104v2.695
				C5.167,14.515,4.992,14.612,4.716,14.612L4.716,14.612z M4.716,14.612"/>
			<path fill="#FFFFFF" d="M5.046,12.258c-0.035,0-0.063,0.028-0.063,0.063v2.024c0,0.036,0.028,0.064,0.063,0.064
				s0.064-0.029,0.064-0.064v-2.024C5.11,12.286,5.082,12.258,5.046,12.258L5.046,12.258z M5.046,12.258"/>
			<path fill="#FFFFFF" d="M5.046,11.909c-0.035,0-0.063,0.029-0.063,0.064v0.151c0,0.035,0.028,0.064,0.063,0.064
				s0.064-0.029,0.064-0.064v-0.151C5.11,11.938,5.082,11.909,5.046,11.909L5.046,11.909z M5.046,11.909"/>
		</g>
		<g>
			<path fill="#FFFFFF" d="M6.152,11.279V10.82c0-0.035-0.028-0.064-0.063-0.064s-0.064,0.029-0.064,0.064v0.459
				c-0.297,0.015-0.514,0.134-0.514,0.289v2.881c0,0.166,0.249,0.291,0.579,0.291s0.578-0.125,0.578-0.291v-2.881
				C6.667,11.414,6.45,11.294,6.152,11.279L6.152,11.279z M6.024,11.407v0.161c0,0.035,0.029,0.064,0.064,0.064
				s0.063-0.029,0.063-0.064v-0.161c0.238,0.014,0.388,0.1,0.388,0.161c0,0.066-0.176,0.163-0.451,0.163s-0.451-0.096-0.451-0.163
				C5.637,11.507,5.786,11.421,6.024,11.407L6.024,11.407z M6.088,14.612c-0.275,0-0.451-0.097-0.451-0.163v-2.695
				c0.104,0.064,0.266,0.104,0.451,0.104s0.346-0.04,0.451-0.104v2.695C6.54,14.515,6.364,14.612,6.088,14.612L6.088,14.612z
				 M6.088,14.612"/>
			<path fill="#FFFFFF" d="M6.418,12.258c-0.035,0-0.064,0.028-0.064,0.063v2.024c0,0.036,0.029,0.064,0.064,0.064
				s0.063-0.029,0.063-0.064v-2.024C6.482,12.286,6.454,12.258,6.418,12.258L6.418,12.258z M6.418,12.258"/>
			<path fill="#FFFFFF" d="M6.418,11.909c-0.035,0-0.064,0.029-0.064,0.064v0.151c0,0.035,0.029,0.064,0.064,0.064
				s0.063-0.029,0.063-0.064v-0.151C6.482,11.938,6.454,11.909,6.418,11.909L6.418,11.909z M6.418,11.909"/>
		</g>
		<g>
			<path fill="#FFFFFF" d="M7.524,11.279V10.82c0-0.035-0.028-0.064-0.063-0.064c-0.036,0-0.063,0.029-0.063,0.064v0.459
				c-0.298,0.015-0.516,0.134-0.516,0.289v2.881c0,0.166,0.249,0.291,0.579,0.291c0.329,0,0.578-0.125,0.578-0.291v-2.881
				C8.039,11.414,7.821,11.294,7.524,11.279L7.524,11.279z M7.397,11.407v0.161c0,0.035,0.027,0.064,0.063,0.064
				c0.035,0,0.063-0.029,0.063-0.064v-0.161c0.238,0.014,0.387,0.1,0.387,0.161c0,0.066-0.176,0.163-0.45,0.163
				c-0.275,0-0.451-0.096-0.451-0.163C7.009,11.507,7.159,11.421,7.397,11.407L7.397,11.407z M7.46,14.612
				c-0.275,0-0.451-0.097-0.451-0.163v-2.695c0.104,0.064,0.265,0.104,0.451,0.104c0.186,0,0.347-0.04,0.45-0.104v2.695
				C7.911,14.515,7.735,14.612,7.46,14.612L7.46,14.612z M7.46,14.612"/>
			<path fill="#FFFFFF" d="M7.79,12.258c-0.035,0-0.063,0.028-0.063,0.063v2.024c0,0.036,0.027,0.064,0.063,0.064
				s0.064-0.029,0.064-0.064v-2.024C7.854,12.286,7.825,12.258,7.79,12.258L7.79,12.258z M7.79,12.258"/>
			<path fill="#FFFFFF" d="M7.79,11.909c-0.035,0-0.063,0.029-0.063,0.064v0.151c0,0.035,0.027,0.064,0.063,0.064
				s0.064-0.029,0.064-0.064v-0.151C7.854,11.938,7.825,11.909,7.79,11.909L7.79,11.909z M7.79,11.909"/>
		</g>
	</g>
	<rect x="2.228" y="12.773" fill="#FFFFFF" width="0.571" height="0.707"/>
	<rect x="7.952" y="12.773" fill="#FFFFFF" width="0.571" height="0.707"/>
	<rect x="6.583" y="12.773" fill="#FFFFFF" width="0.372" height="0.707"/>
	<rect x="5.223" y="12.773" fill="#FFFFFF" width="0.372" height="0.707"/>
	<rect x="3.846" y="12.773" fill="#FFFFFF" width="0.372" height="0.707"/>
</g>
<g>
</g>
<g>
</g>
<g>
</g>
<g>
</g>
<g>
</g>
<g>
</g>
</svg>
