<?xml version="1.0" encoding="utf-8"?>
<!-- Generator: Adobe Illustrator 16.2.0, SVG Export Plug-In . SVG Version: 6.00 Build 0)  -->
<!DOCTYPE svg PUBLIC "-//W3C//DTD SVG 1.1//EN" "http://www.w3.org/Graphics/SVG/1.1/DTD/svg11.dtd">
<svg version="1.1" id="Layer_1" xmlns="http://www.w3.org/2000/svg" xmlns:xlink="http://www.w3.org/1999/xlink" x="0px" y="0px"
	 width="18.496px" height="18.493px" viewBox="0 0 18.496 18.493" enable-background="new 0 0 18.496 18.493" xml:space="preserve">
<g>
	<path fill="#D8D8D8" d="M9.247,0C4.151,0,0,4.147,0,9.248c0,5.099,4.151,9.246,9.247,9.246c5.099,0,9.249-4.147,9.249-9.246
		C18.496,4.147,14.346,0,9.247,0L9.247,0z M13.139,15.422l-0.4-0.686c-0.047-0.077-0.132-0.127-0.223-0.127
		c-0.047,0-0.09,0.012-0.129,0.036c-0.061,0.034-0.104,0.089-0.12,0.156s-0.009,0.135,0.025,0.195l0.399,0.687
		c-0.892,0.479-1.894,0.777-2.957,0.847v-0.967c0-0.27-0.217-0.487-0.487-0.487c-0.268,0-0.483,0.218-0.483,0.487v0.967
		c-1.051-0.068-2.039-0.36-2.919-0.827l0.394-0.69c0.033-0.06,0.044-0.128,0.025-0.195c-0.02-0.065-0.061-0.122-0.12-0.156
		c-0.04-0.022-0.083-0.034-0.129-0.034c-0.093,0-0.177,0.051-0.224,0.13l-0.395,0.688c-0.878-0.547-1.633-1.278-2.211-2.138
		l0.838-0.482c0.23-0.135,0.312-0.432,0.176-0.664c-0.134-0.233-0.432-0.313-0.664-0.18l-0.839,0.485
		c-0.438-0.894-0.703-1.889-0.741-2.94l0.793-0.002c0.068,0,0.134-0.027,0.182-0.077C2.979,9.4,3.006,9.335,3.006,9.266
		c0-0.142-0.117-0.257-0.258-0.257L1.952,9.011C1.986,7.943,2.25,6.933,2.696,6.027l0.839,0.483c0.078,0.045,0.16,0.063,0.242,0.063
		c0.168,0,0.333-0.085,0.422-0.242c0.136-0.233,0.055-0.53-0.176-0.664l-0.84-0.484c0.57-0.847,1.313-1.568,2.176-2.113l0.398,0.686
		c0.023,0.04,0.055,0.072,0.094,0.093c0.08,0.046,0.18,0.046,0.26,0c0.058-0.035,0.103-0.091,0.117-0.156
		c0.02-0.067,0.01-0.136-0.025-0.197L5.804,2.812c0.894-0.48,1.896-0.777,2.96-0.849v0.969c0,0.268,0.216,0.485,0.483,0.485
		c0.271,0,0.487-0.218,0.487-0.485V1.963c1.048,0.07,2.036,0.36,2.916,0.827l-0.393,0.69c-0.07,0.124-0.027,0.281,0.095,0.352
		c0.041,0.022,0.082,0.034,0.128,0.034c0.094,0,0.178-0.05,0.224-0.13l0.395-0.688c0.88,0.549,1.635,1.278,2.212,2.138l-0.838,0.484
		c-0.231,0.134-0.313,0.431-0.177,0.664c0.091,0.156,0.254,0.242,0.421,0.242c0.084,0,0.168-0.019,0.243-0.063l0.839-0.483
		c0.441,0.894,0.705,1.889,0.743,2.938L15.75,8.97c-0.071,0-0.135,0.027-0.184,0.075c-0.051,0.05-0.074,0.113-0.074,0.182
		c0,0.092,0.048,0.178,0.131,0.223c0.037,0.024,0.082,0.035,0.127,0.035l0,0l0.793-0.002c-0.031,1.069-0.296,2.078-0.744,2.985
		l-0.839-0.485c-0.229-0.134-0.528-0.053-0.664,0.18c-0.136,0.232-0.055,0.529,0.177,0.664l0.838,0.482
		C14.74,14.156,14,14.876,13.139,15.422L13.139,15.422z M13.139,15.422"/>
	<path fill="#D8D8D8" d="M12.847,6.609L9.724,8.34C9.582,8.264,9.42,8.222,9.247,8.222c-0.172,0-0.333,0.042-0.474,0.118L5.65,6.609
		C5.355,6.444,4.983,6.55,4.82,6.846c-0.164,0.295-0.059,0.667,0.238,0.83l3.184,1.767c0.092,0.472,0.508,0.829,1.005,0.829
		c0.499,0,0.914-0.356,1.007-0.829l3.183-1.767c0.297-0.163,0.403-0.535,0.24-0.83C13.512,6.55,13.142,6.444,12.847,6.609
		L12.847,6.609z M12.847,6.609"/>
</g>
<g>
</g>
<g>
</g>
<g>
</g>
<g>
</g>
<g>
</g>
<g>
</g>
<g>
</g>
</svg>
