<?xml version="1.0" encoding="utf-8"?>
<!-- Generator: Adobe Illustrator 16.2.0, SVG Export Plug-In . SVG Version: 6.00 Build 0)  -->
<!DOCTYPE svg PUBLIC "-//W3C//DTD SVG 1.1//EN" "http://www.w3.org/Graphics/SVG/1.1/DTD/svg11.dtd">
<svg version="1.1" id="Layer_1" xmlns="http://www.w3.org/2000/svg" xmlns:xlink="http://www.w3.org/1999/xlink" x="0px" y="0px"
	 width="9.562px" height="27.221px" viewBox="0 0 9.562 27.221" enable-background="new 0 0 9.562 27.221" xml:space="preserve">
<g>
	<g>
		<path fill="#808080" d="M4.843,4.127c1.141,0,2.064-0.925,2.064-2.063C6.907,0.924,5.983,0,4.843,0
			C3.705,0,2.782,0.924,2.782,2.063C2.782,3.202,3.705,4.127,4.843,4.127z M9.558,6.775c0-1.039-0.843-1.881-1.88-1.881H1.879
			C0.84,4.895,0,5.736,0,6.775l0.004,7.592c0,0.456,0.369,0.824,0.821,0.824c0.452,0,0.821-0.368,0.821-0.824V7.43h0.347v18.56
			c0,0.68,0.551,1.231,1.234,1.231c0.676,0,1.227-0.552,1.227-1.231V15.825h0.674v10.161c0,0.682,0.549,1.234,1.231,1.234
			c0.677,0,1.229-0.553,1.229-1.234V7.43h0.329v6.91c0,0.455,0.371,0.825,0.824,0.825c0.456,0,0.822-0.37,0.822-0.825L9.558,6.775z"
			/>
	</g>
</g>
<g>
</g>
<g>
</g>
<g>
</g>
<g>
</g>
<g>
</g>
<g>
</g>
</svg>
