<?xml version="1.0" encoding="utf-8"?>
<!-- Generator: Adobe Illustrator 16.2.0, SVG Export Plug-In . SVG Version: 6.00 Build 0)  -->
<!DOCTYPE svg PUBLIC "-//W3C//DTD SVG 1.1//EN" "http://www.w3.org/Graphics/SVG/1.1/DTD/svg11.dtd">
<svg version="1.1" id="Layer_1" xmlns="http://www.w3.org/2000/svg" xmlns:xlink="http://www.w3.org/1999/xlink" x="0px" y="0px"
	 width="39.291px" height="47.386px" viewBox="0 0 39.291 47.386" enable-background="new 0 0 39.291 47.386" xml:space="preserve">
<g>
	<path fill-rule="evenodd" clip-rule="evenodd" fill="#E64633" d="M17.579,16.35c-0.063,0.082-0.126,0.164-0.189,0.246
		c0,0.901,0.048,1.807-0.018,2.702c-0.035,0.478-0.169,1.01-0.424,1.396c-2.893,4.382-2.885,9.622,0.04,14.059
		c0.201,0.304,0.395,0.695,0.397,1.05c0.03,2.999,0.04,5.999,0,8.998c-0.016,1.239-0.884,2.196-1.983,2.37
		c-1.207,0.19-2.354-0.471-2.683-1.63c-0.137-0.48-0.141-1.013-0.143-1.521c-0.01-4.895-0.006-9.788-0.006-14.683
		c0-0.428,0-0.856,0-1.245c-0.913-0.376-0.97,0.127-0.967,0.772c0.012,2.723,0.005,5.446,0.004,8.17
		c-0.001,2.525,0.027,5.052-0.016,7.577c-0.028,1.665-1.105,2.688-2.594,2.583c-1.375-0.097-2.219-1.164-2.219-2.87
		c-0.006-9.235-0.004-18.471-0.004-27.706c0-0.412,0-0.824,0-1.236c-0.142-0.047-0.285-0.095-0.428-0.142
		c-0.678,1.412-1.625,2.755-1.974,4.251c-0.608,2.623-0.871,5.337-1.233,8.02c-0.158,1.164-0.744,1.89-1.658,1.854
		c-0.923-0.035-1.586-0.79-1.47-1.97c0.256-2.581,0.456-5.188,0.994-7.712c0.631-2.965,1.96-5.624,4.274-7.607
		c1.111-0.953,2.33-1.496,3.822-1.438c2.102,0.08,4.213-0.055,6.313,0.064c0.652,0.037,1.465,0.435,1.883,0.952
		c1.448,1.795,3.192,3.091,5.24,3.981c0.275,0.119,0.54,0.265,0.934,0.459c-0.698,0.274-1.275,0.391-1.732,0.702
		C20.27,17.8,18.885,18.083,17.579,16.35z"/>
	<path fill-rule="evenodd" clip-rule="evenodd" fill="#E64633" d="M25.777,27.003c-1.67-0.675-3.196-1.292-4.892-1.979
		c0.815-1.499,1.574-2.895,2.318-4.263c1.457,0.819,2.699,1.52,4.022,2.266C26.748,24.34,26.286,25.61,25.777,27.003z"/>
	<path fill-rule="evenodd" clip-rule="evenodd" fill="#E64633" d="M19.486,30.829c0.353-1.601,0.694-3.146,1.054-4.775
		c1.723,0.7,3.254,1.322,4.863,1.976c-0.516,1.41-0.992,2.71-1.457,3.976C22.442,31.608,21.1,31.254,19.486,30.829z"/>
	<path fill-rule="evenodd" clip-rule="evenodd" fill="#E64633" d="M31.285,30.389c-0.851,1.542-1.605,2.913-2.346,4.254
		c-1.44-0.811-2.687-1.513-4.011-2.258c0.484-1.325,0.957-2.622,1.451-3.977C28.03,29.075,29.556,29.691,31.285,30.389z"/>
	<path fill-rule="evenodd" clip-rule="evenodd" fill="#E64633" d="M32.667,24.577c-0.351,1.597-0.689,3.136-1.051,4.776
		c-1.741-0.706-3.266-1.323-4.871-1.974c0.521-1.414,1-2.712,1.466-3.974C29.725,23.803,31.066,24.156,32.667,24.577z"/>
	<path fill-rule="evenodd" clip-rule="evenodd" fill="#E64633" d="M35.966,32.275c-0.987,2.198-2.306,3.842-4.165,5.031
		c-0.725-0.717-1.393-1.379-2.002-1.982c0.84-1.569,1.623-3.034,2.438-4.557C33.45,31.257,34.661,31.748,35.966,32.275z"/>
	<path fill-rule="evenodd" clip-rule="evenodd" fill="#E64633" d="M19.918,24.644c-1.215-0.493-2.43-0.984-3.732-1.513
		c0.951-2.156,2.277-3.824,4.158-5.026c0.717,0.698,1.37,1.333,2.015,1.961C21.556,21.571,20.775,23.037,19.918,24.644z"/>
	<path fill-rule="evenodd" clip-rule="evenodd" fill="#E64633" d="M19.549,25.669c-0.379,1.745-0.741,3.408-1.104,5.071
		c-0.947,0-1.863,0-2.795,0c-0.498-2.246-0.558-4.393,0.201-6.573C17.144,24.692,18.355,25.184,19.549,25.669z"/>
	<path fill-rule="evenodd" clip-rule="evenodd" fill="#E64633" d="M36.495,24.649c0.502,2.271,0.569,4.413-0.204,6.586
		c-1.31-0.531-2.521-1.021-3.692-1.495c0.385-1.767,0.74-3.404,1.108-5.091C34.608,24.649,35.499,24.649,36.495,24.649z"/>
	<path fill-rule="evenodd" clip-rule="evenodd" fill="#E64633" d="M19.564,31.956c1.42,0.392,2.687,0.74,4.012,1.105
		c-0.662,1.787-1.239,3.345-1.882,5.076C19.84,36.411,19.557,34.355,19.564,31.956z"/>
	<path fill-rule="evenodd" clip-rule="evenodd" fill="#E64633" d="M23.912,19.948c1.596-1.767,3.103-3.141,5.559-3.059
		c-0.64,1.746-1.22,3.332-1.862,5.088C26.368,21.296,25.231,20.671,23.912,19.948z"/>
	<path fill-rule="evenodd" clip-rule="evenodd" fill="#E64633" d="M22.682,38.531c0.648-1.771,1.229-3.357,1.869-5.108
		c1.264,0.704,2.398,1.336,3.676,2.048C26.661,37.223,25.149,38.567,22.682,38.531z"/>
	<path fill-rule="evenodd" clip-rule="evenodd" fill="#E64633" d="M30.411,17.374c1.641,1.275,2.511,3.992,1.972,6.019
		c-1.239-0.337-2.481-0.676-3.802-1.035C29.225,20.603,29.797,19.043,30.411,17.374z"/>
	<path fill-rule="evenodd" clip-rule="evenodd" fill="#E64633" d="M21.422,17.643c0.006-0.127,0.014-0.255,0.021-0.382
		c1.545-0.363,3.091-0.727,4.634-1.09c0.02,0.093,0.037,0.186,0.055,0.277c-1.019,0.892-2.037,1.782-3.128,2.736
		C22.489,18.683,21.956,18.164,21.422,17.643z"/>
	<path fill-rule="evenodd" clip-rule="evenodd" fill="#E64633" d="M30.704,37.717c0,0.145-0.001,0.287-0.002,0.432
		c-1.541,0.363-3.084,0.728-4.625,1.092c-0.016-0.096-0.032-0.19-0.049-0.285c1.021-0.89,2.042-1.78,3.124-2.725
		C29.666,36.723,30.184,37.219,30.704,37.717z"/>
	<path fill-rule="evenodd" clip-rule="evenodd" fill="#E64633" d="M33.203,19.292c0.085-0.058,0.171-0.115,0.257-0.173
		c0.898,1.369,1.797,2.739,2.821,4.303c-1.111,0-1.835,0-2.497,0C33.581,21.974,33.391,20.632,33.203,19.292z"/>
	<path fill-rule="evenodd" clip-rule="evenodd" fill="#E64633" d="M18.953,36.122c-0.084,0.057-0.169,0.113-0.253,0.17
		c-0.897-1.365-1.794-2.73-2.83-4.305c1.121,0,1.842,0,2.508,0C18.58,33.442,18.766,34.782,18.953,36.122z"/>
	<path fill-rule="evenodd" clip-rule="evenodd" fill="#E64633" d="M28.903,47.386c0.732-0.152,1.479-0.257,2.192-0.479
		c0.353-0.11,0.868-0.401,0.907-0.674c0.045-0.323-0.264-0.912-0.557-1.041c-1.195-0.525-2.441-0.923-3.673-1.354
		c-0.173-0.061-0.367-0.048-0.681-0.086c-0.023-0.418-0.032-0.835-0.074-1.248c-0.068-0.678,0.166-0.944,0.852-1.049
		C34.685,40.418,39.5,34.5,39.284,27.304c-0.158-5.223-2.527-9.138-6.817-11.771c-0.442-0.271-0.981-0.404-0.873-1.164
		c0.021-0.144-0.316-0.472-0.503-0.485c-0.195-0.013-0.428,0.229-0.606,0.402c-0.103,0.099-0.138,0.276-0.19,0.425
		c-0.192,0.549-0.38,1.1-0.577,1.672c0.654,0.429,1.22,0.833,1.438-0.296c5.668,2.243,8.658,9.861,6.418,16.095
		c-2.602,7.243-9.977,9.679-14.623,7.928c-0.469-0.715-0.757-1.151-1.229-1.869c-0.408,1.101-0.703,1.774-0.896,2.479
		c-0.065,0.238,0.054,0.667,0.23,0.802c0.151,0.116,0.509-0.059,0.772-0.116c0.317-0.066,0.634-0.211,0.947-0.202
		c0.369,0.011,0.732,0.165,1.104,0.229c1.766,0.304,1.767,0.3,1.439,2.245c-0.828,0.182-1.672,0.335-2.498,0.56
		c-0.468,0.128-0.974,0.283-1.339,0.589c-0.442,0.37-0.755,0.912-1.123,1.38c0.458,0.274,0.89,0.622,1.38,0.802
		c0.557,0.204,1.162,0.259,1.747,0.379C25.292,47.386,27.096,47.386,28.903,47.386z"/>
	<path fill-rule="evenodd" clip-rule="evenodd" fill="#E64633" d="M11.075,0C9.096,0.856,7.698,2.19,7.68,4.623
		c-0.016,2.266,1.561,4.229,3.654,4.59c2.172,0.374,4.267-0.972,4.938-3.174c0.657-2.153-0.264-4.491-2.181-5.526
		C13.766,0.336,13.434,0.17,13.106,0C12.428,0,11.751,0,11.075,0z"/>
	<path fill-rule="evenodd" clip-rule="evenodd" fill="#E64633" d="M17.579,16.35c1.307,1.732,2.691,1.45,4.162,0.447
		c0.457-0.312,1.034-0.428,1.732-0.702c-0.394-0.194-0.658-0.34-0.934-0.459c-2.048-0.891-3.792-2.187-5.24-3.981
		c-0.418-0.518-1.23-0.915-1.883-0.952c-2.1-0.119-4.211,0.016-6.313-0.064c-1.492-0.058-2.711,0.485-3.822,1.438
		c-2.314,1.983-3.644,4.643-4.274,7.607c-0.538,2.523-0.738,5.131-0.994,7.712c-0.116,1.18,0.547,1.935,1.47,1.97
		c0.914,0.035,1.5-0.69,1.658-1.854c0.362-2.683,0.625-5.396,1.233-8.02c0.349-1.496,1.296-2.839,1.974-4.251
		c0.143,0.047,0.286,0.095,0.428,0.142c0,0.412,0,0.824,0,1.236c0,9.235-0.002,18.471,0.004,27.706c0,1.706,0.844,2.773,2.219,2.87
		c1.488,0.104,2.565-0.918,2.594-2.583c0.043-2.525,0.015-5.052,0.016-7.577c0.001-2.724,0.008-5.447-0.004-8.17
		c-0.003-0.646,0.054-1.148,0.967-0.772c0,0.389,0,0.817,0,1.245c0,4.895-0.004,9.788,0.006,14.683
		c0.002,0.509,0.006,1.041,0.143,1.521c0.328,1.159,1.476,1.82,2.683,1.63c1.1-0.174,1.968-1.131,1.983-2.37
		c0.04-2.999,0.03-5.999,0-8.998c-0.003-0.354-0.196-0.746-0.397-1.05c-2.925-4.437-2.933-9.677-0.04-14.059
		c0.255-0.387,0.389-0.919,0.424-1.396c0.065-0.896,0.018-1.801,0.018-2.702C17.453,16.514,17.516,16.432,17.579,16.35z"/>
	<path fill-rule="evenodd" clip-rule="evenodd" fill="#E64633" d="M25.777,27.003c0.509-1.394,0.971-2.663,1.449-3.976
		c-1.323-0.746-2.565-1.446-4.022-2.266c-0.744,1.368-1.503,2.764-2.318,4.263C22.581,25.711,24.107,26.329,25.777,27.003z"/>
	<path fill-rule="evenodd" clip-rule="evenodd" fill="#E64633" d="M19.486,30.829c1.614,0.426,2.956,0.779,4.46,1.176
		c0.465-1.266,0.941-2.565,1.457-3.976c-1.609-0.653-3.141-1.275-4.863-1.976C20.18,27.682,19.838,29.228,19.486,30.829z"/>
	<path fill-rule="evenodd" clip-rule="evenodd" fill="#E64633" d="M31.285,30.389c-1.729-0.698-3.255-1.314-4.905-1.98
		c-0.494,1.354-0.967,2.651-1.451,3.977c1.324,0.745,2.57,1.447,4.011,2.258C29.679,33.302,30.434,31.931,31.285,30.389z"/>
	<path fill-rule="evenodd" clip-rule="evenodd" fill="#E64633" d="M32.667,24.577c-1.601-0.421-2.941-0.773-4.456-1.171
		c-0.466,1.262-0.944,2.56-1.466,3.974c1.605,0.65,3.13,1.268,4.871,1.974C31.977,27.712,32.316,26.173,32.667,24.577z"/>
	<path fill-rule="evenodd" clip-rule="evenodd" fill="#E64633" d="M35.966,32.275c-1.306-0.527-2.517-1.018-3.729-1.508
		c-0.814,1.522-1.598,2.987-2.438,4.557c0.609,0.604,1.277,1.266,2.002,1.982C33.661,36.117,34.979,34.473,35.966,32.275z"/>
	<path fill-rule="evenodd" clip-rule="evenodd" fill="#E64633" d="M19.918,24.644c0.856-1.607,1.638-3.073,2.44-4.578
		c-0.645-0.628-1.298-1.263-2.015-1.961c-1.881,1.202-3.207,2.87-4.158,5.026C17.489,23.66,18.704,24.151,19.918,24.644z"/>
	<path fill-rule="evenodd" clip-rule="evenodd" fill="#E64633" d="M19.549,25.669c-1.194-0.485-2.405-0.978-3.697-1.502
		c-0.759,2.181-0.699,4.327-0.201,6.573c0.932,0,1.848,0,2.795,0C18.808,29.078,19.17,27.415,19.549,25.669z"/>
	<path fill-rule="evenodd" clip-rule="evenodd" fill="#E64633" d="M36.495,24.649c-0.996,0-1.887,0-2.788,0
		c-0.368,1.687-0.724,3.324-1.108,5.091c1.172,0.475,2.383,0.964,3.692,1.495C37.064,29.062,36.997,26.919,36.495,24.649z"/>
	<path fill-rule="evenodd" clip-rule="evenodd" fill="#E64633" d="M19.564,31.956c-0.007,2.399,0.276,4.455,2.13,6.182
		c0.643-1.731,1.22-3.289,1.882-5.076C22.25,32.696,20.984,32.347,19.564,31.956z"/>
	<path fill-rule="evenodd" clip-rule="evenodd" fill="#E64633" d="M23.912,19.948c1.319,0.724,2.456,1.349,3.696,2.029
		c0.643-1.756,1.223-3.342,1.862-5.088C27.014,16.807,25.507,18.181,23.912,19.948z"/>
	<path fill-rule="evenodd" clip-rule="evenodd" fill="#E64633" d="M22.682,38.531c2.467,0.036,3.979-1.308,5.545-3.061
		c-1.277-0.712-2.412-1.344-3.676-2.048C23.911,35.173,23.331,36.759,22.682,38.531z"/>
	<path fill-rule="evenodd" clip-rule="evenodd" fill="#E64633" d="M30.411,17.374c-0.613,1.67-1.186,3.229-1.83,4.983
		c1.32,0.359,2.563,0.698,3.802,1.035C32.921,21.366,32.051,18.649,30.411,17.374z"/>
	<path fill-rule="evenodd" clip-rule="evenodd" fill="#E64633" d="M21.422,17.643c0.533,0.521,1.066,1.04,1.581,1.542
		c1.091-0.954,2.109-1.845,3.128-2.736c-0.018-0.092-0.035-0.185-0.055-0.277c-1.543,0.363-3.089,0.727-4.634,1.09
		C21.436,17.388,21.428,17.516,21.422,17.643z"/>
	<path fill-rule="evenodd" clip-rule="evenodd" fill="#E64633" d="M30.704,37.717c-0.52-0.498-1.038-0.994-1.552-1.486
		c-1.082,0.944-2.103,1.835-3.124,2.725c0.017,0.095,0.033,0.189,0.049,0.285c1.541-0.364,3.084-0.729,4.625-1.092
		C30.703,38.004,30.704,37.862,30.704,37.717z"/>
	<path fill-rule="evenodd" clip-rule="evenodd" fill="#E64633" d="M33.203,19.292c0.188,1.341,0.378,2.683,0.581,4.13
		c0.662,0,1.386,0,2.497,0c-1.024-1.563-1.923-2.934-2.821-4.303C33.374,19.176,33.288,19.234,33.203,19.292z"/>
	<path fill-rule="evenodd" clip-rule="evenodd" fill="#E64633" d="M18.953,36.122c-0.187-1.34-0.373-2.68-0.575-4.135
		c-0.666,0-1.387,0-2.508,0c1.036,1.574,1.933,2.939,2.83,4.305C18.784,36.235,18.869,36.178,18.953,36.122z"/>
</g>
<g>
</g>
<g>
</g>
<g>
</g>
<g>
</g>
<g>
</g>
<g>
</g>
</svg>
