<?xml version="1.0" encoding="utf-8"?>
<!-- Generator: Adobe Illustrator 16.2.0, SVG Export Plug-In . SVG Version: 6.00 Build 0)  -->
<!DOCTYPE svg PUBLIC "-//W3C//DTD SVG 1.1//EN" "http://www.w3.org/Graphics/SVG/1.1/DTD/svg11.dtd">
<svg version="1.1" id="Layer_1" xmlns="http://www.w3.org/2000/svg" xmlns:xlink="http://www.w3.org/1999/xlink" x="0px" y="0px"
	 width="19.5px" height="19.5px" viewBox="0 0 19.5 19.5" enable-background="new 0 0 19.5 19.5" xml:space="preserve">
<g>
	<circle fill="#010101" cx="9.75" cy="9.75" r="9.75"/>
	<g>
		<path fill="#FFFFFF" d="M5.322,3.874c1.49-0.397,2.896-0.606,4.887-0.518c2.635,0,3.971,1.853,3.971,3.553v0.884
			c0,2.339-0.813,3.69-3.693,3.587v1.404H7.975V8.937h1.594c0.852-0.036,1.266-0.295,1.266-1.215V7.463
			c0-0.764-0.52-1.075-1.508-1.075H5.322V3.874z M7.818,13.737c0-0.261,0.139-0.434,0.416-0.434h1.959
			c0.311,0,0.434,0.156,0.434,0.434v2.027c0,0.313-0.191,0.398-0.434,0.398H8.234c-0.244,0-0.416-0.156-0.416-0.398V13.737z"/>
	</g>
</g>
<g>
</g>
<g>
</g>
<g>
</g>
<g>
</g>
<g>
</g>
<g>
</g>
</svg>
