<?xml version="1.0" encoding="utf-8"?>
<!-- Generator: Adobe Illustrator 16.2.0, SVG Export Plug-In . SVG Version: 6.00 Build 0)  -->
<!DOCTYPE svg PUBLIC "-//W3C//DTD SVG 1.1//EN" "http://www.w3.org/Graphics/SVG/1.1/DTD/svg11.dtd">
<svg version="1.1" id="Layer_1" xmlns="http://www.w3.org/2000/svg" xmlns:xlink="http://www.w3.org/1999/xlink" x="0px" y="0px"
	 width="36.696px" height="37.069px" viewBox="0 0 36.696 37.069" enable-background="new 0 0 36.696 37.069" xml:space="preserve">
<g>
	<path fill="#B3B3B3" d="M18.348,19.708c4.65,0,8.419-4.412,8.419-9.854C26.767,2.307,22.998,0,18.348,0
		c-4.649,0-8.419,2.307-8.419,9.854C9.929,15.295,13.698,19.708,18.348,19.708L18.348,19.708z M18.348,19.708"/>
	<path fill="#B3B3B3" d="M36.55,34.68l-4.247-9.566c-0.156-0.354-0.428-0.641-0.769-0.818l-6.763-3.521
		c-0.409-0.213-0.887-0.25-1.322-0.105c-0.438,0.146-0.796,0.463-0.994,0.879l-2.875,5.996l0.362-3.262
		c0.011-0.102-0.015-0.203-0.073-0.289l-1.172-1.686c-0.005-0.006-0.01-0.01-0.014-0.016l1.014-0.77
		c0.088-0.066,0.139-0.17,0.139-0.279c0-0.412-0.334-0.746-0.744-0.746h-1.487c-0.41,0-0.745,0.334-0.745,0.746
		c0,0.109,0.052,0.213,0.14,0.279l1.014,0.77c-0.005,0.006-0.01,0.01-0.014,0.016l-1.172,1.686
		c-0.059,0.086-0.086,0.188-0.074,0.289l0.362,3.262l-2.874-5.996c-0.199-0.416-0.558-0.732-0.994-0.879
		c-0.437-0.145-0.914-0.107-1.322,0.105l-6.764,3.521C4.82,24.473,4.55,24.76,4.393,25.114L0.146,34.68
		c-0.232,0.525-0.185,1.133,0.129,1.615c0.313,0.482,0.85,0.773,1.424,0.773h33.299c0.575,0,1.11-0.291,1.425-0.773
		C36.734,35.813,36.783,35.206,36.55,34.68L36.55,34.68z M36.55,34.68"/>
</g>
<g>
</g>
<g>
</g>
<g>
</g>
<g>
</g>
<g>
</g>
<g>
</g>
</svg>
