<?xml version="1.0" encoding="utf-8"?>
<!-- Generator: Adobe Illustrator 16.2.0, SVG Export Plug-In . SVG Version: 6.00 Build 0)  -->
<!DOCTYPE svg PUBLIC "-//W3C//DTD SVG 1.1//EN" "http://www.w3.org/Graphics/SVG/1.1/DTD/svg11.dtd">
<svg version="1.1" id="Layer_1" xmlns="http://www.w3.org/2000/svg" xmlns:xlink="http://www.w3.org/1999/xlink" x="0px" y="0px"
	 width="51.434px" height="83.285px" viewBox="0 0 51.434 83.285" enable-background="new 0 0 51.434 83.285" xml:space="preserve">
<g>
	<g>
		<path fill="#808080" d="M25.905,12.627c3.49,0,6.316-2.831,6.316-6.314C32.222,2.826,29.396,0,25.905,0
			C22.425,0,19.6,2.826,19.6,6.313C19.6,9.796,22.425,12.627,25.905,12.627z M40.332,20.729c0-3.178-2.58-5.754-5.754-5.754H16.837
			c-3.177,0-5.748,2.576-5.748,5.754l0.013,23.23c0,1.395,1.127,2.521,2.512,2.521c1.384,0,2.512-1.127,2.512-2.521V22.732h1.062
			v56.785c0,2.08,1.686,3.768,3.776,3.768c2.069,0,3.753-1.688,3.753-3.768V48.419h2.063v31.088c0,2.086,1.68,3.777,3.767,3.777
			c2.071,0,3.758-1.691,3.758-3.777V22.732h1.006v21.142c0,1.393,1.136,2.523,2.521,2.523c1.394,0,2.516-1.131,2.516-2.523
			L40.332,20.729z"/>
	</g>
	<g opacity="0.4">
		<path fill="#808080" d="M10.324,20.735c2.432,0,4.401-1.972,4.401-4.399c0-2.43-1.97-4.399-4.401-4.399
			c-2.425,0-4.394,1.969-4.394,4.399C5.931,18.763,7.899,20.735,10.324,20.735z M20.376,26.381c0-2.214-1.798-4.01-4.008-4.01H4.007
			C1.792,22.371,0,24.167,0,26.381l0.009,16.187c0,0.971,0.785,1.756,1.75,1.756s1.75-0.785,1.75-1.756V27.777h0.74v39.566
			c0,1.45,1.174,2.625,2.631,2.625c1.442,0,2.617-1.175,2.617-2.625V45.675h1.435v21.662c0,1.453,1.172,2.631,2.625,2.631
			c1.444,0,2.619-1.178,2.619-2.631V27.777h0.701v14.731c0,0.971,0.79,1.759,1.756,1.759c0.971,0,1.752-0.788,1.752-1.759
			L20.376,26.381z"/>
	</g>
	<g opacity="0.4">
		<path fill="#808080" d="M41.372,20.771c2.433,0,4.402-1.973,4.402-4.399c0-2.43-1.97-4.399-4.402-4.399
			c-2.425,0-4.394,1.969-4.394,4.399C36.979,18.798,38.947,20.771,41.372,20.771z M51.426,26.416c0-2.214-1.8-4.009-4.009-4.009
			H35.055c-2.214,0-4.007,1.795-4.007,4.009l0.01,16.188c0,0.971,0.784,1.756,1.75,1.756c0.965,0,1.75-0.785,1.75-1.756V27.812h0.74
			v39.566c0,1.45,1.174,2.625,2.63,2.625c1.442,0,2.617-1.175,2.617-2.625V45.71h1.435v21.662c0,1.453,1.173,2.631,2.625,2.631
			c1.444,0,2.619-1.178,2.619-2.631V27.812h0.701v14.731c0,0.97,0.79,1.759,1.757,1.759c0.97,0,1.752-0.789,1.752-1.759
			L51.426,26.416z"/>
	</g>
</g>
<g>
</g>
<g>
</g>
<g>
</g>
<g>
</g>
<g>
</g>
<g>
</g>
</svg>
