<?xml version="1.0" encoding="utf-8"?>
<!-- Generator: Adobe Illustrator 16.2.0, SVG Export Plug-In . SVG Version: 6.00 Build 0)  -->
<!DOCTYPE svg PUBLIC "-//W3C//DTD SVG 1.1//EN" "http://www.w3.org/Graphics/SVG/1.1/DTD/svg11.dtd">
<svg version="1.1" id="Layer_1" xmlns="http://www.w3.org/2000/svg" xmlns:xlink="http://www.w3.org/1999/xlink" x="0px" y="0px"
	 width="76px" height="73.872px" viewBox="71.604 91.836 76 73.872" enable-background="new 71.604 91.836 76 73.872"
	 xml:space="preserve">
<g>
	<path d="M130.884,120.006H83.257c-0.811,0-1.52,0.709-1.52,1.52s0.709,1.52,1.52,1.52h47.626c0.811,0,1.52-0.709,1.52-1.52
		S131.796,120.006,130.884,120.006z"/>
	<path d="M113.657,159.729H84.271c-5.269,0-9.525-4.256-9.525-9.525v-45.802c0-5.27,4.256-9.525,9.525-9.525h45.904
		c5.27,0,9.525,4.256,9.525,9.525v29.386c0,0.811,0.709,1.52,1.52,1.52s1.52-0.709,1.52-1.52v-29.386
		c0-6.891-5.675-12.565-12.565-12.565H84.169c-6.891,0-12.565,5.675-12.565,12.565v45.904c0,6.891,5.675,12.565,12.565,12.565
		h29.386c0.811,0,1.52-0.709,1.52-1.52C115.076,160.54,114.468,159.729,113.657,159.729z"/>
	<path d="M83.257,131.559c-0.811,0-1.52,0.709-1.52,1.52c0,0.811,0.709,1.521,1.52,1.521h47.626c0.811,0,1.52-0.709,1.52-1.521
		c0-0.811-0.608-1.52-1.52-1.52H83.257z"/>
	<path d="M113.961,143.11H83.358c-0.811,0-1.52,0.709-1.52,1.52s0.709,1.52,1.52,1.52h30.603c0.811,0,1.52-0.709,1.52-1.52
		S114.772,143.11,113.961,143.11z"/>
	<path d="M134.937,140.375c-6.992,0-12.667,5.674-12.667,12.667c0,6.992,5.674,12.667,12.667,12.667s12.667-5.675,12.667-12.667
		C147.604,146.049,141.929,140.375,134.937,140.375z M134.937,163.174c-1.115,0-2.027-0.912-2.027-2.027s0.912-2.026,2.027-2.026
		s2.027,0.912,2.027,2.026S136.052,163.174,134.937,163.174z M136.964,154.865v1.824c0,1.115-0.912,2.027-2.027,2.027
		s-2.027-0.912-2.027-2.027v-3.547c0-1.114,0.912-2.026,2.027-2.026c1.013,0,1.824-0.811,1.824-1.824
		c0-1.013-0.811-1.824-1.824-1.824s-1.824,0.811-1.824,1.824c0,1.115-0.912,2.027-2.026,2.027s-2.027-0.912-2.027-2.027
		c0-3.243,2.635-5.877,5.877-5.877s5.877,2.635,5.877,5.877C140.814,151.825,139.193,153.953,136.964,154.865z"/>
	<path d="M130.884,108.455H83.257c-0.811,0-1.52,0.709-1.52,1.52s0.709,1.52,1.52,1.52h47.626c0.811,0,1.52-0.709,1.52-1.52
		S131.796,108.455,130.884,108.455z"/>
</g>
</svg>
