<?xml version="1.0" encoding="utf-8"?>
<!-- Generator: Adobe Illustrator 16.2.0, SVG Export Plug-In . SVG Version: 6.00 Build 0)  -->
<!DOCTYPE svg PUBLIC "-//W3C//DTD SVG 1.1//EN" "http://www.w3.org/Graphics/SVG/1.1/DTD/svg11.dtd">
<svg version="1.1" id="Layer_1" xmlns="http://www.w3.org/2000/svg" xmlns:xlink="http://www.w3.org/1999/xlink" x="0px" y="0px"
	 width="15.76px" height="37.134px" viewBox="0 0 15.76 37.134" enable-background="new 0 0 15.76 37.134" xml:space="preserve">
<g>
	<g>
		<path fill="#AF1F23" d="M7.849,10.534c0.374,0,0.747-0.062,1.184-0.124c2.803-0.623,4.609-3.488,3.987-6.292
			c-0.312-1.37-1.121-2.554-2.306-3.301C9.531,0.069,8.098-0.18,6.728,0.131C3.925,0.754,2.118,3.62,2.74,6.422
			C3.301,8.915,5.482,10.534,7.849,10.534z M9.843,2.187c0.809,0.498,1.432,1.37,1.619,2.305l0,0
			c0.437,1.993-0.81,3.925-2.804,4.423c-1.993,0.437-3.924-0.81-4.422-2.803C3.799,4.118,5.046,2.187,7.04,1.689
			C7.288,1.626,7.6,1.626,7.849,1.626C8.534,1.626,9.219,1.813,9.843,2.187z"/>
		<path fill="#AF1F23" d="M11.711,11.905H4.049C1.807,11.905,0,13.711,0,15.954v11.71c0,1.933,1.371,3.552,3.239,3.926v4.735
			c0,0.436,0.374,0.81,0.81,0.81s0.81-0.374,0.81-0.81l0,0v-5.421c0-0.437-0.374-0.81-0.81-0.81c-1.371,0-2.429-1.122-2.429-2.431
			v-11.71c0-1.37,1.12-2.43,2.429-2.43h7.663c1.37,0,2.429,1.121,2.429,2.43v11.71c0,1.371-1.121,2.431-2.429,2.431
			c-0.437,0-0.811,0.373-0.811,0.81v5.421l0,0c0,0.436,0.374,0.81,0.811,0.81c0.436,0,0.809-0.374,0.809-0.81v-4.735
			c1.869-0.374,3.24-1.993,3.24-3.926v-11.71C15.698,13.711,13.892,11.905,11.711,11.905z"/>
	</g>
</g>
<g>
</g>
<g>
</g>
<g>
</g>
<g>
</g>
<g>
</g>
<g>
</g>
</svg>
