<?xml version="1.0" encoding="utf-8"?>
<!-- Generator: Adobe Illustrator 16.2.0, SVG Export Plug-In . SVG Version: 6.00 Build 0)  -->
<!DOCTYPE svg PUBLIC "-//W3C//DTD SVG 1.1//EN" "http://www.w3.org/Graphics/SVG/1.1/DTD/svg11.dtd">
<svg version="1.1" id="Layer_1" xmlns="http://www.w3.org/2000/svg" xmlns:xlink="http://www.w3.org/1999/xlink" x="0px" y="0px"
	 width="25.812px" height="25.46px" viewBox="0 0 25.812 25.46" enable-background="new 0 0 25.812 25.46" xml:space="preserve">
<g>
	<path fill="#010101" d="M15.41,3.015h-6.23H8.71H8.04H7.37H6.7H6.231H6.03c0,0.234,0.034,0.469,0.067,0.669h9.346
		C15.41,3.484,15.41,3.25,15.41,3.015z"/>
	<path fill="#010101" d="M6.364,0.669c0.403,0,0.805,0.67,0.972,1.675h0.67C7.839,0.971,7.202,0,6.364,0
		C5.394,0,4.69,1.307,4.69,3.015c0,0.234,0,0.469,0.034,0.669C4.891,5.058,5.527,6.03,6.364,6.03V5.36
		c-0.401,0-0.803-0.669-0.971-1.675C5.36,3.484,5.36,3.25,5.36,3.015C5.36,1.675,5.896,0.669,6.364,0.669z"/>
	<path fill="#010101" d="M17.755,0.669c0.401,0,0.804,0.67,0.971,1.675h0.67C19.228,0.971,18.592,0,17.755,0
		c-0.973,0-1.676,1.307-1.676,3.015c0,0.234,0,0.469,0.034,0.669c0.167,1.374,0.804,2.346,1.642,2.346V5.36
		c-0.402,0-0.805-0.669-0.973-1.675C16.75,3.484,16.75,3.25,16.75,3.015C16.75,1.675,17.287,0.669,17.755,0.669z"/>
	<circle fill="#010101" cx="8.04" cy="12.729" r="1.004"/>
	<circle fill="#010101" cx="15.41" cy="12.729" r="1.004"/>
	<circle fill="#010101" cx="11.725" cy="12.729" r="1.004"/>
	<circle fill="#010101" cx="4.354" cy="16.415" r="1.005"/>
	<circle fill="#010101" cx="8.04" cy="16.415" r="1.005"/>
	<circle fill="#010101" cx="11.725" cy="16.415" r="1.005"/>
	<circle fill="#010101" cx="4.354" cy="20.1" r="1.005"/>
	<circle fill="#010101" cx="8.04" cy="20.1" r="1.005"/>
	<circle fill="#010101" cx="11.725" cy="20.1" r="1.005"/>
	<path fill="#010101" d="M0.67,23.451V8.71h22.11v9.012l0.67,1.172V4.355c0-0.737-0.603-1.34-1.34-1.34h-1.541h-0.47H19.43h-0.671
		h-0.67h-0.469h-0.201c0,0.234,0.034,0.469,0.067,0.669h4.623c0.368,0,0.67,0.301,0.67,0.671V8.04H0.67V4.355
		c0-0.37,0.301-0.671,0.67-0.671h2.713C4.02,3.484,4.02,3.25,4.02,3.015H1.34C0.603,3.015,0,3.618,0,4.355v19.095
		c0,0.736,0.603,1.34,1.34,1.34h11.423c0.034-0.135,0.067-0.27,0.134-0.402l0.167-0.269H1.34C0.971,24.12,0.67,23.818,0.67,23.451z"
		/>
	<path fill="#010101" d="M23.45,20.904l-0.67-1.173l-2.714-4.724c-0.133-0.201-0.469-0.201-0.569,0l-5.259,9.112l-0.402,0.671
		l-0.066,0.1c-0.068,0.101-0.068,0.268,0,0.369c0.066,0.1,0.167,0.201,0.301,0.201H25.46c0.133,0,0.234-0.102,0.301-0.201
		c0.066-0.102,0.066-0.234,0-0.335L23.45,20.904z M22.511,24.791c-0.133,0-0.268,0-0.401,0h-7.471l0.335-0.671l4.791-8.241
		l3.015,5.227l0.67,1.172l1.44,2.547h-2.379V24.791z"/>
	<rect x="19.43" y="19.094" fill="#010101" width="0.669" height="3.351"/>
	<rect x="19.43" y="23.115" fill="#010101" width="0.669" height="0.67"/>
</g>
<g>
</g>
<g>
</g>
<g>
</g>
<g>
</g>
<g>
</g>
<g>
</g>
</svg>
