<?xml version="1.0" encoding="utf-8"?>
<!-- Generator: Adobe Illustrator 16.2.0, SVG Export Plug-In . SVG Version: 6.00 Build 0)  -->
<!DOCTYPE svg PUBLIC "-//W3C//DTD SVG 1.1//EN" "http://www.w3.org/Graphics/SVG/1.1/DTD/svg11.dtd">
<svg version="1.1" id="Layer_1" xmlns="http://www.w3.org/2000/svg" xmlns:xlink="http://www.w3.org/1999/xlink" x="0px" y="0px"
	 width="44.315px" height="37.914px" viewBox="0 0 44.315 37.914" enable-background="new 0 0 44.315 37.914" xml:space="preserve">
<g>
	<path fill="#010101" stroke="#FFFFFF" stroke-width="0.75" stroke-linejoin="bevel" stroke-miterlimit="10" d="M32.825,8.062
		l1.509-3.017c1.222-2.444-0.152-4.669-2.896-4.669h-5.553c-2.764,0-4.125,2.209-2.896,4.669l1.51,3.017
		c-1.383,0.81-2.867,2.208-4.291,3.955c-0.131-0.086-0.26-0.162-0.39-0.238l1.509-3.018c1.222-2.444-0.152-4.671-2.896-4.671h-5.552
		c-2.764,0-4.126,2.21-2.896,4.671l1.508,3.018C4.071,16.125-6.387,37.539,6.363,37.539h18.582c3.336,0,5.074-1.473,5.703-3.717
		h7.305C50.703,33.822,40.244,12.409,32.825,8.062z M25.885,2.232h5.553c1.361,0,1.839,0.771,1.234,1.98l-1.799,3.594h-4.424
		l-1.798-3.594C24.038,2.988,24.504,2.232,25.885,2.232z M12.878,5.95h5.552c1.362,0,1.839,0.771,1.234,1.98l-1.797,3.594h-4.426
		L11.645,7.93C11.031,6.704,11.496,5.95,12.878,5.95z M24.945,35.68H6.363c-4.21,0-5.193-3.163-3.122-9.146
		c1.897-5.481,6.032-11.313,9.171-13.153l6.497,0.008c0.107,0.063,0.219,0.143,0.329,0.215c0.146,0.097,0.293,0.198,0.441,0.31
		c0.085,0.064,0.17,0.13,0.256,0.198c0.149,0.119,0.3,0.247,0.451,0.379c2.855,2.505,6.072,7.395,7.68,12.043
		c0.771,2.225,1.117,4.059,1.033,5.485c-0.002,0.049-0.009,0.093-0.013,0.141c-0.013,0.167-0.032,0.327-0.058,0.481
		c-0.011,0.063-0.021,0.123-0.033,0.184c-0.031,0.149-0.068,0.293-0.111,0.434c-0.012,0.039-0.021,0.08-0.034,0.119
		C28.331,34.897,27.037,35.68,24.945,35.68z M37.953,31.963h-7.035c0.197-5.854-4.677-14.756-9.246-18.812
		c1.277-1.565,2.582-2.804,3.748-3.488l6.496,0.007c3.137,1.851,7.264,7.674,9.158,13.146
		C43.146,28.801,42.162,31.963,37.953,31.963z"/>
	<path fill="#010101" stroke="#FFFFFF" stroke-width="0.75" stroke-linejoin="bevel" stroke-miterlimit="10" d="M13.519,22.291
		c0-1.033,0.978-1.899,2.36-1.899c1.658,0,2.857,1.125,2.857,1.125l0.829-1.512c0,0-1.025-1.055-2.982-1.271v-1.636h-1.858v1.724
		c-1.829,0.415-3.049,1.813-3.049,3.505c0,4,6.305,3.393,6.305,6.213c0,1.234-1.033,1.916-2.25,1.916c-1.936,0-3.318-1.4-3.318-1.4
		l-1.032,1.382c0,0,1.19,1.317,3.345,1.643v1.741h1.858v-1.738c2.043-0.336,3.24-1.833,3.24-3.6
		C19.823,24.264,13.519,24.982,13.519,22.291z"/>
</g>
<g>
</g>
<g>
</g>
<g>
</g>
<g>
</g>
<g>
</g>
<g>
</g>
</svg>
