<?xml version="1.0" encoding="utf-8"?>
<!-- Generator: Adobe Illustrator 16.2.0, SVG Export Plug-In . SVG Version: 6.00 Build 0)  -->
<!DOCTYPE svg PUBLIC "-//W3C//DTD SVG 1.1//EN" "http://www.w3.org/Graphics/SVG/1.1/DTD/svg11.dtd">
<svg version="1.1" id="Layer_1" xmlns="http://www.w3.org/2000/svg" xmlns:xlink="http://www.w3.org/1999/xlink" x="0px" y="0px"
	 width="22.729px" height="70.695px" viewBox="0 0 22.729 70.695" enable-background="new 0 0 22.729 70.695" xml:space="preserve">
<path fill-rule="evenodd" clip-rule="evenodd" fill="#C03529" d="M14.336,8.708c0,0,0.679,0.184,0.771-0.353
	c0.091-0.546,0.444-1.197,0.606-1.641c0.166-0.456-0.303-0.819-0.303-0.819s-0.129-3.105-0.512-4.001
	c-0.384-0.898-1.726-1.867-2.813-1.885c-1.062-0.032-1.72,0.038-1.72,0.038s-1.832-0.151-2.794,1.3
	c-0.977,1.47-0.619,3.971-0.619,3.971C6.189,6.213,6.753,6.374,6.753,7.395c0,0.574,0.365,0.887,0.649,0.909
	c0.302,0.013,0.302-0.055,0.302-0.055s1.146,1.766,1.242,1.985c0.101,0.233,0.032,1.508-0.236,1.916
	c-0.271,0.413-1.716,0.992-1.716,0.992s-2.243,1.644-2.878,2.051c-0.615,0.406-1.505,1.235-1.505,1.235s-0.788,3.312-1.308,4.234
	C0.789,21.583,0,23.308,0,23.308s1.335,0.855,1.656,0.977c0.303,0.115,0.648,0.282,0.648,0.282s-0.089,2.462-0.434,3.042
	c-0.323,0.583-0.312,3.219-0.055,5.613C2.067,35.6,2.2,38.685,2.096,39.581c-0.092,0.895-0.148,2.221-0.148,2.741
	c0,0.515,1.189,1.534,1.189,1.534s1.047,0.222,1.312,0.179c0.266-0.021,0.273-0.015,0.273-0.015s-0.484,12.741-0.42,14.592
	c0.028,1.846,0.479,2.512,0.073,2.916c-0.403,0.416,0.496,0.587,0.496,1.41c0,0.809-0.805,2.163-0.805,3.018
	c0,0.854,0.775,1.438,0.775,1.438l0.975-0.272c0.288-0.079,1.105,3.455,3.506,3.565c0.35,0.021,1.103,0.015,1.496-0.136
	c0.867-0.309,0.961-0.953,0.506-2.302c-0.441-1.347-0.579-2.74-0.579-2.74s1.476-2.676,1.476-3.739c0-1.095-0.358-2.535-0.499-3.35
	c-0.128-0.799-0.305-5.267-0.305-7.111c0-1.852-0.13-5.188,0.227-6.104c0.344-0.893,0.485-1.711,0.485-1.711
	s0.676,1.445,0.676,3.254c0,1.808,0.325,1.717,0.633,4.636c0.329,2.938-0.137,5.784-0.265,7.271
	c-0.143,1.476-1.122,1.708-0.306,3.288c0.791,1.576,1.975,0.945,1.879,2.984c-0.051,1.479,1.452,1.713,2.475,2.742
	c0.543,0.547,1.174,1.611,2.854,1.848c1.657,0.213,2.427-0.547,2.472-1.435c0.054-0.917-2.03-3.086-2.03-3.086
	s1.816-1.44,1.216-2.474c-0.579-1.028-1.927-2.199-1.927-2.199s0.169-14.471,0.169-15.648c0-1.182,0-1.848,0-1.848
	s1.183,0.106,1.581-0.206c0.409-0.315,0.659-1.495,0.779-1.944c0.113-0.449-0.435-2.498-0.435-2.945
	c0-0.439-0.35-9.825-0.747-10.737c-0.397-0.892-0.729-1.44-0.776-2.058c-0.025-0.645-0.159-1.268-0.159-1.268l2.513-1.167
	c0,0-2.581-4.15-3.117-5.554c-0.543-1.4-0.846-2.204-0.846-2.204s-4.107-2.028-4.655-2.353c-0.544-0.311-0.717-0.584-0.758-1.12
	c-0.053-0.54-0.053-0.855-0.053-0.855L14.336,8.708L14.336,8.708z M19.33,32.807c0,0,0.559,2.535,0.861,3.596
	c0.3,1.056,0.043,1.162-0.073,1.706c-0.105,0.576-0.093,2.638-0.093,2.638h-0.673l0.019-0.447l0.336-0.271L19.33,32.807
	L19.33,32.807z M5.607,24.293c0,0,0.541,0.912,0.541,2.488c0,1.578-0.469,3.238-0.644,4.415C5.33,32.37,4.842,34.941,4.78,35.743
	c-0.045,0.821-0.045,4.561-0.045,4.561l0.503,0.102L5.02,42.114c0,0-0.829-0.074-0.829-1.162c0-1.076-0.1-2.227-0.209-2.633
	c-0.106-0.413,0.483-7.525,0.483-8.611c0-1.078,0.315-4.327,0.315-4.327l0.532-0.042L5.607,24.293L5.607,24.293z"/>
<g>
</g>
<g>
</g>
<g>
</g>
<g>
</g>
<g>
</g>
<g>
</g>
</svg>
