<?xml version="1.0" encoding="utf-8"?>
<!-- Generator: Adobe Illustrator 16.2.0, SVG Export Plug-In . SVG Version: 6.00 Build 0)  -->
<!DOCTYPE svg PUBLIC "-//W3C//DTD SVG 1.1//EN" "http://www.w3.org/Graphics/SVG/1.1/DTD/svg11.dtd">
<svg version="1.1" id="Layer_1" xmlns="http://www.w3.org/2000/svg" xmlns:xlink="http://www.w3.org/1999/xlink" x="0px" y="0px"
	 width="21.011px" height="47.082px" viewBox="0 0 21.011 47.082" enable-background="new 0 0 21.011 47.082" xml:space="preserve">
<g>
	<path fill-rule="evenodd" clip-rule="evenodd" stroke="#FFFFFF" stroke-width="0.25" stroke-miterlimit="10" d="M13.259,24.455
		c-0.989-0.855-0.771-1.156,0.056-1.881c5.323-4.68,7.854-10.687,7.546-17.985c-0.115-2.763-1.736-4.4-4.409-4.447
		c-2.003-0.034-4.008-0.007-6.014-0.007c-1.957,0-3.913-0.027-5.87,0.006C1.888,0.188,0.273,1.807,0.152,4.58
		c-0.319,7.298,2.204,13.322,7.547,17.977c1.03,0.896,0.854,1.186-0.052,1.982c-5.365,4.725-7.863,10.801-7.483,18.154
		c0.125,2.436,1.687,4.15,4.035,4.197c4.198,0.086,8.4,0.088,12.6,0.002c2.4-0.049,3.944-1.795,4.059-4.338
		C21.188,35.201,18.66,29.134,13.259,24.455z M16.433,46.107c-1.956,0.021-3.911,0.004-5.868,0.004c-1.908,0-3.817,0.008-5.726,0
		c-2.68-0.014-3.971-1.275-4.014-4.1c-0.11-7.188,2.508-13.053,7.951-17.436c1.043-0.84,1.176-1.162,0.037-2.072
		C3.263,18.064,0.644,12.095,0.838,4.79c0.067-2.552,1.395-3.827,3.817-3.836c3.816-0.015,7.634-0.01,11.449-0.003
		c2.774,0.005,4.052,1.253,4.086,4.176c0.083,7.124-2.533,12.927-7.887,17.336c-1.321,1.088-1.321,1.051-0.034,2.107
		c5.449,4.477,8.076,10.373,7.909,17.617C20.119,44.783,18.816,46.083,16.433,46.107z"/>
	<g>
		<path fill-rule="evenodd" clip-rule="evenodd" d="M19.041,38.027c-0.246-1.371-0.586-2.713-0.934-4.061
			c-0.26-1.006-0.729-1.949-1.224-2.857c-0.3-0.549-0.63-1.094-0.993-1.604c-0.289-0.404-0.521-0.914-1.016-1.109
			c-0.326-0.129-0.751-0.141-1.098-0.209c-0.868-0.168-1.744-0.305-2.616-0.463c-0.1-0.02-0.199-0.037-0.299-0.055
			c-0.005-1.445-0.006-2.893-0.019-4.34c-0.006-0.818,0.328-1.256,0.904-1.707c2.129-1.667,3.816-3.749,5.138-6.174
			c0.543-0.999,0.608-1.504-0.743-1.487c-3.768,0.049-7.535,0.041-11.304,0.003c-1.225-0.013-1.25,0.422-0.725,1.403
			C5.421,17.805,7.096,19.9,9.23,21.56c0.678,0.527,0.98,1.068,0.971,1.977c-0.014,1.379-0.018,2.758-0.024,4.135
			c-1.15,0.203-2.301,0.412-3.453,0.611c-0.503,0.088-0.818,0.115-1.128,0.553c-0.329,0.465-0.642,0.941-0.95,1.418
			c-1.758,2.707-2.781,5.781-3,9.877c-0.082,1.516,0.078,2.508,0.311,3.16c0.018,0.055,0.041,0.102,0.061,0.154
			c0.031,0.076,0.063,0.15,0.096,0.217c0.479,1.037,1.391,1.467,3.008,1.471c1.811,0.004,3.623,0.002,5.437,0
			c2.003-0.002,4.007,0.043,6.009-0.014c1.23-0.035,2.193-0.859,2.604-1.939c0.01-0.018,0.026-0.031,0.035-0.049
			C19.674,42.255,19.209,38.97,19.041,38.027z"/>
	</g>
</g>
<g>
</g>
<g>
</g>
<g>
</g>
<g>
</g>
<g>
</g>
<g>
</g>
</svg>
