<?xml version="1.0" encoding="utf-8"?>
<!-- Generator: Adobe Illustrator 16.2.0, SVG Export Plug-In . SVG Version: 6.00 Build 0)  -->
<!DOCTYPE svg PUBLIC "-//W3C//DTD SVG 1.1//EN" "http://www.w3.org/Graphics/SVG/1.1/DTD/svg11.dtd">
<svg version="1.1" id="Layer_1" xmlns="http://www.w3.org/2000/svg" xmlns:xlink="http://www.w3.org/1999/xlink" x="0px" y="0px"
	 width="27.919px" height="28.136px" viewBox="0 0 27.919 28.136" enable-background="new 0 0 27.919 28.136" xml:space="preserve">
<g>
	<path fill="#999999" d="M0.218,24.414l2.571,3.045c0,0,0.905,1.282,1.558,0.317c0.651-0.959,4.564-8.887,4.564-8.887
		s0.388-0.646,0.663,0.513c0.274,1.152,2.532,6.746,2.532,6.746s0.346,0.469,0.755,0.119c0.409-0.34,2.048-1.725,2.048-1.725
		s0.555-0.178-0.016-1.271c-0.577-1.1-2.685-6.096-2.685-6.096s-0.307-0.641,0.141-1.014c0.441-0.377,1.019-0.803,1.019-0.803
		s0.253-0.527,0.959,0.027s2.727,2.604,5.837,3.368c3.109,0.776,5.831,0.878,5.831,0.878s0.668,0.021,0.766-1.115
		c0.097-1.131,0.037-2.727,0.037-2.727s0.064-0.76-0.604-0.781c-0.663-0.021-1.795,0.231-3.223-0.205
		c-1.423-0.437-4.641-2.799-4.641-2.799s-0.517-0.404-0.037-0.809s3.832-3.231,3.832-3.231s0.57-0.427,0.226-0.842
		c-0.345-0.41-0.517-0.614-0.517-0.614l6.084-5.143L26.766,0l-6.09,5.142l-0.501-0.452c0,0-0.442-0.39-0.819-0.071
		c-0.377,0.317-4.306,3.573-4.306,3.573s-1.105-1.17-1.925-0.479c-0.824,0.696-5.814,4.91-5.814,4.91s-0.216,0.3-0.043,0.916
		c0.167,0.62,0.479,1.056,0.172,1.32c-0.307,0.259-1.913,1.616-1.913,1.616s-0.452,0.438-0.394,1.268
		c0.055,0.83-0.403,1.746-1.293,2.494c-0.884,0.756-3.449,2.857-3.449,2.857S-0.358,23.729,0.218,24.414L0.218,24.414z
		 M0.218,24.414"/>
	<path fill="#999999" d="M23.263,3.487c0,0-2.037-2.415-2.393-2.841c-0.361-0.42-1.401-0.791-1.525,0.689
		c-0.146,1.714-0.302,4.021-0.302,4.021l1.778,0.054c0,0-0.086-0.943-0.216-1.416c-0.161-0.588,0.119-0.879,0.437-0.498
		c0.318,0.373,0.916,1.08,0.916,1.08L23.263,3.487z M23.263,3.487"/>
	<path fill="#999999" d="M12.258,17.979c0,0,0.565-0.479,1.019-0.856c0.453-0.383,0.89-1.239,0.512-2.371
		c-0.377-1.132,1.105,0.161,1.105,0.161s0.775,1.779-0.55,2.895c-1.326,1.126-1.913,1.573-1.913,1.573L12.258,17.979z
		 M12.258,17.979"/>
</g>
<g>
</g>
<g>
</g>
<g>
</g>
<g>
</g>
<g>
</g>
<g>
</g>
</svg>
