<?xml version="1.0" encoding="utf-8"?>
<!-- Generator: Adobe Illustrator 16.2.0, SVG Export Plug-In . SVG Version: 6.00 Build 0)  -->
<!DOCTYPE svg PUBLIC "-//W3C//DTD SVG 1.1//EN" "http://www.w3.org/Graphics/SVG/1.1/DTD/svg11.dtd">
<svg version="1.1" id="Layer_1" xmlns="http://www.w3.org/2000/svg" xmlns:xlink="http://www.w3.org/1999/xlink" x="0px" y="0px"
	 width="28.988px" height="23.144px" viewBox="0 0 28.988 23.144" enable-background="new 0 0 28.988 23.144" xml:space="preserve">
<g>
	<path fill="#999999" d="M18.502,14.002c-0.09-0.111-0.228-0.176-0.369-0.176H16.32c-0.446-1.178-1.028-2.334-1.688-2.769
		c-2.29-1.508-8.364-1.508-10.653,0c-0.66,0.435-1.242,1.591-1.691,2.769h-1.81c-0.145,0-0.279,0.064-0.37,0.176
		C0.017,14.114-0.019,14.258,0.01,14.4l0.27,1.299c0.045,0.221,0.24,0.379,0.466,0.379h0.537c-0.519,0.598-0.77,1.352-0.772,2.104
		c-0.004,0.93,0.35,1.77,0.996,2.365c0.007,0.005,0.014,0.012,0.021,0.016v1.82c0,0.393,0.319,0.714,0.714,0.714h1.671
		c0.393,0,0.715-0.321,0.715-0.714v-0.73h9.358v0.73c0,0.393,0.318,0.714,0.714,0.714h1.671c0.393,0,0.715-0.321,0.715-0.714v-1.785
		c0.684-0.625,1.011-1.488,1.017-2.352c0.001-0.777-0.261-1.559-0.811-2.168h0.573c0.225,0,0.42-0.158,0.467-0.379l0.268-1.299
		C18.626,14.258,18.591,14.114,18.502,14.002L18.502,14.002z M4.765,12.251c1.824-1.2,7.257-1.2,9.078,0
		c0.356,0.232,0.812,1.173,1.229,2.323H3.536C3.953,13.424,4.409,12.483,4.765,12.251L4.765,12.251z M2.627,18.359
		c0-0.773,0.63-1.404,1.405-1.404c0.776,0,1.407,0.631,1.407,1.404c0,0.777-0.631,1.408-1.407,1.408
		C3.257,19.768,2.627,19.137,2.627,18.359L2.627,18.359z M14.594,19.768c-0.774,0-1.404-0.631-1.404-1.408
		c0-0.773,0.63-1.404,1.404-1.404c0.777,0,1.408,0.631,1.408,1.404C16.002,19.137,15.371,19.768,14.594,19.768L14.594,19.768z
		 M14.594,19.768"/>
	<path fill="#999999" d="M20.05,2.74c0-1.514,1.227-2.74,2.74-2.74s2.742,1.227,2.742,2.74s-1.229,2.741-2.742,2.741
		S20.05,4.254,20.05,2.74L20.05,2.74z M28.528,23.058c-0.379,0.188-0.831,0.057-1.056-0.288l-2.581-3.937
		c-0.055-0.084-0.092-0.175-0.11-0.267l-0.021-0.104l-0.533-2.627c-0.021,0.001-0.043,0.001-0.064,0.001
		c-0.106,0-0.211-0.009-0.314-0.021L22.6,17.969l-1.03,4.529c-0.102,0.444-0.544,0.724-0.987,0.622
		c-0.414-0.095-0.684-0.483-0.639-0.895l0.532-4.85c0.009-0.078,0.029-0.151,0.06-0.221l0.05-0.104l1.265-2.752
		c-0.113-0.271-0.184-0.563-0.196-0.871l-0.155-3.721l-1.173,0.929L20.243,10.7c-0.37,0.292-0.899,0.249-1.223-0.08l-2.308-2.376
		c-0.282-0.29-0.284-0.745-0.018-1.04c-1.227-0.152-2.353-0.29-2.666-0.332c-1.222-0.159-1.268-0.918-1.268-0.918l-3.64-0.359
		l0.057-0.578l0.368,0.037L9.59,4.637L9.733,4.65L9.691,5.067L20.65,6.189c0.609-0.171,0.7-0.462,0.7-0.465l0.093,0.024l0.094,0.022
		c-0.004,0.018-0.099,0.367-0.749,0.577L20.749,6.74c0.098,0.022,0.194,0.045,0.283,0.069c0.145,0.039,0.271,0.079,0.392,0.12
		l0.914-0.843c0.08-0.073,0.168-0.128,0.26-0.177c0.361-0.229,0.783-0.371,1.241-0.39c1.354-0.058,2.499,0.969,2.607,2.308
		l1.402,0.188c0,0,0.909,2.023-0.25,1.868c-0.257-0.033-0.6-0.08-0.996-0.133c0.001,0.029,0.001,0.06,0.002,0.09
		c-0.023-0.019-0.048-0.034-0.072-0.052l0.144,3.429c0.016,0.387-0.059,0.753-0.199,1.085l0.461,3.659l1.967,3.989
		C29.104,22.361,28.937,22.856,28.528,23.058L28.528,23.058z M14.14,5.875l-0.192-0.021l-0.08,0.729l0.192,0.021L14.14,5.875z
		 M14.764,5.943l-0.191-0.021l-0.081,0.729l0.193,0.021L14.764,5.943z M15.364,6.009l-0.191-0.021l-0.081,0.729l0.193,0.021
		L15.364,6.009z M18.859,7.615c0,0.101,0.082,0.181,0.183,0.181h0.313c0.099,0,0.181-0.08,0.181-0.181
		c0-0.007-0.003-0.014-0.004-0.021c-0.095,0.064-0.232,0.116-0.432,0.116c-0.054,0-0.097-0.042-0.097-0.096s0.043-0.097,0.097-0.097
		c0.03,0,0.058-0.004,0.085-0.007c-0.085-0.01-0.172-0.021-0.262-0.033C18.886,7.513,18.859,7.561,18.859,7.615L18.859,7.615z
		 M19.932,7.607c-0.064-0.01-0.133-0.018-0.206-0.027c0.002,0.013,0.004,0.023,0.004,0.035c0,0.207-0.168,0.374-0.374,0.374h-0.313
		c-0.207,0-0.376-0.167-0.376-0.374c0-0.059,0.016-0.113,0.039-0.163c-0.206-0.025-0.42-0.053-0.641-0.08l1.562,1.214l0.086-0.081
		C19.658,8.184,19.751,7.862,19.932,7.607L19.932,7.607z M18.365,5.608l-2.267-0.229l-0.025,0.246l2.268,0.229L18.365,5.608z
		 M18.365,5.608"/>
</g>
<g>
</g>
<g>
</g>
<g>
</g>
<g>
</g>
<g>
</g>
<g>
</g>
</svg>
