<?xml version="1.0" encoding="utf-8"?>
<!-- Generator: Adobe Illustrator 16.2.0, SVG Export Plug-In . SVG Version: 6.00 Build 0)  -->
<!DOCTYPE svg PUBLIC "-//W3C//DTD SVG 1.1//EN" "http://www.w3.org/Graphics/SVG/1.1/DTD/svg11.dtd">
<svg version="1.1" id="Layer_1" xmlns="http://www.w3.org/2000/svg" xmlns:xlink="http://www.w3.org/1999/xlink" x="0px" y="0px"
	 width="22.09px" height="32.551px" viewBox="0 0 22.09 32.551" enable-background="new 0 0 22.09 32.551" xml:space="preserve">
<g>
	<path fill="#999999" d="M16.42,4.558l-1.363,0.646l1.225-0.883L16.42,4.558z M16.988,2.869l-1.211-1.037l1.016,1.229L16.988,2.869z
		 M19.715,0l-1.686,2.63l0.238,0.137L19.715,0z M18.553,3.342l3.537-0.295l-3.551,0.022L18.553,3.342z M17.172,3.854
		c0.16,2.699,3.164,5.004,1.891,7.766c-0.393,0.852-1.133,1.418-1.771,2.07l-1.1-0.982l-1.23,1.38
		c-1.479-0.876-3.203-1.38-5.043-1.38C4.439,12.707,0,17.148,0,22.629s4.439,9.922,9.918,9.922s9.918-4.445,9.918-9.922
		c0-2.164-0.695-4.166-1.871-5.795l1.26-1.414l-1.316-1.178c0.104-0.111,0.211-0.221,0.33-0.332c0.818-0.775,1.463-1.551,1.83-2.635
		c0.922-2.719-1.924-4.848-2.078-7.422C17.959,3.33,17.139,3.326,17.172,3.854L17.172,3.854z M17.172,3.854"/>
</g>
<g>
</g>
<g>
</g>
<g>
</g>
<g>
</g>
<g>
</g>
<g>
</g>
</svg>
