<?xml version="1.0" encoding="utf-8"?>
<!-- Generator: Adobe Illustrator 16.2.0, SVG Export Plug-In . SVG Version: 6.00 Build 0)  -->
<!DOCTYPE svg PUBLIC "-//W3C//DTD SVG 1.1//EN" "http://www.w3.org/Graphics/SVG/1.1/DTD/svg11.dtd">
<svg version="1.1" id="Layer_1" xmlns="http://www.w3.org/2000/svg" xmlns:xlink="http://www.w3.org/1999/xlink" x="0px" y="0px"
	 width="36.641px" height="36.72px" viewBox="0 0 36.641 36.72" enable-background="new 0 0 36.641 36.72" xml:space="preserve">
<g>
	<g>
		<path fill="#999999" d="M17.892,13.882c1.027,0,1.857,0.833,1.857,1.857c0,1.027-0.83,1.859-1.857,1.859
			c-1.025,0-1.859-0.832-1.859-1.859C16.033,14.715,16.867,13.882,17.892,13.882L17.892,13.882z"/>
		<g>
			<path fill="#999999" d="M21.277,20.118c-0.645-1.16-1.678-2.095-3.029-2.218c-0.072-0.006-0.143-0.005-0.205,0.004
				c-0.066-0.007-0.133-0.01-0.203-0.01c-0.535,0-1.02,0.22-1.365,0.576c-0.758,0.579-1.598,1.035-2.518,1.303
				c-0.029,0.008-0.063,0.017-0.096,0.024c0.529-0.671,1.223-1.264,1.85-1.816c0.869-0.769-0.406-2.035-1.273-1.271
				c-0.514,0.453-1.004,0.934-1.475,1.43c-0.537,0.566-1.439,1.455-1.338,2.321c0.127,1.101,1.268,1.298,2.184,1.166
				c0.746-0.104,1.453-0.358,2.121-0.699v3.37c0,0.088,0.008,0.173,0.02,0.258c-0.012,0.068-0.021,0.137-0.021,0.207l-0.109,7.98
				c0,0.494,0.402,0.898,0.898,0.898c0.494,0,0.898-0.404,0.898-0.898v-6.55c0.074,0.009,0.15,0.016,0.225,0.016
				c0.076,0,0.15-0.007,0.227-0.016v6.55c0,0.494,0.4,0.898,0.896,0.898s0.902-0.404,0.902-0.898l-0.115-8.092
				c0-0.053-0.006-0.101-0.012-0.148c0.006-0.066,0.012-0.135,0.012-0.205v-3.226c0.033,0.058,0.064,0.114,0.094,0.168
				c0.498,0.899,0.479,1.745,0.234,2.714c-0.287,1.125,1.449,1.6,1.734,0.477C22.208,22.87,22.062,21.537,21.277,20.118
				L21.277,20.118z"/>
			<path fill="#999999" d="M11.541,14.078c-0.07-0.086-0.211,0.017-0.141,0.104c0.137,0.161,0.291,0.334,0.514,0.348
				c0.271,0.017,0.432-0.223,0.656-0.326c0.156-0.071,0.336-0.077,0.473,0.044c0.086,0.077,0.145,0.177,0.146,0.29
				c-0.072,0.021-0.143,0.055-0.209,0.103c-0.268,0.2-0.342,0.567-0.184,0.854l-0.004,0.003l1.684,2.268l0.004-0.001
				c0.004,0.008,0.008,0.016,0.016,0.023c0.217,0.294,0.633,0.355,0.926,0.137c0.295-0.218,0.355-0.633,0.137-0.928
				c-0.006-0.008-0.012-0.014-0.018-0.021l0,0l-1.686-2.268l-0.004,0.004c-0.131-0.136-0.311-0.204-0.492-0.2
				c0.002-0.033-0.002-0.064-0.012-0.096c-0.066-0.215-0.256-0.41-0.488-0.432c-0.299-0.03-0.467,0.154-0.703,0.297
				C11.89,14.44,11.712,14.287,11.541,14.078L11.541,14.078z M13.171,14.668c-0.031,0.165-0.064,0.328,0.055,0.472
				c0.07,0.085,0.211-0.019,0.139-0.104c-0.096-0.115-0.043-0.267-0.016-0.414c0.137-0.011,0.268,0.036,0.344,0.14
				c0.133,0.178,0.061,0.455-0.162,0.619c-0.221,0.165-0.506,0.153-0.639-0.024s-0.061-0.456,0.16-0.62
				C13.091,14.708,13.13,14.686,13.171,14.668L13.171,14.668z M11.585,13.873l0.189-0.256l-0.141,0.286L11.585,13.873z
				 M11.318,13.977l-0.041,0.041l-0.215-0.258L11.318,13.977z M11.224,14.238l0.029,0.05l-0.588,0.298L11.224,14.238z M11.373,14.35
				l-0.07,0.746l0.014-0.749L11.373,14.35z M11.316,14.347"/>
		</g>
	</g>
	<path fill="#999999" d="M28.259,26.892c-0.096-0.12-0.244-0.191-0.398-0.191h-1.959c-0.482-1.271-1.111-2.521-1.824-2.99
		c-2.475-1.63-9.039-1.63-11.512,0c-0.713,0.469-1.342,1.719-1.828,2.99H8.783c-0.156,0-0.303,0.071-0.4,0.191
		c-0.098,0.121-0.137,0.276-0.105,0.43l0.291,1.403c0.049,0.239,0.26,0.409,0.504,0.409h0.58c-0.561,0.646-0.832,1.461-0.834,2.273
		c-0.004,1.006,0.377,1.912,1.076,2.557c0.008,0.005,0.014,0.013,0.021,0.018v1.966c0,0.425,0.346,0.772,0.771,0.772h1.807
		c0.424,0,0.771-0.348,0.771-0.772v-0.789h10.113v0.789c0,0.425,0.344,0.772,0.771,0.772h1.805c0.426,0,0.773-0.348,0.773-0.772
		v-1.929c0.738-0.676,1.092-1.609,1.098-2.541c0.002-0.84-0.281-1.685-0.875-2.344h0.619c0.242,0,0.453-0.17,0.504-0.409
		l0.289-1.403C28.394,27.168,28.357,27.013,28.259,26.892L28.259,26.892z M13.416,24.999c1.971-1.297,7.842-1.297,9.811,0
		c0.385,0.251,0.877,1.268,1.326,2.512H12.087C12.539,26.267,13.031,25.25,13.416,24.999L13.416,24.999z M11.105,31.601
		c0-0.837,0.682-1.518,1.52-1.518s1.52,0.681,1.52,1.518c0,0.84-0.682,1.521-1.52,1.521S11.105,32.44,11.105,31.601L11.105,31.601z
		 M24.037,33.122c-0.836,0-1.518-0.682-1.518-1.521c0-0.837,0.682-1.518,1.518-1.518c0.84,0,1.521,0.681,1.521,1.518
		C25.558,32.44,24.876,33.122,24.037,33.122L24.037,33.122z M24.037,33.122"/>
</g>
<path fill="#999999" d="M35.755,11.937l-7.717,0.416V7.404c0-0.482-0.729-0.771-1.277-0.505l-4.787,2.326l-2.293-8.734
	c-0.154-0.582-1.234-0.673-1.561-0.132l-4.76,7.885l-7.48-3.84C5.263,4.087,4.441,4.495,4.607,5.035l2.324,7.585L0.65,13.615
	c-0.662,0.105-0.877,0.722-0.369,1.049l4.467,2.867l-4.006,2.322h7.52l2.129-1.235l-3.039-1.952l4.203-0.668l-1.488-4.857
	l4.92,2.523l3.104-5.144l1.488,5.668l3.236-1.571v3.238l5.305-0.285l-4.463,3.238l2.256,1.045h7.951l-4.246-1.965l6.777-4.916
	C36.939,12.577,36.519,11.895,35.755,11.937L35.755,11.937z"/>
<g>
</g>
<g>
</g>
<g>
</g>
<g>
</g>
<g>
</g>
<g>
</g>
</svg>
