<?xml version="1.0" encoding="utf-8"?>
<!-- Generator: Adobe Illustrator 16.2.0, SVG Export Plug-In . SVG Version: 6.00 Build 0)  -->
<!DOCTYPE svg PUBLIC "-//W3C//DTD SVG 1.1//EN" "http://www.w3.org/Graphics/SVG/1.1/DTD/svg11.dtd">
<svg version="1.1" id="Layer_1" xmlns="http://www.w3.org/2000/svg" xmlns:xlink="http://www.w3.org/1999/xlink" x="0px" y="0px"
	 width="18.012px" height="31.753px" viewBox="0 0 18.012 31.753" enable-background="new 0 0 18.012 31.753" xml:space="preserve">
<g>
	<path fill="#999999" d="M11.459,0.421c1.629,0,2.945,1.32,2.945,2.945c0,1.629-1.316,2.947-2.945,2.947
		c-1.627,0-2.947-1.318-2.947-2.947C8.512,1.741,9.832,0.421,11.459,0.421L11.459,0.421z"/>
	<g>
		<path fill="#999999" d="M16.825,10.31c-1.022-1.84-2.658-3.321-4.802-3.516c-0.116-0.011-0.227-0.008-0.327,0.005
			c-0.103-0.011-0.21-0.016-0.321-0.016c-0.848,0-1.614,0.351-2.165,0.914C8.009,8.616,6.679,9.339,5.219,9.763
			c-0.047,0.013-0.1,0.026-0.149,0.039c0.837-1.064,1.936-2.004,2.929-2.881C9.379,5.703,7.355,3.693,5.98,4.905
			c-0.814,0.719-1.594,1.48-2.339,2.268C2.79,8.071,1.36,9.481,1.521,10.853c0.203,1.744,2.013,2.059,3.464,1.85
			c1.183-0.166,2.305-0.568,3.364-1.109v5.346c0,0.139,0.011,0.273,0.028,0.408c-0.018,0.107-0.031,0.215-0.031,0.328L8.169,30.327
			c0,0.785,0.638,1.426,1.426,1.426c0.785,0,1.425-0.641,1.425-1.426V19.943c0.118,0.013,0.237,0.024,0.355,0.024
			c0.121,0,0.24-0.012,0.358-0.024v10.384c0,0.785,0.638,1.426,1.425,1.426c0.785,0,1.428-0.641,1.428-1.426l-0.182-12.828
			c0-0.084-0.008-0.16-0.019-0.236c0.011-0.106,0.019-0.215,0.019-0.324v-5.116c0.053,0.093,0.103,0.183,0.15,0.267
			c0.79,1.428,0.759,2.768,0.371,4.305c-0.455,1.782,2.297,2.535,2.748,0.756C18.303,14.673,18.071,12.56,16.825,10.31L16.825,10.31
			z"/>
		<path fill="#999999" d="M1.387,0.731c-0.112-0.135-0.332,0.027-0.22,0.164c0.213,0.256,0.458,0.53,0.813,0.552
			c0.433,0.026,0.685-0.354,1.041-0.517c0.248-0.113,0.534-0.123,0.75,0.07C3.906,1.122,4,1.28,4.002,1.46
			c-0.115,0.033-0.228,0.088-0.33,0.163C3.244,1.94,3.129,2.522,3.381,2.976L3.373,2.981l2.672,3.594l0.002-0.001
			c0.009,0.013,0.016,0.026,0.025,0.038c0.346,0.466,1.004,0.563,1.47,0.217s0.563-1.005,0.217-1.471
			c-0.01-0.012-0.02-0.023-0.03-0.035l0.003-0.001L5.059,1.728L5.051,1.734C4.843,1.521,4.559,1.41,4.272,1.417
			c0.001-0.053-0.004-0.104-0.02-0.152c-0.104-0.34-0.405-0.649-0.773-0.686C3.005,0.532,2.739,0.825,2.365,1.05
			C1.941,1.307,1.662,1.063,1.387,0.731L1.387,0.731z M3.975,1.667C3.926,1.929,3.871,2.188,4.062,2.415
			c0.112,0.135,0.333-0.028,0.22-0.164C4.129,2.068,4.214,1.829,4.255,1.595c0.219-0.018,0.424,0.057,0.546,0.221
			c0.21,0.282,0.096,0.723-0.256,0.982C4.195,3.06,3.741,3.041,3.531,2.759S3.436,2.036,3.785,1.775
			C3.846,1.731,3.909,1.694,3.975,1.667L3.975,1.667z M1.459,0.407L1.759,0L1.538,0.454L1.459,0.407z M1.035,0.572L0.97,0.638
			l-0.341-0.41L1.035,0.572z M0.887,0.985l0.045,0.08L0,1.538L0.887,0.985z M1.122,1.163L1.01,2.346l0.021-1.188L1.122,1.163z
			 M1.031,1.157"/>
	</g>
</g>
<g>
</g>
<g>
</g>
<g>
</g>
<g>
</g>
<g>
</g>
<g>
</g>
</svg>
