<?xml version="1.0" encoding="utf-8"?>
<!-- Generator: Adobe Illustrator 16.2.0, SVG Export Plug-In . SVG Version: 6.00 Build 0)  -->
<!DOCTYPE svg PUBLIC "-//W3C//DTD SVG 1.1//EN" "http://www.w3.org/Graphics/SVG/1.1/DTD/svg11.dtd">
<svg version="1.1" id="Layer_1" xmlns="http://www.w3.org/2000/svg" xmlns:xlink="http://www.w3.org/1999/xlink" x="0px" y="0px"
	 width="17.219px" height="24.599px" viewBox="0 0 17.219 24.599" enable-background="new 0 0 17.219 24.599" xml:space="preserve">
<g>
	<path fill="#999999" d="M4.919,1.64H6.52L6.151,5.703c-0.02,0.225,0.146,0.425,0.371,0.445c0.23,0.017,0.425-0.146,0.446-0.372
		L7.373,1.3C7.419,1.037,7.512,0.82,8.199,0.82h1.64c0.701,0,0.786,0.203,0.821,0.446l0.41,4.51c0.02,0.214,0.198,0.373,0.408,0.373
		c0.012,0,0.025,0,0.037-0.001c0.227-0.021,0.392-0.221,0.371-0.445L11.518,1.64h1.201c-0.26,0.344-0.42,0.767-0.42,1.23
		c0,1.13,0.92,2.05,2.05,2.05s2.05-0.92,2.05-2.05c0-1.131-0.92-2.05-2.05-2.05h-2.966C11.066,0.002,10.162,0,9.839,0h-1.64
		C7.412,0,6.904,0.272,6.673,0.82H4.919c-2.134,0-2.818,1.833-2.851,1.928l-2.05,6.56c-0.067,0.216,0.053,0.446,0.269,0.514
		C0.328,9.834,0.369,9.84,0.41,9.84c0.175,0,0.336-0.112,0.391-0.288l2.044-6.543C2.851,2.995,3.355,1.64,4.919,1.64L4.919,1.64z
		 M14.349,1.64c0.678,0,1.229,0.553,1.229,1.23S15.027,4.1,14.349,4.1c-0.679,0-1.229-0.552-1.229-1.229S13.67,1.64,14.349,1.64
		L14.349,1.64z M14.349,1.64"/>
	<path fill="#999999" d="M17.219,13.529c0-1.239-0.229-2.339-0.648-3.283c-0.001-0.118-0.055-0.224-0.136-0.298
		C15.347,7.801,13.177,6.56,10.25,6.56H7.79c-2.964,0-5.153,1.271-6.228,3.468c-0.026,0.039-0.044,0.082-0.055,0.13
		C1.062,11.12,0.82,12.251,0.82,13.529c0,1.174,0.086,2.252,0.242,3.249c-0.001,0.011-0.006,0.021-0.006,0.031
		c0,0.058,0.013,0.112,0.034,0.162c0.201,1.2,0.509,2.271,0.932,3.199c0.017,0.081,0.052,0.156,0.109,0.212
		c1.193,2.454,3.178,3.884,5.879,4.163c0.06,0.032,0.124,0.053,0.189,0.053c0.048,0,0.095-0.016,0.14-0.032
		c0.224,0.015,0.447,0.032,0.682,0.032c0.232,0,0.455-0.018,0.679-0.032c0.046,0.017,0.093,0.032,0.142,0.032
		c0.064,0,0.129-0.021,0.189-0.053c2.701-0.279,4.686-1.709,5.879-4.163c0.057-0.056,0.092-0.131,0.109-0.212
		c0.422-0.928,0.73-1.999,0.931-3.198c0.021-0.051,0.034-0.105,0.034-0.163c0-0.011-0.005-0.021-0.006-0.031
		C17.132,15.781,17.219,14.703,17.219,13.529L17.219,13.529z M6.358,7.499C5.906,7.99,5.426,8.733,5.067,9.84H2.606
		C3.409,8.595,4.688,7.786,6.358,7.499L6.358,7.499z M2.179,10.659h2.665c-0.16,0.698-0.273,1.512-0.314,2.46H1.655
		C1.696,12.2,1.874,11.377,2.179,10.659L2.179,10.659z M1.649,13.939h2.86c0,0.887,0.043,1.703,0.117,2.46H1.829
		C1.724,15.636,1.664,14.816,1.649,13.939L1.649,13.939z M1.96,17.219h2.762c0.125,0.922,0.3,1.737,0.504,2.46H2.687
		C2.373,18.954,2.133,18.13,1.96,17.219L1.96,17.219z M3.092,20.499h2.389c0.49,1.42,1.078,2.402,1.559,3.041
		C5.323,23.111,3.997,22.094,3.092,20.499L3.092,20.499z M8.609,23.76c-0.098-0.005-0.197-0.007-0.293-0.014
		c-0.331-0.314-1.226-1.294-1.951-3.247h2.245V23.76z M8.609,19.679H6.09c-0.215-0.711-0.401-1.528-0.536-2.46h3.055V19.679z
		 M8.609,16.399H5.453c-0.078-0.753-0.123-1.569-0.123-2.46h3.28V16.399z M8.609,13.119H5.35c0.045-0.972,0.169-1.783,0.34-2.46
		h2.919V13.119z M8.609,9.84H5.94c0.677-1.849,1.701-2.367,1.922-2.46h0.747V9.84z M16.383,13.119h-2.874
		c-0.042-0.948-0.154-1.762-0.314-2.46h2.665C16.165,11.377,16.342,12.2,16.383,13.119L16.383,13.119z M15.432,9.84h-2.461
		c-0.358-1.106-0.839-1.85-1.291-2.341C13.35,7.786,14.629,8.595,15.432,9.84L15.432,9.84z M9.429,7.38h0.747
		c0.221,0.093,1.246,0.61,1.922,2.46H9.429V7.38z M9.429,10.659h2.919c0.172,0.677,0.295,1.488,0.34,2.46H9.429V10.659z
		 M9.429,13.939h3.28c0,0.891-0.045,1.707-0.123,2.46H9.429V13.939z M9.429,17.219h3.056c-0.135,0.932-0.322,1.749-0.537,2.46H9.429
		V17.219z M9.723,23.746c-0.097,0.007-0.195,0.009-0.294,0.014v-3.261h2.245C10.948,22.454,10.052,23.434,9.723,23.746L9.723,23.746
		z M10.999,23.54c0.48-0.639,1.068-1.621,1.559-3.041h2.389C14.042,22.094,12.715,23.111,10.999,23.54L10.999,23.54z M15.352,19.679
		h-2.539c0.203-0.723,0.379-1.538,0.504-2.46h2.762C15.905,18.13,15.666,18.954,15.352,19.679L15.352,19.679z M16.209,16.399h-2.799
		c0.075-0.757,0.118-1.573,0.118-2.46h2.86C16.374,14.816,16.315,15.636,16.209,16.399L16.209,16.399z M16.209,16.399"/>
</g>
<g>
</g>
<g>
</g>
<g>
</g>
<g>
</g>
<g>
</g>
<g>
</g>
</svg>
