<?xml version="1.0" encoding="utf-8"?>
<!-- Generator: Adobe Illustrator 16.2.0, SVG Export Plug-In . SVG Version: 6.00 Build 0)  -->
<!DOCTYPE svg PUBLIC "-//W3C//DTD SVG 1.1//EN" "http://www.w3.org/Graphics/SVG/1.1/DTD/svg11.dtd">
<svg version="1.1" id="Layer_1" xmlns="http://www.w3.org/2000/svg" xmlns:xlink="http://www.w3.org/1999/xlink" x="0px" y="0px"
	 width="38.748px" height="8.861px" viewBox="0 0 38.748 8.861" enable-background="new 0 0 38.748 8.861" xml:space="preserve">
<g>
	<g>
		<path fill="#999999" d="M37.12,0.719H11.305V1.06L9.678,0.844V0.291L7.783,0.569L3.572,0L0.541,1.479C0.207,1.643,0,1.975,0,2.346
			c0,0.37,0.207,0.702,0.541,0.866L3.572,4.69l4.211-0.568l1.894,0.28V3.847l1.628-0.216v0.342h1.23v3.6h2.553v-3.6h7.077
			l0.108,0.475c0.142,0.625,0.625,1.095,1.223,1.235l0.399,3.111l2.874,0.067l-0.445-3.25l2.021-0.1
			c0.915-0.045,1.664-0.687,1.878-1.539h6.896c0.897,0,1.628-0.729,1.628-1.627C38.748,1.449,38.018,0.719,37.12,0.719L37.12,0.719z
			 M32.502,1.686v1.319h-14.35V1.686H32.502z M4.137,1.053L7.303,1.48V3.21L4.137,3.638V1.053z M8.271,1.476l0.438-0.064v1.868
			L8.271,3.216V1.476z M3.168,1.273v2.146l-2.201-1.07L3.168,1.273z M9.678,2.871V1.82l1.627,0.216v0.619L9.678,2.871z
			 M12.271,1.686h4.913v1.319h-4.913V1.686z M14.119,6.604h-0.616V3.973h0.616V6.604z M28.299,4.546l-3.076,0.15l0.435,3.17
			l-0.908-0.021L24.35,4.737l-0.445,0.02c-0.33,0.013-0.615-0.205-0.688-0.523l-0.059-0.261h6.04
			C29.025,4.299,28.691,4.527,28.299,4.546L28.299,4.546z M37.12,3.005h-3.649V1.686h3.649c0.364,0,0.66,0.296,0.66,0.66
			C37.78,2.709,37.484,3.005,37.12,3.005L37.12,3.005z M37.12,3.005"/>
	</g>
	<rect x="11.893" y="1.228" fill="#999999" width="26.168" height="2.292"/>
	<rect x="0.977" y="1.436" fill="#999999" width="2.479" height="1.792"/>
	<rect x="9.414" y="1.436" fill="#999999" width="2.479" height="1.792"/>
	<rect x="1.914" y="0.998" fill="#999999" width="1.729" height="2.604"/>
	<rect x="4.019" y="0.998" fill="#999999" width="3.563" height="2.834"/>
	<rect x="12.893" y="2.936" fill="#999999" width="1.626" height="3.917"/>
	<rect x="23.06" y="3.394" fill="#999999" width="6.126" height="1.709"/>
	<rect x="23.852" y="4.103" fill="#999999" width="2.291" height="4.249"/>
</g>
<g>
</g>
<g>
</g>
<g>
</g>
<g>
</g>
<g>
</g>
<g>
</g>
</svg>
