<?xml version="1.0" encoding="utf-8"?>
<!-- Generator: Adobe Illustrator 16.2.0, SVG Export Plug-In . SVG Version: 6.00 Build 0)  -->
<!DOCTYPE svg PUBLIC "-//W3C//DTD SVG 1.1//EN" "http://www.w3.org/Graphics/SVG/1.1/DTD/svg11.dtd">
<svg version="1.1" id="Layer_1" xmlns="http://www.w3.org/2000/svg" xmlns:xlink="http://www.w3.org/1999/xlink" x="0px" y="0px"
	 width="24.494px" height="27.992px" viewBox="0 0 24.494 27.992" enable-background="new 0 0 24.494 27.992" xml:space="preserve">
<g>
	<path fill="#999999" d="M12.247,17.495c-2.895,0-5.248,2.354-5.248,5.248c0,2.895,2.354,5.249,5.248,5.249s5.248-2.354,5.248-5.249
		C17.495,19.85,15.142,17.495,12.247,17.495L12.247,17.495z M9.623,23.65c-0.483,0-0.875-0.392-0.875-0.875S9.14,21.9,9.623,21.9
		s0.874,0.392,0.874,0.875S10.106,23.65,9.623,23.65L9.623,23.65z M12.247,26.274c-0.482,0-0.875-0.392-0.875-0.875
		s0.393-0.874,0.875-0.874s0.875,0.391,0.875,0.874S12.729,26.274,12.247,26.274L12.247,26.274z M12.247,21.025
		c-0.482,0-0.875-0.391-0.875-0.874s0.393-0.875,0.875-0.875s0.875,0.392,0.875,0.875S12.729,21.025,12.247,21.025L12.247,21.025z
		 M14.872,23.65c-0.484,0-0.875-0.392-0.875-0.875s0.391-0.875,0.875-0.875c0.482,0,0.874,0.392,0.874,0.875
		S15.354,23.65,14.872,23.65L14.872,23.65z M14.872,23.65"/>
	<path fill="#999999" d="M22.744,6.123h-0.505C21.024,2.563,17.722,0,13.837,0h-3.18c-2.39,0-4.633,0.955-6.316,2.689
		C3.275,3.786,2.519,5.114,2.108,6.561H1.751c-0.967,0-1.75,0.783-1.75,1.75v2.624c0,0.966,0.783,1.749,1.75,1.749l0,0v1.552
		c0,1.154,0.6,2.194,1.527,2.881c1.094,0.809,1.941,1.93,2.416,3.231c0.989-2.664,3.549-4.569,6.553-4.569s5.563,1.905,6.553,4.569
		c0.477-1.302,1.323-2.423,2.416-3.231c0.928-0.688,1.528-1.727,1.528-2.882v-1.988c0.966,0,1.749-0.783,1.749-1.749V7.873
		C24.493,6.906,23.71,6.123,22.744,6.123L22.744,6.123z M8.312,11.81c-1.209,0-2.188-0.979-2.188-2.188
		c0-1.207,0.979-2.187,2.188-2.187c1.207,0,2.186,0.979,2.186,2.187C10.497,10.831,9.519,11.81,8.312,11.81L8.312,11.81z
		 M16.184,11.81c-1.208,0-2.187-0.979-2.187-2.188c0-1.207,0.979-2.187,2.187-2.187s2.187,0.979,2.187,2.187
		C18.37,10.831,17.392,11.81,16.184,11.81L16.184,11.81z M16.184,11.81"/>
	<path fill="#999999" d="M23.106,20.631c-0.398-0.397-0.963-0.582-1.518-0.489c-0.555,0.091-1.033,0.442-1.285,0.944l-1.749,3.5
		c-0.336,0.673-0.204,1.486,0.328,2.019l0.875,0.875c0.331,0.331,0.776,0.513,1.237,0.513c0.093,0,0.186-0.008,0.279-0.023
		c0.556-0.09,1.033-0.441,1.285-0.943l1.75-3.499c0.336-0.674,0.204-1.487-0.328-2.02L23.106,20.631z M23.106,20.631"/>
	<path fill="#999999" d="M4.19,21.086c-0.252-0.502-0.73-0.854-1.285-0.944c-0.555-0.09-1.12,0.093-1.518,0.49l-0.875,0.875
		c-0.532,0.532-0.664,1.346-0.328,2.02l1.75,3.499c0.252,0.502,0.729,0.854,1.285,0.943c0.094,0.016,0.188,0.023,0.279,0.023
		c0.461,0,0.907-0.182,1.238-0.513l0.874-0.875c0.532-0.532,0.664-1.346,0.328-2.019L4.19,21.086z M4.19,21.086"/>
</g>
<g>
</g>
<g>
</g>
<g>
</g>
<g>
</g>
<g>
</g>
<g>
</g>
</svg>
