<?xml version="1.0" encoding="utf-8"?>
<!-- Generator: Adobe Illustrator 16.2.0, SVG Export Plug-In . SVG Version: 6.00 Build 0)  -->
<!DOCTYPE svg PUBLIC "-//W3C//DTD SVG 1.1//EN" "http://www.w3.org/Graphics/SVG/1.1/DTD/svg11.dtd">
<svg version="1.1" id="Layer_1" xmlns="http://www.w3.org/2000/svg" xmlns:xlink="http://www.w3.org/1999/xlink" x="0px" y="0px"
	 width="27.464px" height="20.841px" viewBox="0 0 27.464 20.841" enable-background="new 0 0 27.464 20.841" xml:space="preserve">
<path fill="#999999" d="M5.763,7.247l0.186-0.035L6.058,6.38L4.98,6.396l0.222,0.15l0.103,0.521L5.763,7.247z M5.763,7.247"/>
<path fill="#999999" d="M7.912,8.09L7.831,7.671L7.363,7.699L7.101,8.071L7.912,8.09z M7.912,8.09"/>
<path fill="#999999" d="M9.005,7.03l0.115,0.596l0.601,0.115l0.056-0.86L9.362,6.808L9.005,7.03z M9.005,7.03"/>
<path fill="#999999" d="M13.782,10.726c-0.115-0.084-0.227-0.164-0.334-0.242l-0.02,0.467l-0.591-0.9
	c-2.579-1.816-3.142-1.928-3.34-1.968C9.206,8.023,8.667,8.05,7.896,8.155L7.381,8.724L6.927,8.312
	C6.456,8.396,5.93,8.499,5.345,8.622L5.263,8.371l-0.3,0.606l-0.52-0.072L3.41,9.146l0.402-0.908l1.056-0.34l-2.092-0.57
	l1.768-0.845L4.453,5.944C4.9,6.021,5.372,6.077,5.775,6.068L5.763,5.606l0.446,0.262l0.498-0.215L6.644,5.928
	C7.639,5.649,8.869,5.025,9.147,4.88c0.094-0.05,0.176-0.112,0.244-0.188C9.495,4.579,9.562,4.44,9.595,4.294l-0.31-0.426
	l0.147-0.295c-0.252-0.328-0.709-0.438-1.09-0.242c-0.722,0.375-1.97,0.93-2.485,0.987C5.55,4.354,4.977,4.274,4.413,4.161
	c1-0.572,2.127-1.365,3.067-2.4C7.579,1.652,7.677,1.54,7.771,1.426C8.078,1.055,8.024,0.506,7.653,0.2
	C7.639,0.188,7.624,0.179,7.609,0.169L7.513,0.452L7.188,0.005C6.909-0.024,6.62,0.083,6.425,0.317
	C6.253,0.524,6.072,0.722,5.881,0.91L5.833,1.083l0.34,0.426l-0.6,0.023L4.94,2.667l0.132-1.045c-0.469,0.37-1.67,1.774-3.104,1.789
	c0,0-0.247,0.008-0.484,0.092C1.256,3.585,1.02,3.724,1.02,3.724L1.014,3.726C0.356,4.14-0.214,4.979,0.079,5.856l0.431,1.293
	l0.043,0.021l0.481-0.253l0.104,0.591l0.854,0.845L0.819,8.075l0.827,2.484c0.209,0.629,0.754,0.98,1.359,1.087l0.708,1.202
	l0.246-0.622l0.322,1.026l-0.279,0.088l0.809,1.371l0.029,0.014l0.481-0.254l-0.09,0.594l0.487,0.276l-0.42,0.199l1.503,2.552
	c0.332,0.566,1.062,0.754,1.628,0.421c0.105-0.062,0.199-0.138,0.278-0.225c0.34-0.375,0.414-0.943,0.143-1.403l-0.954-1.62
	l-0.572,0.179l0.274-0.686l-2.19-3.719c0.776-0.169,1.656-0.338,2.369-0.458l-0.32-0.476l1.01,0.371
	c0.238-0.031,0.434-0.053,0.555-0.055c0.496,0.23,2.093,1.306,3.361,2.227c0.496,0.359,1.177,0.282,1.578-0.161
	c0.029-0.032,0.057-0.065,0.084-0.101C14.43,11.854,14.314,11.112,13.782,10.726L13.782,10.726z M13.782,10.726"/>
<path fill="#999999" d="M27.236,5.275c-0.484-0.623-1.416-0.587-3.109-0.521c-0.344,0.013-0.693,0.027-1.033,0.032
	c0.602-0.368,1.033-1.003,1.113-1.762c0.135-1.291-0.805-2.447-2.096-2.581c-1.293-0.135-2.449,0.806-2.582,2.098
	c-0.105,1.017,0.455,1.945,1.328,2.362c-0.107,0.04-0.213,0.088-0.314,0.143L12.939,5.06v-0.12h-1.037v0.122l-0.418,0.001
	l0.001,0.829l3.873-0.007c0.26,0.165,0.623,0.319,1.104,0.403c0.012,0.032,0.025,0.065,0.041,0.097
	c0.074,0.142,0.727,1.409,1.318,2.065c0.441,0.489,1.014,0.711,1.449,0.811l-0.236,2.461c-0.02,0.184-0.01,0.195,0.027,0.357
	c-1.135,0.922-2.336,2.158-2.322,3.252c0.01,0.972,0.666,4.051,0.795,4.658c0.111,0.506,0.559,0.852,1.057,0.852
	c0.074,0,0.15-0.008,0.227-0.024c0.582-0.126,0.953-0.699,0.828-1.282c-0.297-1.371-0.711-3.516-0.746-4.164
	c0.146-0.346,0.971-1.189,1.785-1.824c0.102,0.023,0.203,0.043,0.307,0.054c0.08,0.007,0.16,0.011,0.238,0.011
	c0.205,1.332,0.535,2.646,1.07,3.207c0.617,0.642,2.943,3.197,2.969,3.223c0.211,0.233,0.504,0.352,0.797,0.352
	c0.26,0,0.52-0.093,0.727-0.28c0.439-0.401,0.473-1.085,0.072-1.524c-0.096-0.105-2.318-2.545-2.984-3.239
	c-0.201-0.326-0.51-1.538-0.666-2.876c0.109-0.068,0.143-0.267,0.156-0.393l0.373-4.106c-0.797,0.058-1.834,0.064-2.793-0.139
	c-0.049-0.011-0.098-0.025-0.143-0.04c-0.504-0.184-0.801-0.714-0.691-1.24c0.063-0.289,0.234-0.525,0.465-0.678l0.16-0.086
	c0.199-0.088,0.426-0.117,0.654-0.068c1.502,0.318,3.59-0.021,4.17-0.236c0.041-0.039,0.152,0.297,0.152,0.297
	c-0.563,0.227-2.799,0.602-4.391,0.265c-0.404-0.087-0.801,0.173-0.887,0.576c-0.082,0.396,0.172,0.8,0.578,0.886
	c0.947,0.2,1.977,0.188,2.76,0.129V7.63c0.426-0.036,0.801-0.087,1.078-0.133c2.307-0.378,2.467-0.916,2.561-1.236
	C27.52,5.913,27.453,5.556,27.236,5.275L27.236,5.275z M19.463,7.413c-0.109-0.043-0.213-0.104-0.287-0.186
	c-0.168-0.186-0.367-0.486-0.549-0.785c0.438,0.025,0.76,0.045,0.93,0.055L19.463,7.413z M19.463,7.413"/>
<path fill="#999999" d="M11.12,5.553H11.1l-0.069,0.194l-0.072-0.211l-0.191,0.252l0.195-0.43l-0.257,0.119l0.079-0.139L10.383,5.44
	l0.319-0.163l-0.179-0.123l0.263,0.104l-0.011-0.088l0.108,0.031l0.13-0.317l0.094,0.145l0.03-0.884L10.85,5.089l-0.291-0.774
	l0.108,0.791L9.752,4.743l0.76,0.521L9.565,5.749l1.021-0.258l-0.115,0.205l0.291-0.137l-0.44,0.971l0.604-0.789l0.237,0.687
	L11.12,5.553z M11.12,5.553"/>
<g>
</g>
<g>
</g>
<g>
</g>
<g>
</g>
<g>
</g>
<g>
</g>
</svg>
