<?xml version="1.0" encoding="utf-8"?>
<!-- Generator: Adobe Illustrator 16.2.0, SVG Export Plug-In . SVG Version: 6.00 Build 0)  -->
<!DOCTYPE svg PUBLIC "-//W3C//DTD SVG 1.1//EN" "http://www.w3.org/Graphics/SVG/1.1/DTD/svg11.dtd">
<svg version="1.1" id="Layer_1" xmlns="http://www.w3.org/2000/svg" xmlns:xlink="http://www.w3.org/1999/xlink" x="0px" y="0px"
	 width="23.824px" height="25.562px" viewBox="0 0 23.824 25.562" enable-background="new 0 0 23.824 25.562" xml:space="preserve">
<path fill="#999999" stroke="#FFFFFF" stroke-miterlimit="10" d="M22.969,0.703l0.321,0.315c0,0,1.159,4.155-9.939,15.258
	c-2.599-1.479-3.966,1.604-4.096,2.043c-0.566,0.565-6.411,6.326-6.411,6.326l-0.005-0.007c-0.003,0.007-0.008,0.015-0.016,0.021
	c-0.529,0.537-1.395,0.537-1.924,0c-0.532-0.525-0.532-1.396,0-1.92c0.003-0.008,0.013-0.021,0.02-0.021v-0.005
	c5.682-5.68,5.678-5.684,7.191-7.185C8.701,14.931,22.969,0.703,22.969,0.703L22.969,0.703z M22.969,0.703"/>
<g>
</g>
<g>
</g>
<g>
</g>
<g>
</g>
<g>
</g>
<g>
</g>
</svg>
