<?xml version="1.0" encoding="utf-8"?>
<!-- Generator: Adobe Illustrator 16.2.0, SVG Export Plug-In . SVG Version: 6.00 Build 0)  -->
<!DOCTYPE svg PUBLIC "-//W3C//DTD SVG 1.1//EN" "http://www.w3.org/Graphics/SVG/1.1/DTD/svg11.dtd">
<svg version="1.1" id="Layer_1" xmlns="http://www.w3.org/2000/svg" xmlns:xlink="http://www.w3.org/1999/xlink" x="0px" y="0px"
	 width="22.21px" height="28.068px" viewBox="0 0 22.21 28.068" enable-background="new 0 0 22.21 28.068" xml:space="preserve">
<path fill="#999999" d="M17.424,10.846c-5.48-4.573-4.18-8.566-3.296-10.158c0.184-0.332-0.092-0.733-0.468-0.684
	C11.852,0.25,8.031,1.516,7.146,7.758C7.145,7.771,7.144,7.785,7.143,7.796c-1.027-0.9-2.456-1.133-3.65-1.133
	c-0.114,0-0.227,0.002-0.337,0.007C2.678,6.688,2.538,7.339,2.967,7.547c5.08,2.487-1.403,7.406-2.59,11.594
	c-1.539,5.431,2.01,7.771,3.989,8.631c0.063,0.027,0.125,0.037,0.186,0.037c0.313,0,0.569-0.325,0.426-0.645
	c-1.291-2.887-0.187-6.898,1.794-8.9c2.002-2.023,2.274-3.654,2.08-5.865c-0.026-0.29,0.212-0.508,0.466-0.508
	c0.091,0,0.185,0.027,0.27,0.09c2.019,1.52,2.825,5.002,1.999,7.661c-0.094,0.304,0.139,0.601,0.438,0.601
	c0.033,0,0.067-0.004,0.102-0.011c0.733-0.163,1.788-0.601,2.331-1.775c0.079-0.173,0.248-0.285,0.426-0.285
	c0.047,0,0.096,0.011,0.143,0.024c2.716,0.945,4.11,5.476,2.978,9.279c-0.091,0.307,0.153,0.594,0.446,0.594
	c0.053,0,0.105-0.01,0.16-0.031C22.254,26.695,24.915,17.095,17.424,10.846L17.424,10.846z M17.424,10.846"/>
<g>
</g>
<g>
</g>
<g>
</g>
<g>
</g>
<g>
</g>
<g>
</g>
</svg>
