<?xml version="1.0" encoding="utf-8"?>
<!-- Generator: Adobe Illustrator 16.2.0, SVG Export Plug-In . SVG Version: 6.00 Build 0)  -->
<!DOCTYPE svg PUBLIC "-//W3C//DTD SVG 1.1//EN" "http://www.w3.org/Graphics/SVG/1.1/DTD/svg11.dtd">
<svg version="1.1"
	 id="Layer_1" xmlns:inkscape="http://www.inkscape.org/namespaces/inkscape" xmlns:sodipodi="http://sodipodi.sourceforge.net/DTD/sodipodi-0.dtd" xmlns:cc="http://creativecommons.org/ns#" xmlns:rdf="http://www.w3.org/1999/02/22-rdf-syntax-ns#" xmlns:svg="http://www.w3.org/2000/svg" xmlns:dc="http://purl.org/dc/elements/1.1/"
	 xmlns="http://www.w3.org/2000/svg" xmlns:xlink="http://www.w3.org/1999/xlink" x="0px" y="0px" width="138.188px"
	 height="93.687px" viewBox="19.125 128.25 138.188 93.687" enable-background="new 19.125 128.25 138.188 93.687"
	 xml:space="preserve">
<g transform="translate(0,-988.36214)">
	<path d="M71.824,1116.612c-1.927,0-3.513,1.587-3.513,3.513c0,1.515,0.986,2.805,2.342,3.293v5.389l11.711,11.71v13.568h-9.369
		v-12.196l-4.199-4.199h-5.389c-0.488-1.356-1.778-2.342-3.293-2.342c-1.926,0-3.513,1.587-3.513,3.513s1.587,3.513,3.513,3.513
		c1.515,0,2.805-0.986,3.293-2.342h4.419l2.827,2.827v11.226H55.429c-1.956,0-3.514,1.668-3.514,3.627v3.399H40.689l-2.827-2.827
		v-2.077c1.356-0.488,2.342-1.779,2.342-3.293c0-1.927-1.587-3.514-3.513-3.514c-1.927,0-3.514,1.587-3.514,3.514
		c0,1.515,0.986,2.805,2.342,3.293v3.046l4.2,4.2h12.195v7.026H38.347l-7.026-7.026h-5.389c-0.489-1.356-1.779-2.342-3.294-2.342
		c-1.926,0-3.513,1.587-3.513,3.513c0,1.927,1.587,3.513,3.513,3.513c1.515,0,2.805-0.986,3.294-2.342h4.419l7.026,7.026h14.538
		v7.026H37.377l-7.026,7.026h-4.419c-0.489-1.356-1.779-2.342-3.294-2.342c-1.926,0-3.513,1.586-3.513,3.513
		c0,1.926,1.587,3.513,3.513,3.513c1.515,0,2.805-0.986,3.294-2.342h5.389l7.026-7.026h13.568v7.026H39.72l-4.2,4.2v3.046
		c-1.356,0.488-2.342,1.779-2.342,3.293c0,1.927,1.587,3.514,3.514,3.514c1.926,0,3.513-1.587,3.513-3.514
		c0-1.515-0.986-2.805-2.342-3.293v-2.077l2.827-2.827h11.226v7.026H46.06c-0.647,0-1.171,0.524-1.171,1.171v3.125
		c0,4.053,3.13,7.416,7.059,7.416h72.562c3.929,0,7.058-3.363,7.058-7.416v-3.125c0-0.646-0.524-1.171-1.171-1.171h-5.874v-7.026
		h11.226l2.827,2.827v2.077c-1.356,0.488-2.342,1.779-2.342,3.293c0,1.927,1.587,3.514,3.513,3.514c1.927,0,3.514-1.587,3.514-3.514
		c0-1.515-0.986-2.805-2.342-3.293v-3.046l-4.2-4.2h-12.195v-7.026h13.568l7.026,7.026h5.389c0.489,1.356,1.779,2.342,3.294,2.342
		c1.926,0,3.513-1.587,3.513-3.513c0-1.927-1.587-3.513-3.513-3.513c-1.515,0-2.805,0.986-3.294,2.342h-4.419l-7.026-7.026h-14.538
		v-7.026h14.538l7.026-7.026h4.419c0.489,1.356,1.779,2.342,3.294,2.342c1.926,0,3.513-1.586,3.513-3.513
		c0-1.926-1.587-3.513-3.513-3.513c-1.515,0-2.805,0.986-3.294,2.342h-5.389l-7.026,7.026h-13.568v-7.026h12.195l4.2-4.2v-3.046
		c1.356-0.488,2.342-1.779,2.342-3.293c0-1.927-1.587-3.514-3.514-3.514c-1.926,0-3.513,1.587-3.513,3.514
		c0,1.515,0.986,2.805,2.342,3.293v2.077l-2.827,2.827h-11.226v-3.399c0-1.959-1.558-3.627-3.514-3.627h-15.224v-11.226l2.827-2.827
		h4.419c0.488,1.356,1.778,2.342,3.293,2.342c1.926,0,3.513-1.587,3.513-3.513s-1.587-3.513-3.513-3.513
		c-1.515,0-2.806,0.986-3.293,2.342h-5.389l-4.199,4.199v12.196h-7.026v-13.568l11.71-11.71v-5.389
		c1.356-0.488,2.342-1.778,2.342-3.293c0-1.926-1.587-3.513-3.513-3.513s-3.513,1.587-3.513,3.513c0,1.515,0.986,2.805,2.342,3.293
		v4.419l-11.711,11.71v14.538h-9.369v-14.538l-11.711-11.71v-4.419c1.356-0.488,2.342-1.778,2.342-3.293
		C75.337,1118.199,73.75,1116.612,71.824,1116.612z M71.824,1118.954c0.661,0,1.171,0.51,1.171,1.171s-0.51,1.171-1.171,1.171
		s-1.171-0.511-1.171-1.171S71.163,1118.954,71.824,1118.954z M106.956,1118.954c0.661,0,1.171,0.51,1.171,1.171
		s-0.51,1.171-1.171,1.171s-1.171-0.511-1.171-1.171S106.295,1118.954,106.956,1118.954z M60.113,1137.692
		c0.661,0,1.171,0.51,1.171,1.171s-0.51,1.171-1.171,1.171s-1.171-0.511-1.171-1.171S59.452,1137.692,60.113,1137.692z
		 M116.325,1137.692c0.661,0,1.171,0.51,1.171,1.171s-0.51,1.171-1.171,1.171s-1.171-0.511-1.171-1.171
		S115.664,1137.692,116.325,1137.692z M36.691,1151.744c0.661,0,1.171,0.511,1.171,1.171s-0.51,1.171-1.171,1.171
		c-0.661,0-1.171-0.51-1.171-1.171S36.03,1151.744,36.691,1151.744z M139.746,1151.744c0.661,0,1.171,0.511,1.171,1.171
		s-0.511,1.171-1.171,1.171s-1.171-0.51-1.171-1.171S139.085,1151.744,139.746,1151.744z M55.429,1156.429h65.58
		c0.639,0,1.171,0.526,1.171,1.285v3.399v2.342v25.764v2.342v7.026H99.93H75.712h-3.239H54.257v-40.874
		C54.257,1156.955,54.79,1156.429,55.429,1156.429z M60.113,1161.113c-0.647,0-1.171,0.524-1.171,1.171v30.448
		c0,0.647,0.524,1.171,1.171,1.171h56.212c0.647,0,1.171-0.524,1.171-1.171v-30.448c0-0.646-0.524-1.171-1.171-1.171H60.113z
		 M22.638,1163.455c0.661,0,1.171,0.51,1.171,1.171s-0.51,1.171-1.171,1.171s-1.171-0.511-1.171-1.171
		S21.978,1163.455,22.638,1163.455z M61.284,1163.455h53.87v28.106h-53.87V1163.455z M153.799,1163.455
		c0.661,0,1.171,0.51,1.171,1.171s-0.51,1.171-1.171,1.171s-1.171-0.511-1.171-1.171S153.139,1163.455,153.799,1163.455z
		 M87.995,1165.798c-0.317,0.012-0.639,0.068-1.006,0.174c-1.106,0.313-2.061,0.975-2.699,1.903
		c-0.158,0.229-0.172,0.273-0.343,0.563c-0.171,0.29-0.404,0.689-0.687,1.171c-0.564,0.965-1.32,2.262-2.127,3.655
		c-1.613,2.784-3.409,5.883-3.994,6.889c-0.294,0.507-0.573,0.997-0.792,1.382c-0.218,0.385-0.342,0.593-0.439,0.787
		c-0.33,0.668-0.518,1.413-0.49,2.196c0.027,1.315,0.581,2.551,1.551,3.445c0.637,0.586,1.429,0.975,2.301,1.148
		c0.532,0.115,2.271,0.09,5.297,0.083v0.023h1.171c4.843,0,7.506,0.124,11.217,0h0.087l0.083-0.023
		c0.696-0.129,1.169-0.426,1.482-0.599h0.005c0.665-0.37,1.22-0.895,1.638-1.533c0.932-1.424,1.047-3.229,0.297-4.753h0.004
		c-0.063-0.129-0.063-0.119-0.11-0.201s-0.11-0.196-0.188-0.334c-0.156-0.272-0.373-0.646-0.636-1.103
		c-0.526-0.912-1.236-2.14-2.004-3.463c-1.534-2.645-3.331-5.747-3.993-6.889c-0.333-0.575-0.662-1.125-0.92-1.56
		c-0.258-0.435-0.386-0.665-0.544-0.892c-0.335-0.482-0.73-0.893-1.222-1.226c-0.585-0.397-1.256-0.664-1.962-0.773h-0.005v0.005
		C88.622,1165.816,88.312,1165.785,87.995,1165.798z M88.607,1168.185h0.005c0.322,0.049,0.75,0.216,1.011,0.394
		c0.094,0.063,0.49,0.454,0.613,0.631c-0.046-0.065,0.2,0.321,0.453,0.746s0.576,0.978,0.906,1.546
		c0.663,1.144,2.459,4.24,3.994,6.885c0.767,1.322,1.475,2.549,1.999,3.458c0.262,0.455,0.478,0.83,0.631,1.098
		c0.077,0.134,0.141,0.245,0.183,0.32c0.042,0.075,0.095,0.183,0.046,0.083c0.398,0.811,0.346,1.672-0.156,2.438
		c-0.165,0.251-0.58,0.636-0.819,0.769c-0.241,0.133-0.659,0.306-0.728,0.33c-3.177,0.101-5.91,0.023-9.835,0h-1.171
		c-5.214,0-5.945-0.041-5.988-0.05h-0.009h-0.014c-0.536-0.105-0.811-0.25-1.171-0.581c-0.552-0.508-0.788-1.03-0.8-1.775v-0.023
		v-0.023c-0.017-0.421,0.041-0.649,0.247-1.07h0.004c-0.016,0.033,0.164-0.296,0.375-0.668c0.214-0.377,0.492-0.863,0.782-1.363
		c0.585-1.009,2.386-4.11,3.999-6.894c0.806-1.391,1.556-2.681,2.118-3.642c0.281-0.48,0.514-0.877,0.682-1.162
		s0.367-0.591,0.256-0.43c0.336-0.49,0.755-0.795,1.409-0.979h0.004h0.004C87.537,1168.25,88.563,1168.178,88.607,1168.185z
		 M87.048,1172.824v7.196h2.342v-7.196H87.048z M87.048,1182.193v2.342h2.342v-2.342H87.048z M22.638,1186.877
		c0.661,0,1.171,0.511,1.171,1.171s-0.51,1.171-1.171,1.171s-1.171-0.51-1.171-1.171S21.978,1186.877,22.638,1186.877z
		 M153.799,1186.877c0.661,0,1.171,0.511,1.171,1.171s-0.51,1.171-1.171,1.171s-1.171-0.51-1.171-1.171
		S153.139,1186.877,153.799,1186.877z M36.691,1198.588c0.661,0,1.171,0.511,1.171,1.171c0,0.661-0.51,1.171-1.171,1.171
		c-0.661,0-1.171-0.51-1.171-1.171C35.52,1199.098,36.03,1198.588,36.691,1198.588z M139.746,1198.588
		c0.661,0,1.171,0.511,1.171,1.171c0,0.661-0.511,1.171-1.171,1.171s-1.171-0.51-1.171-1.171
		C138.575,1199.098,139.085,1198.588,139.746,1198.588z M47.231,1200.93h25.242h2.96c0.178,1.084,0.599,2.072,1.221,2.868
		c0.84,1.076,2.097,1.816,3.513,1.816H96.27c1.416,0,2.673-0.74,3.513-1.816c0.622-0.796,1.043-1.784,1.221-2.868h28.22v1.953
		c0,2.868-2.121,5.073-4.716,5.073H51.947c-2.595,0-4.716-2.206-4.716-5.073V1200.93z M78.049,1200.93h20.339
		c-0.146,0.495-0.184,1.088-0.448,1.427c-0.483,0.618-1.059,0.915-1.67,0.915H80.167c-0.611,0-1.187-0.297-1.669-0.915
		C78.233,1202.018,78.195,1201.425,78.049,1200.93z"/>
</g>
</svg>
