<?xml version="1.0" encoding="utf-8"?>
<!-- Generator: Adobe Illustrator 16.2.0, SVG Export Plug-In . SVG Version: 6.00 Build 0)  -->
<!DOCTYPE svg PUBLIC "-//W3C//DTD SVG 1.1//EN" "http://www.w3.org/Graphics/SVG/1.1/DTD/svg11.dtd">
<svg version="1.1" id="Layer_1" xmlns="http://www.w3.org/2000/svg" xmlns:xlink="http://www.w3.org/1999/xlink" x="0px" y="0px"
	 width="26.975px" height="30.656px" viewBox="0 0 26.975 30.656" enable-background="new 0 0 26.975 30.656" xml:space="preserve">
<path fill="#999999" d="M21.052,22.365c-0.082-0.102-0.208-0.161-0.337-0.161h-1.652c-0.407-1.073-0.938-2.127-1.539-2.523
	c-2.089-1.374-7.626-1.374-9.712,0c-0.602,0.396-1.133,1.45-1.542,2.523H4.619c-0.132,0-0.255,0.06-0.338,0.161
	s-0.114,0.233-0.088,0.363l0.246,1.184c0.041,0.201,0.219,0.346,0.424,0.346h0.49c-0.473,0.545-0.702,1.231-0.704,1.917
	c-0.004,0.849,0.318,1.614,0.908,2.157c0.006,0.004,0.013,0.01,0.019,0.015v1.658c0,0.358,0.291,0.651,0.651,0.651H7.75
	c0.358,0,0.652-0.293,0.652-0.651V29.34h8.531v0.665c0,0.358,0.291,0.651,0.65,0.651h1.523c0.358,0,0.652-0.293,0.652-0.651v-1.626
	c0.623-0.57,0.922-1.357,0.927-2.145c0.001-0.709-0.237-1.421-0.739-1.977h0.523c0.204,0,0.383-0.145,0.425-0.346l0.244-1.184
	C21.164,22.599,21.132,22.467,21.052,22.365L21.052,22.365z M8.527,20.77c1.664-1.096,6.616-1.096,8.276,0
	c0.324,0.211,0.74,1.068,1.12,2.117H7.408C7.788,21.838,8.204,20.98,8.527,20.77L8.527,20.77z M6.578,26.338
	c0-0.705,0.575-1.281,1.281-1.281c0.708,0,1.283,0.576,1.283,1.281c0,0.709-0.575,1.283-1.283,1.283
	C7.153,27.621,6.578,27.047,6.578,26.338L6.578,26.338z M17.488,27.621c-0.706,0-1.28-0.574-1.28-1.283
	c0-0.705,0.574-1.281,1.28-1.281c0.709,0,1.284,0.576,1.284,1.281C18.772,27.047,18.197,27.621,17.488,27.621L17.488,27.621z
	 M17.488,27.621"/>
<path fill="#999999" d="M26.323,11.937l-5.682,0.416V7.404c0-0.482-0.537-0.771-0.939-0.505l-3.525,2.326l-1.688-8.734
	c-0.113-0.582-0.908-0.673-1.149-0.132L9.836,8.244L4.33,4.404C3.875,4.087,3.27,4.495,3.392,5.035l1.71,7.585l-4.623,0.995
	c-0.488,0.105-0.646,0.722-0.271,1.049l3.287,2.867l-2.947,2.322h5.534l1.568-1.235l-2.238-1.952l3.095-0.668L7.41,11.141
	l3.621,2.523l2.286-5.144l1.096,5.668l2.382-1.571v3.238L20.7,15.57l-3.285,3.238l1.662,1.045h5.852l-3.125-1.965l4.988-4.916
	C27.193,12.577,26.885,11.895,26.323,11.937L26.323,11.937z"/>
<g>
</g>
<g>
</g>
<g>
</g>
<g>
</g>
<g>
</g>
<g>
</g>
</svg>
