<?xml version="1.0" encoding="utf-8"?>
<!-- Generator: Adobe Illustrator 16.2.0, SVG Export Plug-In . SVG Version: 6.00 Build 0)  -->
<!DOCTYPE svg PUBLIC "-//W3C//DTD SVG 1.1//EN" "http://www.w3.org/Graphics/SVG/1.1/DTD/svg11.dtd">
<svg version="1.1" id="Layer_1" xmlns="http://www.w3.org/2000/svg" xmlns:xlink="http://www.w3.org/1999/xlink" x="0px" y="0px"
	 width="28.264px" height="17.9px" viewBox="0 0 28.264 17.9" enable-background="new 0 0 28.264 17.9" xml:space="preserve">
<g>
	<path fill="#999999" d="M23.317,13.096c-1.325,0-2.402,1.078-2.402,2.402s1.077,2.402,2.402,2.402s2.402-1.078,2.402-2.402
		S24.643,13.096,23.317,13.096L23.317,13.096z M23.317,16.203c-0.389,0-0.706-0.316-0.706-0.705c0-0.39,0.317-0.707,0.706-0.707
		c0.39,0,0.706,0.317,0.706,0.707C24.023,15.887,23.707,16.203,23.317,16.203L23.317,16.203z M23.317,16.203"/>
	<path fill="#999999" d="M23.088,3.108h-4.151c-0.313,0-0.564,0.253-0.564,0.565v11.022c0,0.313,0.252,0.566,0.564,0.566h0.6
		c0.28,0,0.528-0.202,0.563-0.479c0.223-1.699,1.578-2.754,3.219-2.754c1.64,0,2.996,1.055,3.218,2.754
		c0.036,0.277,0.282,0.479,0.563,0.479h0.599c0.313,0,0.565-0.253,0.565-0.566V9.186c0-0.133-0.046-0.262-0.132-0.362l-4.61-5.513
		C23.414,3.183,23.255,3.108,23.088,3.108L23.088,3.108z M19.502,7.631V4.805c0-0.313,0.253-0.565,0.564-0.565h2.491
		c0.168,0,0.326,0.074,0.434,0.204l2.354,2.826c0.308,0.367,0.046,0.928-0.434,0.928h-4.846C19.755,8.197,19.502,7.943,19.502,7.631
		L19.502,7.631z M19.502,7.631"/>
	<path fill="#999999" d="M0.565,15.263h1.446c0.28,0,0.528-0.202,0.565-0.479c0.222-1.699,1.576-2.754,3.218-2.754
		c1.64,0,2.995,1.055,3.217,2.754c0.037,0.277,0.284,0.479,0.564,0.479h7.1c0.312,0,0.565-0.253,0.565-0.565V0.565
		C17.241,0.253,16.987,0,16.676,0H0.565C0.252,0,0,0.253,0,0.565v14.132C0,15.01,0.252,15.263,0.565,15.263L0.565,15.263z
		 M0.565,15.263"/>
	<path fill="#999999" d="M5.795,13.096c-1.325,0-2.402,1.078-2.402,2.402S4.47,17.9,5.795,17.9c1.324,0,2.402-1.078,2.402-2.402
		S7.119,13.096,5.795,13.096L5.795,13.096z M5.795,16.203c-0.391,0-0.708-0.316-0.708-0.705c0-0.39,0.317-0.707,0.708-0.707
		c0.389,0,0.706,0.317,0.706,0.707C6.501,15.887,6.184,16.203,5.795,16.203L5.795,16.203z M5.795,16.203"/>
</g>
<g>
</g>
<g>
</g>
<g>
</g>
<g>
</g>
<g>
</g>
<g>
</g>
</svg>
