<?xml version="1.0" encoding="utf-8"?>
<!-- Generator: Adobe Illustrator 16.2.0, SVG Export Plug-In . SVG Version: 6.00 Build 0)  -->
<!DOCTYPE svg PUBLIC "-//W3C//DTD SVG 1.1//EN" "http://www.w3.org/Graphics/SVG/1.1/DTD/svg11.dtd">
<svg version="1.1" id="Layer_1" xmlns="http://www.w3.org/2000/svg" xmlns:xlink="http://www.w3.org/1999/xlink" x="0px" y="0px"
	 width="27.059px" height="27.058px" viewBox="0 0 27.059 27.058" enable-background="new 0 0 27.059 27.058" xml:space="preserve">
<path fill="#999999" d="M25.278,5.463c1.112-1.486,1.774-3.031,1.78-4.135c-0.003-0.356-0.075-0.637-0.211-0.844
	c-0.014-0.025-0.054-0.092-0.121-0.158c-0.07-0.067-0.131-0.104-0.145-0.11C26.363,0.069,26.084,0,25.725,0
	c-1.099,0.002-2.644,0.665-4.131,1.777c-1.201,0.9-2.404,2.168-4.066,3.92c-0.284,0.298-0.58,0.611-0.896,0.938L13.41,5.67
	l0.01-0.008c0.133-0.137,0.209-0.323,0.207-0.506c0.002-0.191-0.076-0.379-0.21-0.512l-0.581-0.584
	c-0.137-0.137-0.32-0.213-0.513-0.213c-0.194,0-0.376,0.074-0.512,0.213l-0.871,0.87l-0.46-0.138
	c0.099-0.127,0.154-0.284,0.154-0.439c0-0.194-0.075-0.377-0.212-0.513L9.837,3.254C9.705,3.121,9.519,3.045,9.325,3.045
	c-0.194,0-0.375,0.074-0.507,0.212L8.02,4.055l-3.278-0.98C4.667,3.052,4.59,3.04,4.507,3.04C4.274,3.043,4.058,3.131,3.9,3.286
	L2.748,4.439C2.616,4.57,2.544,4.746,2.544,4.912C2.542,5.16,2.678,5.389,2.896,5.506L9.79,9.356
	c0.032,0.019,0.131,0.091,0.167,0.126l1.965,1.965c-1.838,1.936-3.476,3.813-4.751,5.443c-0.119,0.151-0.232,0.3-0.343,0.447
	l-5.333-0.485c-0.025-0.005-0.054-0.007-0.092-0.007c-0.244,0.007-0.483,0.102-0.661,0.273l-0.537,0.536
	C0.072,17.786-0.002,17.962,0,18.131c-0.004,0.26,0.154,0.499,0.388,0.603l3.751,1.782c0.032,0.016,0.115,0.076,0.142,0.104
	l0.312,0.31c-0.097,0.272-0.147,0.512-0.149,0.72c0,0.279,0.091,0.519,0.262,0.692l0.014,0.011l0.004,0.002
	c0.176,0.172,0.406,0.26,0.688,0.26c0.206-0.004,0.44-0.052,0.715-0.148l0.316,0.315c0.024,0.024,0.084,0.108,0.099,0.14
	l1.777,3.742c0.109,0.24,0.343,0.396,0.598,0.396h0.004c0.176,0,0.345-0.072,0.474-0.201l0.55-0.553
	c0.162-0.171,0.259-0.408,0.262-0.658c0-0.03,0-0.054-0.002-0.065L9.72,20.227c0.146-0.107,0.293-0.223,0.446-0.34
	c1.634-1.277,3.508-2.917,5.441-4.751l1.967,1.967c0.032,0.032,0.106,0.129,0.127,0.169l3.844,6.881
	c0.117,0.221,0.343,0.358,0.594,0.358c0.178,0,0.35-0.07,0.478-0.203l1.161-1.159c0.152-0.158,0.235-0.37,0.237-0.605
	c0-0.078-0.011-0.155-0.031-0.225l-0.981-3.28l0.799-0.798c0.135-0.134,0.212-0.32,0.212-0.51c0-0.192-0.075-0.373-0.21-0.511
	l-0.586-0.587c-0.136-0.133-0.32-0.209-0.51-0.209c-0.163,0-0.32,0.055-0.445,0.15l-0.135-0.459l0.871-0.871
	c0.133-0.136,0.209-0.32,0.209-0.512c0-0.192-0.074-0.373-0.209-0.508l-0.582-0.584c-0.136-0.136-0.323-0.213-0.515-0.213
	c-0.192,0-0.379,0.077-0.51,0.213l-0.007,0.004l-0.966-3.221c0.334-0.318,0.649-0.621,0.952-0.907
	C23.119,7.858,24.383,6.66,25.278,5.463L25.278,5.463z M25.278,5.463"/>
<g>
</g>
<g>
</g>
<g>
</g>
<g>
</g>
<g>
</g>
<g>
</g>
</svg>
